solid OpenSCAD_Model
  facet normal -0.866028 0.499996 0
    outer loop
      vertex -7.5 12.9904 0
      vertex -8.88043 10.5994 4
      vertex -7.5 12.9904 4
    endloop
  endfacet
  facet normal -0.866025 0.5 3.3209e-06
    outer loop
      vertex -7.5 12.9904 0
      vertex -9.99973 8.66073 2.0002
      vertex -8.88043 10.5994 4
    endloop
  endfacet
  facet normal -0.869146 0.494289 -0.0162589
    outer loop
      vertex -7.5 12.9904 0
      vertex -9.99984 8.66053 2
      vertex -9.99973 8.66073 2.0002
    endloop
  endfacet
  facet normal -0.866025 0.5 6.06394e-06
    outer loop
      vertex -7.5 12.9904 0
      vertex -12.5 4.33013 2
      vertex -9.99984 8.66053 2
    endloop
  endfacet
  facet normal -0.866026 0.499999 8.33332e-07
    outer loop
      vertex -15 0 0
      vertex -12.5 4.33013 2
      vertex -7.5 12.9904 0
    endloop
  endfacet
  facet normal -0.866026 0.499999 1.89796e-06
    outer loop
      vertex -15 0 0
      vertex -13.6194 2.39126 4
      vertex -12.5 4.33013 2
    endloop
  endfacet
  facet normal -0.866025 0.500001 0
    outer loop
      vertex -13.6194 2.39126 4
      vertex -15 0 0
      vertex -15 0 4
    endloop
  endfacet
  facet normal 0 0 -1
    outer loop
      vertex 7.5 -12.9904 0
      vertex 7.5 12.9904 0
      vertex 15 0 0
    endloop
  endfacet
  facet normal 0 0 -1
    outer loop
      vertex -7.5 -12.9904 0
      vertex 7.5 12.9904 0
      vertex 7.5 -12.9904 0
    endloop
  endfacet
  facet normal 0 0 -1
    outer loop
      vertex -7.5 -12.9904 0
      vertex -7.5 12.9904 0
      vertex 7.5 12.9904 0
    endloop
  endfacet
  facet normal 0 -0 -1
    outer loop
      vertex -7.5 12.9904 0
      vertex -7.5 -12.9904 0
      vertex -15 0 0
    endloop
  endfacet
  facet normal 0.866024 -0.500003 0
    outer loop
      vertex 13.6194 -2.39125 4
      vertex 15 0 0
      vertex 15 0 4
    endloop
  endfacet
  facet normal 0.866031 -0.49999 1.05718e-05
    outer loop
      vertex 12.5004 -4.32951 2.00062
      vertex 15 0 0
      vertex 13.6194 -2.39125 4
    endloop
  endfacet
  facet normal 0.855913 -0.515125 -0.0453853
    outer loop
      vertex 12.5 -4.33012 2
      vertex 15 0 0
      vertex 12.5004 -4.32951 2.00062
    endloop
  endfacet
  facet normal 0.866026 -0.5 2.5e-06
    outer loop
      vertex 10 -8.66025 2
      vertex 15 0 0
      vertex 12.5 -4.33012 2
    endloop
  endfacet
  facet normal 0.86603 -0.499992 0
    outer loop
      vertex 7.5 -12.9904 0
      vertex 8.88059 -10.5991 4
      vertex 7.5 -12.9904 4
    endloop
  endfacet
  facet normal 0.866026 -0.499999 4.16666e-06
    outer loop
      vertex 10 -8.66025 2
      vertex 7.5 -12.9904 0
      vertex 15 0 0
    endloop
  endfacet
  facet normal 0.866025 -0.5 6.09295e-06
    outer loop
      vertex 8.88059 -10.5991 4
      vertex 7.5 -12.9904 0
      vertex 10 -8.66025 2
    endloop
  endfacet
  facet normal -0 0 1
    outer loop
      vertex 8.88026 -10.5989 4
      vertex 8.88059 -10.5991 4
      vertex 8.88028 -10.5989 4
    endloop
  endfacet
  facet normal -0 0 1
    outer loop
      vertex 8.88024 -10.5989 4
      vertex 8.88059 -10.5991 4
      vertex 8.88026 -10.5989 4
    endloop
  endfacet
  facet normal 0 0 1
    outer loop
      vertex 8.88024 -10.5989 4
      vertex 7.5 -12.9904 4
      vertex 8.88059 -10.5991 4
    endloop
  endfacet
  facet normal 0 0 1
    outer loop
      vertex 4.73881 -8.20786 4
      vertex 7.5 -12.9904 4
      vertex 8.88024 -10.5989 4
    endloop
  endfacet
  facet normal 0 0 1
    outer loop
      vertex 7.5 -12.9904 4
      vertex 4.73881 -8.20786 4
      vertex 4.73881 -12.9904 4
    endloop
  endfacet
  facet normal 0 0 1
    outer loop
      vertex -7.5 -12.9904 4
      vertex -4.73881 -12.99 4
      vertex -4.78183 -11.758 4
    endloop
  endfacet
  facet normal 0 0 1
    outer loop
      vertex -7.5 -12.9904 4
      vertex -4.78183 -11.758 4
      vertex -4.78208 -11.751 4
    endloop
  endfacet
  facet normal 0 0 1
    outer loop
      vertex -7.5 -12.9904 4
      vertex -4.78208 -11.751 4
      vertex -4.91094 -10.525 4
    endloop
  endfacet
  facet normal 0 0 1
    outer loop
      vertex -7.5 -12.9904 4
      vertex -4.91094 -10.525 4
      vertex -4.91166 -10.5181 4
    endloop
  endfacet
  facet normal 0 0 1
    outer loop
      vertex -7.5 -12.9904 4
      vertex -4.91166 -10.5181 4
      vertex -5.12573 -9.30408 4
    endloop
  endfacet
  facet normal 0 0 1
    outer loop
      vertex -7.5 -12.9904 4
      vertex -5.12573 -9.30408 4
      vertex -5.12694 -9.29724 4
    endloop
  endfacet
  facet normal 0 0 1
    outer loop
      vertex -7.5 -12.9904 4
      vertex -5.12694 -9.29724 4
      vertex -5.42517 -8.10109 4
    endloop
  endfacet
  facet normal 0 0 1
    outer loop
      vertex -7.5 -12.9904 4
      vertex -5.42517 -8.10109 4
      vertex -5.42685 -8.09435 4
    endloop
  endfacet
  facet normal 0 0 1
    outer loop
      vertex -7.5 -12.9904 4
      vertex -5.42685 -8.09435 4
      vertex -5.8078 -6.92192 4
    endloop
  endfacet
  facet normal 0 0 1
    outer loop
      vertex -7.5 -12.9904 4
      vertex -5.8078 -6.92192 4
      vertex -5.80994 -6.91532 4
    endloop
  endfacet
  facet normal 0 0 1
    outer loop
      vertex -7.5 -12.9904 4
      vertex -5.80994 -6.91532 4
      vertex -6.27175 -5.77231 4
    endloop
  endfacet
  facet normal 0 0 1
    outer loop
      vertex -7.5 -12.9904 4
      vertex -6.27175 -5.77231 4
      vertex -6.27435 -5.76587 4
    endloop
  endfacet
  facet normal 0 0 1
    outer loop
      vertex -7.5 -12.9904 4
      vertex -6.27435 -5.76587 4
      vertex -6.81476 -4.65787 4
    endloop
  endfacet
  facet normal 0 0 1
    outer loop
      vertex -7.5 -12.9904 4
      vertex -6.81476 -4.65787 4
      vertex -6.8178 -4.65163 4
    endloop
  endfacet
  facet normal 0 0 1
    outer loop
      vertex -7.5 -12.9904 4
      vertex -6.8178 -4.65163 4
      vertex -7.43419 -3.58402 4
    endloop
  endfacet
  facet normal 0 0 1
    outer loop
      vertex -15 0 4
      vertex -7.43419 -3.58402 4
      vertex -7.43766 -3.578 4
    endloop
  endfacet
  facet normal 0 0 1
    outer loop
      vertex -4.73881 -12.99 4
      vertex -7.5 -12.9904 4
      vertex -4.73883 -12.9904 4
    endloop
  endfacet
  facet normal 0 0 1
    outer loop
      vertex -15 0 4
      vertex -7.43766 -3.578 4
      vertex -8.12702 -2.55599 4
    endloop
  endfacet
  facet normal 0 0 1
    outer loop
      vertex -15 0 4
      vertex -8.12702 -2.55599 4
      vertex -8.1309 -2.55024 4
    endloop
  endfacet
  facet normal 0 0 1
    outer loop
      vertex -15 0 4
      vertex -8.1309 -2.55024 4
      vertex -8.88987 -1.5788 4
    endloop
  endfacet
  facet normal 0 0 1
    outer loop
      vertex -15 0 4
      vertex -8.88987 -1.5788 4
      vertex -8.89414 -1.57333 4
    endloop
  endfacet
  facet normal 0 0 1
    outer loop
      vertex -15 0 4
      vertex -8.89414 -1.57333 4
      vertex -9.71903 -0.657201 4
    endloop
  endfacet
  facet normal 0 0 1
    outer loop
      vertex -15 0 4
      vertex -9.71903 -0.657201 4
      vertex -9.72367 -0.652042 4
    endloop
  endfacet
  facet normal -0 0 1
    outer loop
      vertex -15 0 4
      vertex -9.72367 -0.652042 4
      vertex -10.6105 0.204312 4
    endloop
  endfacet
  facet normal 0 0 1
    outer loop
      vertex -15 0 4
      vertex -10.6105 0.204312 4
      vertex -10.6154 0.209134 4
    endloop
  endfacet
  facet normal 0 0 1
    outer loop
      vertex -15 0 4
      vertex -10.6154 0.209134 4
      vertex -11.5598 1.00154 4
    endloop
  endfacet
  facet normal 0 0 1
    outer loop
      vertex -15 0 4
      vertex -11.5598 1.00154 4
      vertex -11.5651 1.00601 4
    endloop
  endfacet
  facet normal 0 0 1
    outer loop
      vertex -15 0 4
      vertex -11.5651 1.00601 4
      vertex -12.5625 1.73061 4
    endloop
  endfacet
  facet normal 0 0 1
    outer loop
      vertex -15 0 4
      vertex -12.5625 1.73061 4
      vertex -12.5681 1.73469 4
    endloop
  endfacet
  facet normal 0 0 1
    outer loop
      vertex -15 0 4
      vertex -12.5681 1.73469 4
      vertex -13.6114 2.38664 4
    endloop
  endfacet
  facet normal 0 0 1
    outer loop
      vertex -15 0 4
      vertex -13.6114 2.38664 4
      vertex -13.6194 2.39126 4
    endloop
  endfacet
  facet normal 0 0 1
    outer loop
      vertex -7.43419 -3.58402 4
      vertex -15 0 4
      vertex -7.5 -12.9904 4
    endloop
  endfacet
  facet normal -0 0 1
    outer loop
      vertex 13.6132 -2.38739 4
      vertex 13.6194 -2.39125 4
      vertex 15 0 4
    endloop
  endfacet
  facet normal 0 0 1
    outer loop
      vertex 13.6194 -2.39125 4
      vertex 13.6132 -2.38739 4
      vertex 13.6191 -2.39107 4
    endloop
  endfacet
  facet normal 0 0 1
    outer loop
      vertex 15 0 4
      vertex 12.5677 -1.73412 4
      vertex 13.6132 -2.38739 4
    endloop
  endfacet
  facet normal 0 0 1
    outer loop
      vertex 15 0 4
      vertex 12.5621 -1.73004 4
      vertex 12.5677 -1.73412 4
    endloop
  endfacet
  facet normal 0 0 1
    outer loop
      vertex 15 0 4
      vertex 11.5648 -1.00544 4
      vertex 12.5621 -1.73004 4
    endloop
  endfacet
  facet normal 0 0 1
    outer loop
      vertex 15 0 4
      vertex 11.5595 -1.00097 4
      vertex 11.5648 -1.00544 4
    endloop
  endfacet
  facet normal 0 0 1
    outer loop
      vertex 15 0 4
      vertex 10.6151 -0.208563 4
      vertex 11.5595 -1.00097 4
    endloop
  endfacet
  facet normal 0 0 1
    outer loop
      vertex 15 0 4
      vertex 10.6101 -0.203741 4
      vertex 10.6151 -0.208563 4
    endloop
  endfacet
  facet normal 0 0 1
    outer loop
      vertex 15 0 4
      vertex 9.72334 0.652613 4
      vertex 10.6101 -0.203741 4
    endloop
  endfacet
  facet normal 0 0 1
    outer loop
      vertex 15 0 4
      vertex 9.7187 0.657772 4
      vertex 9.72334 0.652613 4
    endloop
  endfacet
  facet normal 0 0 1
    outer loop
      vertex 15 0 4
      vertex 8.89381 1.5739 4
      vertex 9.7187 0.657772 4
    endloop
  endfacet
  facet normal 0 0 1
    outer loop
      vertex 15 0 4
      vertex 8.88954 1.57937 4
      vertex 8.89381 1.5739 4
    endloop
  endfacet
  facet normal 0 0 1
    outer loop
      vertex 15 0 4
      vertex 8.13057 2.55081 4
      vertex 8.88954 1.57937 4
    endloop
  endfacet
  facet normal 0 0 1
    outer loop
      vertex 15 0 4
      vertex 8.12669 2.55656 4
      vertex 8.13057 2.55081 4
    endloop
  endfacet
  facet normal -0 0 1
    outer loop
      vertex 7.43386 3.58459 4
      vertex 15 0 4
      vertex 7.5 12.9904 4
    endloop
  endfacet
  facet normal 0 0 1
    outer loop
      vertex 15 0 4
      vertex 7.43733 3.57858 4
      vertex 8.12669 2.55656 4
    endloop
  endfacet
  facet normal 0 0 1
    outer loop
      vertex 15 0 4
      vertex 7.43386 3.58459 4
      vertex 7.43733 3.57858 4
    endloop
  endfacet
  facet normal 0 0 1
    outer loop
      vertex 7.5 12.9904 4
      vertex 6.81747 4.6522 4
      vertex 7.43386 3.58459 4
    endloop
  endfacet
  facet normal 0 0 1
    outer loop
      vertex 7.5 12.9904 4
      vertex 6.81443 4.65844 4
      vertex 6.81747 4.6522 4
    endloop
  endfacet
  facet normal 0 0 1
    outer loop
      vertex 7.5 12.9904 4
      vertex 6.27402 5.76645 4
      vertex 6.81443 4.65844 4
    endloop
  endfacet
  facet normal 0 0 1
    outer loop
      vertex 7.5 12.9904 4
      vertex 6.27142 5.77288 4
      vertex 6.27402 5.76645 4
    endloop
  endfacet
  facet normal 0 0 1
    outer loop
      vertex 7.5 12.9904 4
      vertex 5.80961 6.91589 4
      vertex 6.27142 5.77288 4
    endloop
  endfacet
  facet normal 0 0 1
    outer loop
      vertex 7.5 12.9904 4
      vertex 5.80747 6.92249 4
      vertex 5.80961 6.91589 4
    endloop
  endfacet
  facet normal 0 0 1
    outer loop
      vertex 7.5 12.9904 4
      vertex 5.42652 8.09492 4
      vertex 5.80747 6.92249 4
    endloop
  endfacet
  facet normal 0 0 1
    outer loop
      vertex 7.5 12.9904 4
      vertex 5.42484 8.10166 4
      vertex 5.42652 8.09492 4
    endloop
  endfacet
  facet normal 0 0 1
    outer loop
      vertex 7.5 12.9904 4
      vertex 5.12661 9.29781 4
      vertex 5.42484 8.10166 4
    endloop
  endfacet
  facet normal 0 0 1
    outer loop
      vertex 7.5 12.9904 4
      vertex 5.1254 9.30465 4
      vertex 5.12661 9.29781 4
    endloop
  endfacet
  facet normal 0 0 1
    outer loop
      vertex 7.5 12.9904 4
      vertex 4.91133 10.5187 4
      vertex 5.1254 9.30465 4
    endloop
  endfacet
  facet normal 0 0 1
    outer loop
      vertex 7.5 12.9904 4
      vertex 4.91061 10.5256 4
      vertex 4.91133 10.5187 4
    endloop
  endfacet
  facet normal 0 0 1
    outer loop
      vertex 7.5 12.9904 4
      vertex 4.78175 11.7516 4
      vertex 4.91061 10.5256 4
    endloop
  endfacet
  facet normal 0 0 1
    outer loop
      vertex 7.5 12.9904 4
      vertex 4.7815 11.7586 4
      vertex 4.78175 11.7516 4
    endloop
  endfacet
  facet normal 0 0 1
    outer loop
      vertex 4.73881 12.9811 4
      vertex 7.5 12.9904 4
      vertex 4.73881 12.9904 4
    endloop
  endfacet
  facet normal 0 0 1
    outer loop
      vertex 7.5 12.9904 4
      vertex 4.73881 12.9811 4
      vertex 4.7815 11.7586 4
    endloop
  endfacet
  facet normal 0 0 1
    outer loop
      vertex -7.5 12.9904 4
      vertex -4.73881 12.9811 4
      vertex -4.73884 12.9819 4
    endloop
  endfacet
  facet normal -0 0 1
    outer loop
      vertex -7.5 12.9904 4
      vertex -4.73884 12.9819 4
      vertex -4.73914 12.9904 4
    endloop
  endfacet
  facet normal 0 0 1
    outer loop
      vertex -4.73881 12.9811 4
      vertex -7.5 12.9904 4
      vertex -4.73881 8.20786 4
    endloop
  endfacet
  facet normal 0 0 1
    outer loop
      vertex -7.5 12.9904 4
      vertex -8.87257 10.5945 4
      vertex -4.73881 8.20786 4
    endloop
  endfacet
  facet normal 0 -0 1
    outer loop
      vertex -8.87257 10.5945 4
      vertex -7.5 12.9904 4
      vertex -8.88043 10.5994 4
    endloop
  endfacet
  facet normal 0 1 -0
    outer loop
      vertex 7.5 12.9904 0
      vertex 4.73881 12.9904 4
      vertex 7.5 12.9904 4
    endloop
  endfacet
  facet normal 0 1 0
    outer loop
      vertex 2.5 12.9904 2
      vertex 7.5 12.9904 0
      vertex -2.50032 12.9904 2
    endloop
  endfacet
  facet normal 0 1 0
    outer loop
      vertex 4.73881 12.9904 4
      vertex 7.5 12.9904 0
      vertex 2.5 12.9904 2
    endloop
  endfacet
  facet normal 0 1 0
    outer loop
      vertex -7.5 12.9904 0
      vertex -4.73914 12.9904 4
      vertex -2.50032 12.9904 2
    endloop
  endfacet
  facet normal 0 1 0
    outer loop
      vertex -4.73914 12.9904 4
      vertex -7.5 12.9904 0
      vertex -7.5 12.9904 4
    endloop
  endfacet
  facet normal 0 1 0
    outer loop
      vertex -7.5 12.9904 0
      vertex -2.50032 12.9904 2
      vertex 7.5 12.9904 0
    endloop
  endfacet
  facet normal -0.866026 -0.499999 0
    outer loop
      vertex -7.5 -12.9904 0
      vertex -15 0 4
      vertex -15 0 0
    endloop
  endfacet
  facet normal -0.866026 -0.499999 0
    outer loop
      vertex -15 0 4
      vertex -7.5 -12.9904 0
      vertex -7.5 -12.9904 4
    endloop
  endfacet
  facet normal 0 -1 0
    outer loop
      vertex -7.5 -12.9904 0
      vertex -4.73883 -12.9904 4
      vertex -7.5 -12.9904 4
    endloop
  endfacet
  facet normal 0 -1 -0
    outer loop
      vertex -2.50001 -12.9904 2
      vertex -7.5 -12.9904 0
      vertex 2.5 -12.9904 2
    endloop
  endfacet
  facet normal 0 -1 -0
    outer loop
      vertex -4.73883 -12.9904 4
      vertex -7.5 -12.9904 0
      vertex -2.50001 -12.9904 2
    endloop
  endfacet
  facet normal 0 -1 0
    outer loop
      vertex 7.5 -12.9904 0
      vertex 4.73881 -12.9904 4
      vertex 2.5 -12.9904 2
    endloop
  endfacet
  facet normal 0 -1 0
    outer loop
      vertex 4.73881 -12.9904 4
      vertex 7.5 -12.9904 0
      vertex 7.5 -12.9904 4
    endloop
  endfacet
  facet normal 0 -1 0
    outer loop
      vertex 7.5 -12.9904 0
      vertex 2.5 -12.9904 2
      vertex -7.5 -12.9904 0
    endloop
  endfacet
  facet normal 0.866026 0.499999 0
    outer loop
      vertex 15 0 4
      vertex 7.5 12.9904 0
      vertex 7.5 12.9904 4
    endloop
  endfacet
  facet normal 0.866026 0.499999 0
    outer loop
      vertex 7.5 12.9904 0
      vertex 15 0 4
      vertex 15 0 0
    endloop
  endfacet
  facet normal 0 0.718001 0.696043
    outer loop
      vertex 9.96207 -8.72519 2.06718
      vertex 8.88026 -10.5989 4
      vertex 8.88028 -10.5989 4
    endloop
  endfacet
  facet normal -0.333356 -0.555594 0.761701
    outer loop
      vertex 12.5004 -4.32951 2.00062
      vertex 12.4997 -4.32994 2
      vertex 12.5 -4.33012 2
    endloop
  endfacet
  facet normal -0.342793 -0.571322 0.74571
    outer loop
      vertex 13.6191 -2.39107 4
      vertex 12.5004 -4.32951 2.00062
      vertex 13.6194 -2.39125 4
    endloop
  endfacet
  facet normal -0.290943 -0.600404 0.744894
    outer loop
      vertex 12.5004 -4.32951 2.00062
      vertex 13.6191 -2.39107 4
      vertex 12.4997 -4.32994 2
    endloop
  endfacet
  facet normal 0 0.718001 0.696043
    outer loop
      vertex 9.96207 -8.72519 2.06718
      vertex 8.88024 -10.5989 4
      vertex 8.88026 -10.5989 4
    endloop
  endfacet
  facet normal -0.352689 -0.565453 0.74557
    outer loop
      vertex 13.6132 -2.38739 4
      vertex 12.4997 -4.32994 2
      vertex 13.6191 -2.39107 4
    endloop
  endfacet
  facet normal -0.353151 -0.565177 0.745559
    outer loop
      vertex 12.4997 -4.32994 2
      vertex 13.6132 -2.38739 4
      vertex 11.3158 -3.59018 2
    endloop
  endfacet
  facet normal -0.353148 -0.565181 0.745558
    outer loop
      vertex 12.5677 -1.73412 4
      vertex 11.3158 -3.59018 2
      vertex 13.6132 -2.38739 4
    endloop
  endfacet
  facet normal -0.392449 -0.538656 0.745542
    outer loop
      vertex 12.5621 -1.73004 4
      vertex 11.3158 -3.59018 2
      vertex 12.5677 -1.73412 4
    endloop
  endfacet
  facet normal -0.391718 -0.539164 0.74556
    outer loop
      vertex 11.3158 -3.59018 2
      vertex 12.5621 -1.73004 4
      vertex 10.1864 -2.76964 2
    endloop
  endfacet
  facet normal -0.391727 -0.539152 0.745564
    outer loop
      vertex 11.5648 -1.00544 4
      vertex 10.1864 -2.76964 2
      vertex 12.5621 -1.73004 4
    endloop
  endfacet
  facet normal -0.42968 -0.509464 0.745534
    outer loop
      vertex 11.5595 -1.00097 4
      vertex 10.1864 -2.76964 2
      vertex 11.5648 -1.00544 4
    endloop
  endfacet
  facet normal -0.428384 -0.510507 0.745567
    outer loop
      vertex 10.1864 -2.76964 2
      vertex 11.5595 -1.00097 4
      vertex 9.11706 -1.87232 2
    endloop
  endfacet
  facet normal -0.428368 -0.510534 0.745558
    outer loop
      vertex 10.6151 -0.208563 4
      vertex 9.11706 -1.87232 2
      vertex 11.5595 -1.00097 4
    endloop
  endfacet
  facet normal -0.462623 -0.4797 0.745566
    outer loop
      vertex 10.6101 -0.203741 4
      vertex 9.11706 -1.87232 2
      vertex 10.6151 -0.208563 4
    endloop
  endfacet
  facet normal -0.462946 -0.4794 0.745557
    outer loop
      vertex 9.11706 -1.87232 2
      vertex 10.6101 -0.203741 4
      vertex 8.11287 -0.902596 2
    endloop
  endfacet
  facet normal -0.462952 -0.47939 0.745561
    outer loop
      vertex 9.72334 0.652613 4
      vertex 8.11287 -0.902596 2
      vertex 10.6101 -0.203741 4
    endloop
  endfacet
  facet normal -0.495513 -0.445664 0.745554
    outer loop
      vertex 9.7187 0.657772 4
      vertex 8.11287 -0.902596 2
      vertex 9.72334 0.652613 4
    endloop
  endfacet
  facet normal -0.49526 -0.445933 0.745561
    outer loop
      vertex 8.11287 -0.902596 2
      vertex 9.7187 0.657772 4
      vertex 7.17878 0.134819 2
    endloop
  endfacet
  facet normal -0.495259 -0.445935 0.74556
    outer loop
      vertex 8.89381 1.5739 4
      vertex 7.17878 0.134819 2
      vertex 9.7187 0.657772 4
    endloop
  endfacet
  facet normal -0.525334 -0.410087 0.745556
    outer loop
      vertex 8.88954 1.57937 4
      vertex 7.17878 0.134819 2
      vertex 8.89381 1.5739 4
    endloop
  endfacet
  facet normal -0.525161 -0.410299 0.745561
    outer loop
      vertex 7.17878 0.134819 2
      vertex 8.88954 1.57937 4
      vertex 6.31933 1.23487 2
    endloop
  endfacet
  facet normal -0.525161 -0.410299 0.745561
    outer loop
      vertex 8.13057 2.55081 4
      vertex 6.31933 1.23487 2
      vertex 8.88954 1.57937 4
    endloop
  endfacet
  facet normal -0.55243 -0.37277 0.745563
    outer loop
      vertex 8.12669 2.55656 4
      vertex 6.31933 1.23487 2
      vertex 8.13057 2.55081 4
    endloop
  endfacet
  facet normal -0.552503 -0.372667 0.74556
    outer loop
      vertex 6.31933 1.23487 2
      vertex 8.12669 2.55656 4
      vertex 5.53871 2.39219 2
    endloop
  endfacet
  facet normal -0.552503 -0.372667 0.74556
    outer loop
      vertex 7.43733 3.57858 4
      vertex 5.53871 2.39219 2
      vertex 8.12669 2.55656 4
    endloop
  endfacet
  facet normal -0.577147 -0.333228 0.745561
    outer loop
      vertex 7.43386 3.58459 4
      vertex 5.53871 2.39219 2
      vertex 7.43733 3.57858 4
    endloop
  endfacet
  facet normal -0.577152 -0.33322 0.74556
    outer loop
      vertex 5.53871 2.39219 2
      vertex 7.43386 3.58459 4
      vertex 4.84072 3.60114 2
    endloop
  endfacet
  facet normal -0.577152 -0.333221 0.74556
    outer loop
      vertex 6.81747 4.6522 4
      vertex 4.84072 3.60114 2
      vertex 7.43386 3.58459 4
    endloop
  endfacet
  facet normal -0.599127 -0.291882 0.745555
    outer loop
      vertex 6.81443 4.65844 4
      vertex 4.84072 3.60114 2
      vertex 6.81747 4.6522 4
    endloop
  endfacet
  facet normal -0.59899 -0.292148 0.74556
    outer loop
      vertex 4.84072 3.60114 2
      vertex 6.81443 4.65844 4
      vertex 4.22876 4.85584 2
    endloop
  endfacet
  facet normal -0.59899 -0.292146 0.745561
    outer loop
      vertex 6.27402 5.76645 4
      vertex 4.22876 4.85584 2
      vertex 6.81443 4.65844 4
    endloop
  endfacet
  facet normal -0.617836 -0.249825 0.745564
    outer loop
      vertex 6.27142 5.77288 4
      vertex 4.22876 4.85584 2
      vertex 6.27402 5.76645 4
    endloop
  endfacet
  facet normal -0.617911 -0.249651 0.745561
    outer loop
      vertex 4.22876 4.85584 2
      vertex 6.27142 5.77288 4
      vertex 3.70582 6.15017 2
    endloop
  endfacet
  facet normal -0.617911 -0.249654 0.74556
    outer loop
      vertex 5.80961 6.91589 4
      vertex 3.70582 6.15017 2
      vertex 6.27142 5.77288 4
    endloop
  endfacet
  facet normal -0.633955 -0.205555 0.745553
    outer loop
      vertex 5.80747 6.92249 4
      vertex 3.70582 6.15017 2
      vertex 5.80961 6.91589 4
    endloop
  endfacet
  facet normal -0.63382 -0.205941 0.74556
    outer loop
      vertex 3.70582 6.15017 2
      vertex 5.80747 6.92249 4
      vertex 3.27444 7.47782 2
    endloop
  endfacet
  facet normal -0.63382 -0.205943 0.74556
    outer loop
      vertex 5.42652 8.09492 4
      vertex 3.27444 7.47782 2
      vertex 5.80747 6.92249 4
    endloop
  endfacet
  facet normal -0.646654 -0.161184 0.745559
    outer loop
      vertex 5.42484 8.10166 4
      vertex 3.27444 7.47782 2
      vertex 5.42652 8.09492 4
    endloop
  endfacet
  facet normal -0.646643 -0.161226 0.74556
    outer loop
      vertex 3.27444 7.47782 2
      vertex 5.42484 8.10166 4
      vertex 2.93672 8.83234 2
    endloop
  endfacet
  facet normal -0.646642 -0.161224 0.74556
    outer loop
      vertex 5.12661 9.29781 4
      vertex 2.93672 8.83234 2
      vertex 5.42484 8.10166 4
    endloop
  endfacet
  facet normal -0.656242 -0.11609 0.745567
    outer loop
      vertex 5.1254 9.30465 4
      vertex 2.93672 8.83234 2
      vertex 5.12661 9.29781 4
    endloop
  endfacet
  facet normal -0.656314 -0.115727 0.74556
    outer loop
      vertex 2.93672 8.83234 2
      vertex 5.1254 9.30465 4
      vertex 2.69431 10.2071 2
    endloop
  endfacet
  facet normal -0.656314 -0.115726 0.74556
    outer loop
      vertex 4.91133 10.5187 4
      vertex 2.69431 10.2071 2
      vertex 5.1254 9.30465 4
    endloop
  endfacet
  facet normal -0.662849 -0.0691669 0.745551
    outer loop
      vertex 4.91061 10.5256 4
      vertex 2.69431 10.2071 2
      vertex 4.91133 10.5187 4
    endloop
  endfacet
  facet normal -0.662787 -0.0696635 0.745561
    outer loop
      vertex 2.69431 10.2071 2
      vertex 4.91061 10.5256 4
      vertex 2.54839 11.5954 2
    endloop
  endfacet
  facet normal -0.662786 -0.0696629 0.745561
    outer loop
      vertex 4.78175 11.7516 4
      vertex 2.54839 11.5954 2
      vertex 4.91061 10.5256 4
    endloop
  endfacet
  facet normal 0.668754 0.0250783 0.74306
    outer loop
      vertex -4.73781 12.9811 3.9991
      vertex -4.73884 12.9819 4
      vertex -4.73881 12.9811 4
    endloop
  endfacet
  facet normal 0.666036 0.0229174 0.745567
    outer loop
      vertex -2.50032 12.9904 2
      vertex -4.73781 12.9811 3.9991
      vertex -2.5 12.9811 2
    endloop
  endfacet
  facet normal 0.666033 0.0230985 0.745564
    outer loop
      vertex -4.73914 12.9904 4
      vertex -4.73781 12.9811 3.9991
      vertex -2.50032 12.9904 2
    endloop
  endfacet
  facet normal 0.668127 0.023581 0.743673
    outer loop
      vertex -4.73781 12.9811 3.9991
      vertex -4.73914 12.9904 4
      vertex -4.73884 12.9819 4
    endloop
  endfacet
  facet normal -0.666003 -0.0237858 0.74557
    outer loop
      vertex 4.7815 11.7586 4
      vertex 2.54839 11.5954 2
      vertex 4.78175 11.7516 4
    endloop
  endfacet
  facet normal -0.666033 -0.0232568 0.74556
    outer loop
      vertex 2.51722 12.9811 2.01538
      vertex 2.54839 11.5954 2
      vertex 4.7815 11.7586 4
    endloop
  endfacet
  facet normal -0.665956 -0.0232558 0.745628
    outer loop
      vertex 2.54839 11.5954 2
      vertex 2.51722 12.9811 2.01538
      vertex 2.5 12.9811 2
    endloop
  endfacet
  facet normal -0.666033 -0.023258 0.74556
    outer loop
      vertex 4.73881 12.9811 4
      vertex 2.51722 12.9811 2.01538
      vertex 4.7815 11.7586 4
    endloop
  endfacet
  facet normal 0 0 1
    outer loop
      vertex 2.5 -12.9904 2
      vertex -2.54872 -11.5949 2
      vertex -2.5 -12.99 2
    endloop
  endfacet
  facet normal 0 0 1
    outer loop
      vertex 2.5 -4.33013 2
      vertex -2.69464 -10.2065 2
      vertex -2.54872 -11.5949 2
    endloop
  endfacet
  facet normal 0 0 1
    outer loop
      vertex 2.5 -4.33013 2
      vertex -2.93705 -8.83177 2
      vertex -2.69464 -10.2065 2
    endloop
  endfacet
  facet normal 0 0 1
    outer loop
      vertex 2.5 -4.33013 2
      vertex -3.27477 -7.47725 2
      vertex -2.93705 -8.83177 2
    endloop
  endfacet
  facet normal 0 0 1
    outer loop
      vertex 2.5 -4.33013 2
      vertex -3.70615 -6.1496 2
      vertex -3.27477 -7.47725 2
    endloop
  endfacet
  facet normal 0 0 1
    outer loop
      vertex 2.5 -4.33013 2
      vertex -4.22909 -4.85527 2
      vertex -3.70615 -6.1496 2
    endloop
  endfacet
  facet normal 0 0 1
    outer loop
      vertex 2.5 -4.33013 2
      vertex -4.84105 -3.60057 2
      vertex -4.22909 -4.85527 2
    endloop
  endfacet
  facet normal 0 0 1
    outer loop
      vertex -2.5 4.33013 2
      vertex -5.53904 -2.39161 2
      vertex -4.84105 -3.60057 2
    endloop
  endfacet
  facet normal 0 0 1
    outer loop
      vertex -2.5 4.33013 2
      vertex -6.31966 -1.23429 2
      vertex -5.53904 -2.39161 2
    endloop
  endfacet
  facet normal 0 0 1
    outer loop
      vertex -2.5 4.33013 2
      vertex -7.17911 -0.134248 2
      vertex -6.31966 -1.23429 2
    endloop
  endfacet
  facet normal 0 0 1
    outer loop
      vertex -2.5 4.33013 2
      vertex -8.1132 0.903167 2
      vertex -7.17911 -0.134248 2
    endloop
  endfacet
  facet normal 0 0 1
    outer loop
      vertex -2.5 4.33013 2
      vertex -9.11739 1.8729 2
      vertex -8.1132 0.903167 2
    endloop
  endfacet
  facet normal 0 0 1
    outer loop
      vertex -9.99198 8.65562 2
      vertex -9.11739 1.8729 2
      vertex -2.5 4.33013 2
    endloop
  endfacet
  facet normal 0 0 1
    outer loop
      vertex -12.5 4.33013 2
      vertex -9.99198 8.65562 2
      vertex -9.99984 8.66053 2
    endloop
  endfacet
  facet normal 0 0 1
    outer loop
      vertex -9.99198 8.65562 2
      vertex -10.1868 2.77022 2
      vertex -9.11739 1.8729 2
    endloop
  endfacet
  facet normal 0 0 1
    outer loop
      vertex -9.99198 8.65562 2
      vertex -11.3161 3.59075 2
      vertex -10.1868 2.77022 2
    endloop
  endfacet
  facet normal 0 0 1
    outer loop
      vertex -9.99198 8.65562 2
      vertex -12.492 4.32551 2
      vertex -11.3161 3.59075 2
    endloop
  endfacet
  facet normal 0 0 1
    outer loop
      vertex -9.99198 8.65562 2
      vertex -12.5 4.33013 2
      vertex -12.492 4.32551 2
    endloop
  endfacet
  facet normal 0 0 1
    outer loop
      vertex -2.5 12.9811 2
      vertex 2.5 12.9811 2
      vertex 2.5 12.9904 2
    endloop
  endfacet
  facet normal 0 0 1
    outer loop
      vertex 2.5 12.9811 2
      vertex -2.5 4.33013 2
      vertex 2.5 -4.33013 2
    endloop
  endfacet
  facet normal 0 0 1
    outer loop
      vertex 2.5 12.9811 2
      vertex -2.5 12.9811 2
      vertex -2.5 4.33013 2
    endloop
  endfacet
  facet normal 0 -0 1
    outer loop
      vertex -2.5 12.9811 2
      vertex 2.5 12.9904 2
      vertex -2.50032 12.9904 2
    endloop
  endfacet
  facet normal 0 0 1
    outer loop
      vertex 12.4997 -4.32994 2
      vertex 10 -8.66025 2
      vertex 12.5 -4.33012 2
    endloop
  endfacet
  facet normal 0 0 1
    outer loop
      vertex 11.3158 -3.59018 2
      vertex 10 -8.66025 2
      vertex 12.4997 -4.32994 2
    endloop
  endfacet
  facet normal 0 0 1
    outer loop
      vertex 10.1864 -2.76964 2
      vertex 10 -8.66025 2
      vertex 11.3158 -3.59018 2
    endloop
  endfacet
  facet normal 0 0 1
    outer loop
      vertex 9.11706 -1.87232 2
      vertex 10 -8.66025 2
      vertex 10.1864 -2.76964 2
    endloop
  endfacet
  facet normal 0 0 1
    outer loop
      vertex 2.5 -4.33013 2
      vertex 9.11706 -1.87232 2
      vertex 8.11287 -0.902596 2
    endloop
  endfacet
  facet normal 0 0 1
    outer loop
      vertex 2.5 -4.33013 2
      vertex 8.11287 -0.902596 2
      vertex 7.17878 0.134819 2
    endloop
  endfacet
  facet normal 0 0 1
    outer loop
      vertex 2.5 -4.33013 2
      vertex 7.17878 0.134819 2
      vertex 6.31933 1.23487 2
    endloop
  endfacet
  facet normal 0 0 1
    outer loop
      vertex 2.5 -4.33013 2
      vertex 6.31933 1.23487 2
      vertex 5.53871 2.39219 2
    endloop
  endfacet
  facet normal 0 0 1
    outer loop
      vertex 2.5 -4.33013 2
      vertex 5.53871 2.39219 2
      vertex 4.84072 3.60114 2
    endloop
  endfacet
  facet normal 0 0 1
    outer loop
      vertex 2.5 -4.33013 2
      vertex 4.84072 3.60114 2
      vertex 4.22876 4.85584 2
    endloop
  endfacet
  facet normal 0 0 1
    outer loop
      vertex 9.11706 -1.87232 2
      vertex 2.5 -4.33013 2
      vertex 10 -8.66025 2
    endloop
  endfacet
  facet normal 0 0 1
    outer loop
      vertex 3.70582 6.15017 2
      vertex 2.5 -4.33013 2
      vertex 4.22876 4.85584 2
    endloop
  endfacet
  facet normal 0 0 1
    outer loop
      vertex 3.27444 7.47782 2
      vertex 2.5 -4.33013 2
      vertex 3.70582 6.15017 2
    endloop
  endfacet
  facet normal 0 0 1
    outer loop
      vertex 2.93672 8.83234 2
      vertex 2.5 -4.33013 2
      vertex 3.27444 7.47782 2
    endloop
  endfacet
  facet normal 0 0 1
    outer loop
      vertex 2.69431 10.2071 2
      vertex 2.5 -4.33013 2
      vertex 2.93672 8.83234 2
    endloop
  endfacet
  facet normal 0 0 1
    outer loop
      vertex 2.54839 11.5954 2
      vertex 2.5 -4.33013 2
      vertex 2.69431 10.2071 2
    endloop
  endfacet
  facet normal 0 0 1
    outer loop
      vertex 2.5 -4.33013 2
      vertex 2.54839 11.5954 2
      vertex 2.5 12.9811 2
    endloop
  endfacet
  facet normal -0 0 1
    outer loop
      vertex -4.84105 -3.60057 2
      vertex 2.5 -4.33013 2
      vertex -2.5 4.33013 2
    endloop
  endfacet
  facet normal -0 0 1
    outer loop
      vertex -2.54872 -11.5949 2
      vertex 2.5 -12.9904 2
      vertex 2.5 -4.33013 2
    endloop
  endfacet
  facet normal 0 0 1
    outer loop
      vertex 2.5 -12.9904 2
      vertex -2.5 -12.99 2
      vertex -2.50001 -12.9904 2
    endloop
  endfacet
  facet normal 0.35315 0.565176 0.745561
    outer loop
      vertex -12.492 4.32551 2
      vertex -13.6094 2.39012 3.99641
      vertex -11.3161 3.59075 2
    endloop
  endfacet
  facet normal 0.353162 0.565162 0.745566
    outer loop
      vertex -13.6094 2.39012 3.99641
      vertex -12.5681 1.73469 4
      vertex -11.3161 3.59075 2
    endloop
  endfacet
  facet normal 0.353421 0.565571 0.745133
    outer loop
      vertex -12.5681 1.73469 4
      vertex -13.6094 2.39012 3.99641
      vertex -13.6114 2.38664 4
    endloop
  endfacet
  facet normal -0.352557 -0.56553 0.745574
    outer loop
      vertex -8.88043 10.5994 4
      vertex -9.98639 8.66531 2.00999
      vertex -8.87257 10.5945 4
    endloop
  endfacet
  facet normal -0.353104 -0.565204 0.745561
    outer loop
      vertex -9.98639 8.66531 2.00999
      vertex -8.88043 10.5994 4
      vertex -9.99973 8.66073 2.0002
    endloop
  endfacet
  facet normal -0.353267 -0.564961 0.745669
    outer loop
      vertex -9.99973 8.66073 2.0002
      vertex -9.99198 8.65562 2
      vertex -9.98639 8.66531 2.00999
    endloop
  endfacet
  facet normal -0.349458 -0.559417 0.751619
    outer loop
      vertex -9.99198 8.65562 2
      vertex -9.99973 8.66073 2.0002
      vertex -9.99984 8.66053 2
    endloop
  endfacet
  facet normal 0.391732 0.539143 0.745568
    outer loop
      vertex -11.3161 3.59075 2
      vertex -12.5625 1.73061 4
      vertex -10.1868 2.77022 2
    endloop
  endfacet
  facet normal 0.392444 0.538648 0.745551
    outer loop
      vertex -12.5625 1.73061 4
      vertex -11.3161 3.59075 2
      vertex -12.5681 1.73469 4
    endloop
  endfacet
  facet normal 0.391707 0.539178 0.745556
    outer loop
      vertex -10.1868 2.77022 2
      vertex -12.5625 1.73061 4
      vertex -11.5651 1.00601 4
    endloop
  endfacet
  facet normal 0.428373 0.510528 0.745559
    outer loop
      vertex -10.1868 2.77022 2
      vertex -11.5598 1.00154 4
      vertex -9.11739 1.8729 2
    endloop
  endfacet
  facet normal 0.429686 0.509471 0.745526
    outer loop
      vertex -11.5598 1.00154 4
      vertex -10.1868 2.77022 2
      vertex -11.5651 1.00601 4
    endloop
  endfacet
  facet normal 0.428369 0.510535 0.745556
    outer loop
      vertex -9.11739 1.8729 2
      vertex -11.5598 1.00154 4
      vertex -10.6154 0.209134 4
    endloop
  endfacet
  facet normal 0.462942 0.479392 0.745566
    outer loop
      vertex -9.11739 1.8729 2
      vertex -10.6105 0.204312 4
      vertex -8.1132 0.903167 2
    endloop
  endfacet
  facet normal 0.467548 0.475111 0.745432
    outer loop
      vertex -10.6105 0.204312 4
      vertex -9.11739 1.8729 2
      vertex -10.6154 0.209134 4
    endloop
  endfacet
  facet normal 0.462933 0.479408 0.74556
    outer loop
      vertex -8.1132 0.903167 2
      vertex -10.6105 0.204312 4
      vertex -9.72367 -0.652042 4
    endloop
  endfacet
  facet normal 0.49526 0.445933 0.745561
    outer loop
      vertex -8.1132 0.903167 2
      vertex -9.71903 -0.657201 4
      vertex -7.17911 -0.134248 2
    endloop
  endfacet
  facet normal 0.495513 0.445664 0.745554
    outer loop
      vertex -9.71903 -0.657201 4
      vertex -8.1132 0.903167 2
      vertex -9.72367 -0.652042 4
    endloop
  endfacet
  facet normal 0.495259 0.445935 0.745561
    outer loop
      vertex -7.17911 -0.134248 2
      vertex -9.71903 -0.657201 4
      vertex -8.89414 -1.57333 4
    endloop
  endfacet
  facet normal 0.525159 0.410301 0.745561
    outer loop
      vertex -7.17911 -0.134248 2
      vertex -8.88987 -1.5788 4
      vertex -6.31966 -1.23429 2
    endloop
  endfacet
  facet normal 0.525334 0.410087 0.745556
    outer loop
      vertex -8.88987 -1.5788 4
      vertex -7.17911 -0.134248 2
      vertex -8.89414 -1.57333 4
    endloop
  endfacet
  facet normal 0.52516 0.410299 0.745562
    outer loop
      vertex -6.31966 -1.23429 2
      vertex -8.88987 -1.5788 4
      vertex -8.1309 -2.55024 4
    endloop
  endfacet
  facet normal 0.552502 0.372666 0.745561
    outer loop
      vertex -6.31966 -1.23429 2
      vertex -8.12702 -2.55599 4
      vertex -5.53904 -2.39161 2
    endloop
  endfacet
  facet normal 0.552429 0.372769 0.745564
    outer loop
      vertex -8.12702 -2.55599 4
      vertex -6.31966 -1.23429 2
      vertex -8.1309 -2.55024 4
    endloop
  endfacet
  facet normal 0.552501 0.37267 0.74556
    outer loop
      vertex -5.53904 -2.39161 2
      vertex -8.12702 -2.55599 4
      vertex -7.43766 -3.578 4
    endloop
  endfacet
  facet normal 0.577152 0.333217 0.745561
    outer loop
      vertex -5.53904 -2.39161 2
      vertex -7.43419 -3.58402 4
      vertex -4.84105 -3.60057 2
    endloop
  endfacet
  facet normal 0.577395 0.332817 0.745552
    outer loop
      vertex -7.43419 -3.58402 4
      vertex -5.53904 -2.39161 2
      vertex -7.43766 -3.578 4
    endloop
  endfacet
  facet normal 0.577152 0.333221 0.74556
    outer loop
      vertex -4.84105 -3.60057 2
      vertex -7.43419 -3.58402 4
      vertex -6.8178 -4.65163 4
    endloop
  endfacet
  facet normal 0.59899 0.292148 0.74556
    outer loop
      vertex -4.84105 -3.60057 2
      vertex -6.81476 -4.65787 4
      vertex -4.22909 -4.85527 2
    endloop
  endfacet
  facet normal 0.599127 0.291882 0.745555
    outer loop
      vertex -6.81476 -4.65787 4
      vertex -4.84105 -3.60057 2
      vertex -6.8178 -4.65163 4
    endloop
  endfacet
  facet normal 0.59899 0.292148 0.74556
    outer loop
      vertex -4.22909 -4.85527 2
      vertex -6.81476 -4.65787 4
      vertex -6.27435 -5.76587 4
    endloop
  endfacet
  facet normal 0.617911 0.249651 0.745561
    outer loop
      vertex -4.22909 -4.85527 2
      vertex -6.27175 -5.77231 4
      vertex -3.70615 -6.1496 2
    endloop
  endfacet
  facet normal 0.617978 0.249494 0.745557
    outer loop
      vertex -6.27175 -5.77231 4
      vertex -4.22909 -4.85527 2
      vertex -6.27435 -5.76587 4
    endloop
  endfacet
  facet normal 0.617911 0.249654 0.74556
    outer loop
      vertex -3.70615 -6.1496 2
      vertex -6.27175 -5.77231 4
      vertex -5.80994 -6.91532 4
    endloop
  endfacet
  facet normal 0.63382 0.205941 0.74556
    outer loop
      vertex -3.70615 -6.1496 2
      vertex -5.8078 -6.92192 4
      vertex -3.27477 -7.47725 2
    endloop
  endfacet
  facet normal 0.633955 0.205555 0.745553
    outer loop
      vertex -5.8078 -6.92192 4
      vertex -3.70615 -6.1496 2
      vertex -5.80994 -6.91532 4
    endloop
  endfacet
  facet normal 0.63382 0.205943 0.74556
    outer loop
      vertex -3.27477 -7.47725 2
      vertex -5.8078 -6.92192 4
      vertex -5.42685 -8.09435 4
    endloop
  endfacet
  facet normal 0.646643 0.161226 0.74556
    outer loop
      vertex -3.27477 -7.47725 2
      vertex -5.42517 -8.10109 4
      vertex -2.93705 -8.83177 2
    endloop
  endfacet
  facet normal 0.646654 0.161184 0.745559
    outer loop
      vertex -5.42517 -8.10109 4
      vertex -3.27477 -7.47725 2
      vertex -5.42685 -8.09435 4
    endloop
  endfacet
  facet normal 0.646642 0.161224 0.74556
    outer loop
      vertex -2.93705 -8.83177 2
      vertex -5.42517 -8.10109 4
      vertex -5.12694 -9.29724 4
    endloop
  endfacet
  facet normal 0.656313 0.11573 0.74556
    outer loop
      vertex -2.93705 -8.83177 2
      vertex -5.12573 -9.30408 4
      vertex -2.69464 -10.2065 2
    endloop
  endfacet
  facet normal 0.656242 0.11609 0.745567
    outer loop
      vertex -5.12573 -9.30408 4
      vertex -2.93705 -8.83177 2
      vertex -5.12694 -9.29724 4
    endloop
  endfacet
  facet normal 0.656313 0.115729 0.74556
    outer loop
      vertex -2.69464 -10.2065 2
      vertex -5.12573 -9.30408 4
      vertex -4.91166 -10.5181 4
    endloop
  endfacet
  facet normal 0.662787 0.0696585 0.745561
    outer loop
      vertex -2.69464 -10.2065 2
      vertex -4.91094 -10.525 4
      vertex -2.54872 -11.5949 2
    endloop
  endfacet
  facet normal 0.662849 0.0691669 0.745551
    outer loop
      vertex -4.91094 -10.525 4
      vertex -2.69464 -10.2065 2
      vertex -4.91166 -10.5181 4
    endloop
  endfacet
  facet normal 0.662788 0.069663 0.745559
    outer loop
      vertex -2.54872 -11.5949 2
      vertex -4.91094 -10.525 4
      vertex -4.78208 -11.751 4
    endloop
  endfacet
  facet normal 0.666033 0.0232594 0.745559
    outer loop
      vertex -2.54872 -11.5949 2
      vertex -4.78183 -11.758 4
      vertex -2.5 -12.99 2
    endloop
  endfacet
  facet normal 0.666004 0.0237858 0.745569
    outer loop
      vertex -4.78183 -11.758 4
      vertex -2.54872 -11.5949 2
      vertex -4.78208 -11.751 4
    endloop
  endfacet
  facet normal 0.666032 0.0232571 0.74556
    outer loop
      vertex -2.5 -12.99 2
      vertex -4.78183 -11.758 4
      vertex -4.73881 -12.99 4
    endloop
  endfacet
  facet normal 0.66612 -0.016653 0.745658
    outer loop
      vertex -4.73881 -12.99 4
      vertex -2.50001 -12.9904 2
      vertex -2.5 -12.99 2
    endloop
  endfacet
  facet normal 0.665842 -0.0332921 0.74535
    outer loop
      vertex -2.50001 -12.9904 2
      vertex -4.73881 -12.99 4
      vertex -4.73883 -12.9904 4
    endloop
  endfacet
  facet normal 0.333171 0.576919 0.745763
    outer loop
      vertex -12.5 4.33013 2
      vertex -13.6094 2.39012 3.99641
      vertex -12.492 4.32551 2
    endloop
  endfacet
  facet normal 0.333477 0.576743 0.745762
    outer loop
      vertex -13.6194 2.39126 4
      vertex -13.6094 2.39012 3.99641
      vertex -12.5 4.33013 2
    endloop
  endfacet
  facet normal 0.333397 0.577311 0.745358
    outer loop
      vertex -13.6094 2.39012 3.99641
      vertex -13.6194 2.39126 4
      vertex -13.6114 2.38664 4
    endloop
  endfacet
  facet normal 0.333106 0.57696 0.74576
    outer loop
      vertex 9.96207 -8.72519 2.06718
      vertex 4.73881 -8.20786 4
      vertex 8.88024 -10.5989 4
    endloop
  endfacet
  facet normal 0.333109 0.576938 0.745775
    outer loop
      vertex 10 -8.66025 2
      vertex 4.73881 -8.20786 4
      vertex 9.96207 -8.72519 2.06718
    endloop
  endfacet
  facet normal 0.333106 0.576957 0.745762
    outer loop
      vertex 4.73881 -8.20786 4
      vertex 10 -8.66025 2
      vertex 2.5 -4.33013 2
    endloop
  endfacet
  facet normal 0.32783 0.579992 0.745746
    outer loop
      vertex 9.96207 -8.72519 2.06718
      vertex 8.88059 -10.5991 4
      vertex 10 -8.66025 2
    endloop
  endfacet
  facet normal 0.36142 0.5602 0.745353
    outer loop
      vertex 8.88059 -10.5991 4
      vertex 9.96207 -8.72519 2.06718
      vertex 8.88028 -10.5989 4
    endloop
  endfacet
  facet normal -0.333107 -0.576955 0.745763
    outer loop
      vertex -9.98639 8.66531 2.00999
      vertex -4.73881 8.20786 4
      vertex -8.87257 10.5945 4
    endloop
  endfacet
  facet normal -0.333136 -0.57679 0.745878
    outer loop
      vertex -9.99198 8.65562 2
      vertex -4.73881 8.20786 4
      vertex -9.98639 8.66531 2.00999
    endloop
  endfacet
  facet normal -0.333106 -0.576957 0.745762
    outer loop
      vertex -4.73881 8.20786 4
      vertex -9.99198 8.65562 2
      vertex -2.5 4.33013 2
    endloop
  endfacet
  facet normal -0.666213 0 0.745762
    outer loop
      vertex 2.5 -12.9904 2
      vertex 4.73881 -8.20786 4
      vertex 2.5 -4.33013 2
    endloop
  endfacet
  facet normal -0.666213 0 0.745762
    outer loop
      vertex 4.73881 -8.20786 4
      vertex 2.5 -12.9904 2
      vertex 4.73881 -12.9904 4
    endloop
  endfacet
  facet normal -0.666213 0 0.745761
    outer loop
      vertex 4.73881 12.9904 4
      vertex 2.51722 12.9811 2.01538
      vertex 4.73881 12.9811 4
    endloop
  endfacet
  facet normal -0.666213 -0.000254386 0.745762
    outer loop
      vertex 2.5 12.9904 2
      vertex 2.51722 12.9811 2.01538
      vertex 4.73881 12.9904 4
    endloop
  endfacet
  facet normal -0.666136 0 0.74583
    outer loop
      vertex 2.51722 12.9811 2.01538
      vertex 2.5 12.9904 2
      vertex 2.5 12.9811 2
    endloop
  endfacet
  facet normal 0.666211 1.04231e-06 0.745763
    outer loop
      vertex -4.73881 8.20786 4
      vertex -2.5 12.9811 2
      vertex -4.73781 12.9811 3.9991
    endloop
  endfacet
  facet normal 0.668965 -0 0.743294
    outer loop
      vertex -4.73881 8.20786 4
      vertex -4.73781 12.9811 3.9991
      vertex -4.73881 12.9811 4
    endloop
  endfacet
  facet normal 0.666213 0 0.745762
    outer loop
      vertex -2.5 12.9811 2
      vertex -4.73881 8.20786 4
      vertex -2.5 4.33013 2
    endloop
  endfacet
endsolid OpenSCAD_Model
