solid OpenSCAD_Model
  facet normal -0 0 -1
    outer loop
      vertex 12.9904 -7.5 0
      vertex 0 -15 0
      vertex -12.9904 -7.5 0
    endloop
  endfacet
  facet normal 0 0 -1
    outer loop
      vertex 12.9904 7.5 0
      vertex -12.9904 7.5 0
      vertex 0 15 0
    endloop
  endfacet
  facet normal 0 0 -1
    outer loop
      vertex 12.9904 -7.5 0
      vertex -12.9904 -7.5 0
      vertex 12.9904 7.5 0
    endloop
  endfacet
  facet normal -0 0 -1
    outer loop
      vertex 12.9904 7.5 0
      vertex -12.9904 -7.5 0
      vertex -12.9904 7.5 0
    endloop
  endfacet
  facet normal -0 0 1
    outer loop
      vertex -12.9904 -7.5 4
      vertex 0 -15 4
      vertex 12.9904 -7.5 4
    endloop
  endfacet
  facet normal 0 0 1
    outer loop
      vertex 0 15 4
      vertex -12.9904 7.5 4
      vertex 12.9904 7.5 4
    endloop
  endfacet
  facet normal 0 0 1
    outer loop
      vertex 12.9904 7.5 4
      vertex -12.9904 -7.5 4
      vertex 12.9904 -7.5 4
    endloop
  endfacet
  facet normal -0 0 1
    outer loop
      vertex -12.9904 7.5 4
      vertex -12.9904 -7.5 4
      vertex 12.9904 7.5 4
    endloop
  endfacet
  facet normal 0.499999 -0.866026 0
    outer loop
      vertex 12.9904 -7.5 0
      vertex 0 -15 4
      vertex 0 -15 0
    endloop
  endfacet
  facet normal 0.499999 -0.866026 0
    outer loop
      vertex 12.9904 -7.5 0
      vertex 12.9904 -7.5 4
      vertex 0 -15 4
    endloop
  endfacet
  facet normal 1 0 0
    outer loop
      vertex 12.9904 7.5 0
      vertex 12.9904 -7.5 4
      vertex 12.9904 -7.5 0
    endloop
  endfacet
  facet normal 1 0 -0
    outer loop
      vertex 12.9904 7.5 0
      vertex 12.9904 7.5 4
      vertex 12.9904 -7.5 4
    endloop
  endfacet
  facet normal 0.499999 0.866026 0
    outer loop
      vertex 0 15 0
      vertex 12.9904 7.5 4
      vertex 12.9904 7.5 0
    endloop
  endfacet
  facet normal 0.499999 0.866026 -0
    outer loop
      vertex 0 15 0
      vertex 0 15 4
      vertex 12.9904 7.5 4
    endloop
  endfacet
  facet normal -0.499999 0.866026 0
    outer loop
      vertex -12.9904 7.5 0
      vertex 0 15 4
      vertex 0 15 0
    endloop
  endfacet
  facet normal -0.499999 0.866026 0
    outer loop
      vertex -12.9904 7.5 0
      vertex -12.9904 7.5 4
      vertex 0 15 4
    endloop
  endfacet
  facet normal -1 0 0
    outer loop
      vertex -12.9904 -7.5 0
      vertex -12.9904 7.5 4
      vertex -12.9904 7.5 0
    endloop
  endfacet
  facet normal -1 0 0
    outer loop
      vertex -12.9904 -7.5 0
      vertex -12.9904 -7.5 4
      vertex -12.9904 7.5 4
    endloop
  endfacet
  facet normal -0.499999 -0.866026 0
    outer loop
      vertex 0 -15 0
      vertex -12.9904 -7.5 4
      vertex -12.9904 -7.5 0
    endloop
  endfacet
  facet normal -0.499999 -0.866026 0
    outer loop
      vertex 0 -15 0
      vertex 0 -15 4
      vertex -12.9904 -7.5 4
    endloop
  endfacet
endsolid OpenSCAD_Model
