solid OpenSCAD_Model
  facet normal -1 0 0
    outer loop
      vertex -12.9904 7.5 0
      vertex -12.9904 4.73883 4
      vertex -12.9904 7.5 4
    endloop
  endfacet
  facet normal -1 0 0
    outer loop
      vertex -12.9904 7.5 0
      vertex -12.9904 2.50001 2
      vertex -12.9904 4.73883 4
    endloop
  endfacet
  facet normal -1 0 0
    outer loop
      vertex -12.9904 7.5 0
      vertex -12.9904 -2.50001 2
      vertex -12.9904 2.50001 2
    endloop
  endfacet
  facet normal -1 0 0
    outer loop
      vertex -12.9904 -7.5 0
      vertex -12.9904 -2.5007 2.00062
      vertex -12.9904 -2.50001 2
    endloop
  endfacet
  facet normal -1 0 0
    outer loop
      vertex -12.9904 -7.5 0
      vertex -12.9904 -2.50001 2
      vertex -12.9904 7.5 0
    endloop
  endfacet
  facet normal -1 -0 0
    outer loop
      vertex -12.9904 -2.5007 2.00062
      vertex -12.9904 -7.5 0
      vertex -12.9904 -4.73883 4
    endloop
  endfacet
  facet normal -1 -0 0
    outer loop
      vertex -12.9904 -4.73883 4
      vertex -12.9904 -7.5 0
      vertex -12.9904 -7.5 4
    endloop
  endfacet
  facet normal -0.499999 -0.866026 0
    outer loop
      vertex -12.9904 -7.5 0
      vertex 0 -15 4
      vertex -12.9904 -7.5 4
    endloop
  endfacet
  facet normal -0.499999 -0.866026 -0
    outer loop
      vertex 0 -15 4
      vertex -12.9904 -7.5 0
      vertex 0 -15 0
    endloop
  endfacet
  facet normal 0 0 -1
    outer loop
      vertex 0 -15 0
      vertex 12.9904 7.5 0
      vertex 12.9904 -7.5 0
    endloop
  endfacet
  facet normal 0 0 -1
    outer loop
      vertex 0 -15 0
      vertex 0 15 0
      vertex 12.9904 7.5 0
    endloop
  endfacet
  facet normal 0 0 -1
    outer loop
      vertex -12.9904 -7.5 0
      vertex 0 15 0
      vertex 0 -15 0
    endloop
  endfacet
  facet normal 0 0 -1
    outer loop
      vertex 0 15 0
      vertex -12.9904 -7.5 0
      vertex -12.9904 7.5 0
    endloop
  endfacet
  facet normal 0.500012 -0.866019 0
    outer loop
      vertex 0 -15 0
      vertex 2.39154 -13.6192 4
      vertex 0 -15 4
    endloop
  endfacet
  facet normal 0.499998 -0.866027 1.14595e-05
    outer loop
      vertex 2.39154 -13.6192 4
      vertex 0 -15 0
      vertex 4.33011 -12.5 2.00031
    endloop
  endfacet
  facet normal 0.499995 -0.866029 3.14242e-05
    outer loop
      vertex 4.33041 -12.4998 2
      vertex 0 -15 0
      vertex 8.66053 -9.99984 2
    endloop
  endfacet
  facet normal 0.516929 -0.854505 -0.05104
    outer loop
      vertex 4.33011 -12.5 2.00031
      vertex 0 -15 0
      vertex 4.33041 -12.4998 2
    endloop
  endfacet
  facet normal 0.499999 -0.866026 2.41734e-06
    outer loop
      vertex 12.9904 -7.5 0
      vertex 10.5994 -8.88043 4
      vertex 8.66053 -9.99984 2
    endloop
  endfacet
  facet normal 0.499996 -0.866028 0
    outer loop
      vertex 10.5994 -8.88043 4
      vertex 12.9904 -7.5 0
      vertex 12.9904 -7.5 4
    endloop
  endfacet
  facet normal 0.499999 -0.866026 3.4488e-06
    outer loop
      vertex 12.9904 -7.5 0
      vertex 8.66053 -9.99984 2
      vertex 0 -15 0
    endloop
  endfacet
  facet normal -0.499999 0.866026 0
    outer loop
      vertex 0 15 0
      vertex -12.9904 7.5 4
      vertex 0 15 4
    endloop
  endfacet
  facet normal -0.499999 0.866026 0
    outer loop
      vertex -12.9904 7.5 4
      vertex 0 15 0
      vertex -12.9904 7.5 0
    endloop
  endfacet
  facet normal 0 0 1
    outer loop
      vertex 0 -15 4
      vertex 1.73837 -12.574 4
      vertex 1.73469 -12.5681 4
    endloop
  endfacet
  facet normal 0 0 1
    outer loop
      vertex 0 -15 4
      vertex 1.73469 -12.5681 4
      vertex 1.01009 -11.5707 4
    endloop
  endfacet
  facet normal 0 0 1
    outer loop
      vertex 0 -15 4
      vertex 1.01009 -11.5707 4
      vertex 1.00601 -11.5651 4
    endloop
  endfacet
  facet normal 0 0 1
    outer loop
      vertex 0 -15 4
      vertex 1.00601 -11.5651 4
      vertex 0.213596 -10.6208 4
    endloop
  endfacet
  facet normal 0 0 1
    outer loop
      vertex 0 -15 4
      vertex 0.213596 -10.6208 4
      vertex 0.209134 -10.6154 4
    endloop
  endfacet
  facet normal 0 0 1
    outer loop
      vertex 1.73837 -12.574 4
      vertex 0 -15 4
      vertex 2.39154 -13.6192 4
    endloop
  endfacet
  facet normal 0 0 1
    outer loop
      vertex -0.64722 -9.72866 4
      vertex 0 -15 4
      vertex 0.209134 -10.6154 4
    endloop
  endfacet
  facet normal 0 0 1
    outer loop
      vertex -0.652042 -9.72367 4
      vertex 0 -15 4
      vertex -0.64722 -9.72866 4
    endloop
  endfacet
  facet normal 0 0 1
    outer loop
      vertex -1.56817 -8.89879 4
      vertex 0 -15 4
      vertex -0.652042 -9.72367 4
    endloop
  endfacet
  facet normal 0 0 1
    outer loop
      vertex -1.57333 -8.89414 4
      vertex 0 -15 4
      vertex -1.56817 -8.89879 4
    endloop
  endfacet
  facet normal 0 0 1
    outer loop
      vertex -2.54477 -8.13517 4
      vertex 0 -15 4
      vertex -1.57333 -8.89414 4
    endloop
  endfacet
  facet normal 0 0 1
    outer loop
      vertex -2.55024 -8.1309 4
      vertex 0 -15 4
      vertex -2.54477 -8.13517 4
    endloop
  endfacet
  facet normal 0 0 1
    outer loop
      vertex -3.57225 -7.44154 4
      vertex 0 -15 4
      vertex -2.55024 -8.1309 4
    endloop
  endfacet
  facet normal 0 0 1
    outer loop
      vertex -3.578 -7.43766 4
      vertex 0 -15 4
      vertex -3.57225 -7.44154 4
    endloop
  endfacet
  facet normal 0 0 1
    outer loop
      vertex -4.64562 -6.82127 4
      vertex 0 -15 4
      vertex -3.578 -7.43766 4
    endloop
  endfacet
  facet normal 0 0 1
    outer loop
      vertex -12.9904 -7.5 4
      vertex -4.64562 -6.82127 4
      vertex -4.65163 -6.8178 4
    endloop
  endfacet
  facet normal 0 0 1
    outer loop
      vertex -12.9904 -7.5 4
      vertex -4.65163 -6.8178 4
      vertex -5.75963 -6.27739 4
    endloop
  endfacet
  facet normal 0 0 1
    outer loop
      vertex -12.9904 -7.5 4
      vertex -5.75963 -6.27739 4
      vertex -5.76587 -6.27435 4
    endloop
  endfacet
  facet normal 0 0 1
    outer loop
      vertex -12.9904 -7.5 4
      vertex -5.76587 -6.27435 4
      vertex -6.90888 -5.81254 4
    endloop
  endfacet
  facet normal 0 0 1
    outer loop
      vertex -12.9904 -7.5 4
      vertex -6.90888 -5.81254 4
      vertex -6.91532 -5.80994 4
    endloop
  endfacet
  facet normal 0 0 1
    outer loop
      vertex -12.9904 -7.5 4
      vertex -6.91532 -5.80994 4
      vertex -8.08775 -5.42899 4
    endloop
  endfacet
  facet normal 0 0 1
    outer loop
      vertex -12.9904 -7.5 4
      vertex -8.08775 -5.42899 4
      vertex -8.09435 -5.42685 4
    endloop
  endfacet
  facet normal 0 0 1
    outer loop
      vertex -12.9904 -7.5 4
      vertex -8.09435 -5.42685 4
      vertex -9.29051 -5.12862 4
    endloop
  endfacet
  facet normal 0 0 1
    outer loop
      vertex -12.9904 -7.5 4
      vertex -9.29051 -5.12862 4
      vertex -9.29724 -5.12694 4
    endloop
  endfacet
  facet normal 0 0 1
    outer loop
      vertex -12.9904 -7.5 4
      vertex -9.29724 -5.12694 4
      vertex -10.5113 -4.91287 4
    endloop
  endfacet
  facet normal 0 0 1
    outer loop
      vertex -12.9904 -7.5 4
      vertex -10.5113 -4.91287 4
      vertex -10.5181 -4.91166 4
    endloop
  endfacet
  facet normal 0 0 1
    outer loop
      vertex -12.9904 -7.5 4
      vertex -10.5181 -4.91166 4
      vertex -11.7441 -4.7828 4
    endloop
  endfacet
  facet normal 0 0 1
    outer loop
      vertex -12.9904 -7.5 4
      vertex -11.7441 -4.7828 4
      vertex -11.751 -4.78208 4
    endloop
  endfacet
  facet normal 0 0 1
    outer loop
      vertex -12.9904 -7.5 4
      vertex -11.751 -4.78208 4
      vertex -12.9831 -4.73905 4
    endloop
  endfacet
  facet normal -0 0 1
    outer loop
      vertex -12.9904 -4.73883 4
      vertex -12.9831 -4.73905 4
      vertex -12.99 -4.73881 4
    endloop
  endfacet
  facet normal 0 0 1
    outer loop
      vertex -12.9831 -4.73905 4
      vertex -12.9904 -4.73883 4
      vertex -12.9904 -7.5 4
    endloop
  endfacet
  facet normal 0 0 1
    outer loop
      vertex -4.64562 -6.82127 4
      vertex -12.9904 -7.5 4
      vertex 0 -15 4
    endloop
  endfacet
  facet normal 0 0 1
    outer loop
      vertex 0 15 4
      vertex 1.73469 12.5681 4
      vertex 2.38796 13.6135 4
    endloop
  endfacet
  facet normal 0 0 1
    outer loop
      vertex 0 15 4
      vertex 2.38796 13.6135 4
      vertex 2.39154 13.6192 4
    endloop
  endfacet
  facet normal 0 0 1
    outer loop
      vertex 1.73469 12.5681 4
      vertex 0 15 4
      vertex 1.73061 12.5625 4
    endloop
  endfacet
  facet normal 0 0 1
    outer loop
      vertex 1.73061 12.5625 4
      vertex 0 15 4
      vertex 1.00601 11.5651 4
    endloop
  endfacet
  facet normal 0 0 1
    outer loop
      vertex 1.00601 11.5651 4
      vertex 0 15 4
      vertex 1.00154 11.5598 4
    endloop
  endfacet
  facet normal 0 0 1
    outer loop
      vertex 1.00154 11.5598 4
      vertex 0 15 4
      vertex 0.209134 10.6154 4
    endloop
  endfacet
  facet normal 0 0 1
    outer loop
      vertex 0.209134 10.6154 4
      vertex 0 15 4
      vertex 0.204312 10.6105 4
    endloop
  endfacet
  facet normal 0 0 1
    outer loop
      vertex 0 15 4
      vertex -0.652042 9.72367 4
      vertex 0.204312 10.6105 4
    endloop
  endfacet
  facet normal 0 0 1
    outer loop
      vertex 0 15 4
      vertex -0.657201 9.71903 4
      vertex -0.652042 9.72367 4
    endloop
  endfacet
  facet normal 0 0 1
    outer loop
      vertex 0 15 4
      vertex -1.57333 8.89414 4
      vertex -0.657201 9.71903 4
    endloop
  endfacet
  facet normal 0 0 1
    outer loop
      vertex 0 15 4
      vertex -1.5788 8.88987 4
      vertex -1.57333 8.89414 4
    endloop
  endfacet
  facet normal 0 0 1
    outer loop
      vertex 0 15 4
      vertex -2.55024 8.1309 4
      vertex -1.5788 8.88987 4
    endloop
  endfacet
  facet normal 0 0 1
    outer loop
      vertex 0 15 4
      vertex -2.55599 8.12702 4
      vertex -2.55024 8.1309 4
    endloop
  endfacet
  facet normal 0 0 1
    outer loop
      vertex 0 15 4
      vertex -3.578 7.43766 4
      vertex -2.55599 8.12702 4
    endloop
  endfacet
  facet normal 0 0 1
    outer loop
      vertex 0 15 4
      vertex -3.58402 7.43419 4
      vertex -3.578 7.43766 4
    endloop
  endfacet
  facet normal 0 0 1
    outer loop
      vertex 0 15 4
      vertex -4.65163 6.8178 4
      vertex -3.58402 7.43419 4
    endloop
  endfacet
  facet normal 0 0 1
    outer loop
      vertex 0 15 4
      vertex -4.65787 6.81476 4
      vertex -4.65163 6.8178 4
    endloop
  endfacet
  facet normal -0 0 1
    outer loop
      vertex -12.9904 7.5 4
      vertex -4.65787 6.81476 4
      vertex 0 15 4
    endloop
  endfacet
  facet normal 0 0 1
    outer loop
      vertex -4.65787 6.81476 4
      vertex -12.9904 7.5 4
      vertex -5.76587 6.27435 4
    endloop
  endfacet
  facet normal 0 0 1
    outer loop
      vertex -5.76587 6.27435 4
      vertex -12.9904 7.5 4
      vertex -5.77231 6.27175 4
    endloop
  endfacet
  facet normal 0 0 1
    outer loop
      vertex -5.77231 6.27175 4
      vertex -12.9904 7.5 4
      vertex -6.91532 5.80994 4
    endloop
  endfacet
  facet normal 0 0 1
    outer loop
      vertex -6.91532 5.80994 4
      vertex -12.9904 7.5 4
      vertex -6.92192 5.8078 4
    endloop
  endfacet
  facet normal 0 0 1
    outer loop
      vertex -6.92192 5.8078 4
      vertex -12.9904 7.5 4
      vertex -8.09435 5.42685 4
    endloop
  endfacet
  facet normal 0 0 1
    outer loop
      vertex -8.09435 5.42685 4
      vertex -12.9904 7.5 4
      vertex -8.10109 5.42517 4
    endloop
  endfacet
  facet normal 0 0 1
    outer loop
      vertex -8.10109 5.42517 4
      vertex -12.9904 7.5 4
      vertex -9.29724 5.12694 4
    endloop
  endfacet
  facet normal 0 0 1
    outer loop
      vertex -9.29724 5.12694 4
      vertex -12.9904 7.5 4
      vertex -9.30408 5.12573 4
    endloop
  endfacet
  facet normal 0 0 1
    outer loop
      vertex -9.30408 5.12573 4
      vertex -12.9904 7.5 4
      vertex -10.5181 4.91166 4
    endloop
  endfacet
  facet normal 0 0 1
    outer loop
      vertex -10.5181 4.91166 4
      vertex -12.9904 7.5 4
      vertex -10.525 4.91094 4
    endloop
  endfacet
  facet normal 0 0 1
    outer loop
      vertex -10.525 4.91094 4
      vertex -12.9904 7.5 4
      vertex -11.751 4.78208 4
    endloop
  endfacet
  facet normal 0 0 1
    outer loop
      vertex -11.751 4.78208 4
      vertex -12.9904 7.5 4
      vertex -11.758 4.78183 4
    endloop
  endfacet
  facet normal 0 0 1
    outer loop
      vertex -11.758 4.78183 4
      vertex -12.9904 7.5 4
      vertex -12.99 4.73881 4
    endloop
  endfacet
  facet normal 0 0 1
    outer loop
      vertex -12.99 4.73881 4
      vertex -12.9904 7.5 4
      vertex -12.9904 4.73883 4
    endloop
  endfacet
  facet normal 0 0 1
    outer loop
      vertex 9.5966 7.27561 4
      vertex 12.9904 7.5 4
      vertex 10.5994 8.88043 4
    endloop
  endfacet
  facet normal 0 0 1
    outer loop
      vertex 9.592 7.26825 4
      vertex 12.9904 7.5 4
      vertex 9.5966 7.27561 4
    endloop
  endfacet
  facet normal 0 0 1
    outer loop
      vertex 12.9904 -7.5 4
      vertex 10.5949 -8.87324 4
      vertex 10.5994 -8.88043 4
    endloop
  endfacet
  facet normal 0 0 1
    outer loop
      vertex 8.47958 5.73713 4
      vertex 12.9904 7.5 4
      vertex 9.592 7.26825 4
    endloop
  endfacet
  facet normal 0 0 1
    outer loop
      vertex 8.47448 5.73011 4
      vertex 12.9904 7.5 4
      vertex 8.47958 5.73713 4
    endloop
  endfacet
  facet normal 0 0 1
    outer loop
      vertex 12.9904 -7.5 4
      vertex 9.592 -7.26825 4
      vertex 10.5949 -8.87324 4
    endloop
  endfacet
  facet normal 0 0 1
    outer loop
      vertex 12.9904 -7.5 4
      vertex 9.5869 -7.26123 4
      vertex 9.592 -7.26825 4
    endloop
  endfacet
  facet normal 0 0 1
    outer loop
      vertex 7.25796 4.28032 4
      vertex 12.9904 7.5 4
      vertex 8.47448 5.73011 4
    endloop
  endfacet
  facet normal 0 0 1
    outer loop
      vertex 12.9904 7.5 4
      vertex 7.25796 4.28032 4
      vertex 12.9904 -7.5 4
    endloop
  endfacet
  facet normal 0 0 1
    outer loop
      vertex 12.9904 -7.5 4
      vertex 8.47448 -5.73011 4
      vertex 9.5869 -7.26123 4
    endloop
  endfacet
  facet normal 0 0 1
    outer loop
      vertex 12.9904 -7.5 4
      vertex 8.4689 -5.72347 4
      vertex 8.47448 -5.73011 4
    endloop
  endfacet
  facet normal -0 0 1
    outer loop
      vertex 7.25238 -4.27368 4
      vertex 12.9904 -7.5 4
      vertex 7.25796 4.28032 4
    endloop
  endfacet
  facet normal 0 0 1
    outer loop
      vertex 7.25238 -4.27368 4
      vertex 7.25796 4.28032 4
      vertex 7.25238 4.27368 4
    endloop
  endfacet
  facet normal 0 0 1
    outer loop
      vertex 12.9904 -7.5 4
      vertex 7.25238 -4.27368 4
      vertex 8.4689 -5.72347 4
    endloop
  endfacet
  facet normal 0 0 1
    outer loop
      vertex 7.25238 4.27368 4
      vertex 7.24635 -4.26744 4
      vertex 7.25238 -4.27368 4
    endloop
  endfacet
  facet normal -0 0 1
    outer loop
      vertex 5.9377 2.91228 4
      vertex 7.24635 -4.26744 4
      vertex 7.25238 4.27368 4
    endloop
  endfacet
  facet normal 0 0 1
    outer loop
      vertex 5.93167 -2.90604 4
      vertex 5.9377 2.91228 4
      vertex 5.93167 2.90604 4
    endloop
  endfacet
  facet normal 0 0 1
    outer loop
      vertex 5.9377 2.91228 4
      vertex 5.93167 -2.90604 4
      vertex 7.24635 -4.26744 4
    endloop
  endfacet
  facet normal 0 0 1
    outer loop
      vertex 5.93167 2.90604 4
      vertex 5.92522 -2.90023 4
      vertex 5.93167 -2.90604 4
    endloop
  endfacet
  facet normal -0 0 1
    outer loop
      vertex 4.52522 1.63966 4
      vertex 5.92522 -2.90023 4
      vertex 5.93167 2.90604 4
    endloop
  endfacet
  facet normal 0 0 1
    outer loop
      vertex 4.51877 -1.63386 4
      vertex 4.52522 1.63966 4
      vertex 4.51877 1.63386 4
    endloop
  endfacet
  facet normal 0 0 1
    outer loop
      vertex 4.52522 1.63966 4
      vertex 4.51877 -1.63386 4
      vertex 5.92522 -2.90023 4
    endloop
  endfacet
  facet normal 0 0 1
    outer loop
      vertex 4.51877 1.63386 4
      vertex 4.51193 -1.62852 4
      vertex 4.51877 -1.63386 4
    endloop
  endfacet
  facet normal -0 0 1
    outer loop
      vertex 3.02741 0.46868 4
      vertex 4.51193 -1.62852 4
      vertex 4.51877 1.63386 4
    endloop
  endfacet
  facet normal 0 0 1
    outer loop
      vertex 3.02057 -0.463338 4
      vertex 3.02741 0.46868 4
      vertex 3.02057 0.463338 4
    endloop
  endfacet
  facet normal 0 0 1
    outer loop
      vertex 3.02741 0.46868 4
      vertex 3.02057 -0.463338 4
      vertex 4.51193 -1.62852 4
    endloop
  endfacet
  facet normal 0 0 1
    outer loop
      vertex 3.02057 0.463338 4
      vertex 3.01338 -0.458486 4
      vertex 3.02057 -0.463338 4
    endloop
  endfacet
  facet normal 0 -0 1
    outer loop
      vertex 3.01338 -0.458486 4
      vertex 3.02057 0.463338 4
      vertex 2.33364 2.05233e-09 4
    endloop
  endfacet
  facet normal 0.499996 0.866028 -0
    outer loop
      vertex 12.9904 7.5 0
      vertex 10.5994 8.88043 4
      vertex 12.9904 7.5 4
    endloop
  endfacet
  facet normal 0.5 0.866025 3.3209e-06
    outer loop
      vertex 10.5994 8.88043 4
      vertex 12.9904 7.5 0
      vertex 8.66073 9.99973 2.0002
    endloop
  endfacet
  facet normal 0.499995 0.866029 -1.05376e-05
    outer loop
      vertex 8.66053 9.99984 2
      vertex 12.9904 7.5 0
      vertex 4.33041 12.4998 2
    endloop
  endfacet
  facet normal 0.494289 0.869146 -0.0162589
    outer loop
      vertex 8.66073 9.99973 2.0002
      vertex 12.9904 7.5 0
      vertex 8.66053 9.99984 2
    endloop
  endfacet
  facet normal 0.500003 0.866024 7.03259e-06
    outer loop
      vertex 0 15 0
      vertex 2.39154 13.6192 4
      vertex 4.33041 12.4998 2
    endloop
  endfacet
  facet normal 0.500012 0.866019 0
    outer loop
      vertex 2.39154 13.6192 4
      vertex 0 15 0
      vertex 0 15 4
    endloop
  endfacet
  facet normal 0.499999 0.866026 1.7436e-05
    outer loop
      vertex 0 15 0
      vertex 4.33041 12.4998 2
      vertex 12.9904 7.5 0
    endloop
  endfacet
  facet normal 1 -0 0
    outer loop
      vertex 12.9904 -7.5 4
      vertex 12.9904 7.5 0
      vertex 12.9904 7.5 4
    endloop
  endfacet
  facet normal 1 0 0
    outer loop
      vertex 12.9904 7.5 0
      vertex 12.9904 -7.5 4
      vertex 12.9904 -7.5 0
    endloop
  endfacet
  facet normal -0.0167069 0.668276 0.743726
    outer loop
      vertex -12.9904 -2.5007 2.00062
      vertex -12.99 -2.5 2
      vertex -12.9904 -2.50001 2
    endloop
  endfacet
  facet normal -0.0099409 0.66618 0.745725
    outer loop
      vertex -12.9904 -2.5007 2.00062
      vertex -12.99 -4.73881 4
      vertex -12.99 -2.5 2
    endloop
  endfacet
  facet normal -0.0332921 0.665841 0.74535
    outer loop
      vertex -12.99 -4.73881 4
      vertex -12.9904 -2.5007 2.00062
      vertex -12.9904 -4.73883 4
    endloop
  endfacet
  facet normal 0 0 1
    outer loop
      vertex 3.59075 11.3161 2
      vertex 7.73594 8.52018 2
      vertex 8.66053 9.99984 2
    endloop
  endfacet
  facet normal 0 0 1
    outer loop
      vertex 7.73594 8.52018 2
      vertex 3.59075 11.3161 2
      vertex 6.71027 7.10846 2
    endloop
  endfacet
  facet normal 0 0 1
    outer loop
      vertex 6.71027 7.10846 2
      vertex 2.77022 10.1868 2
      vertex 5.58862 5.77173 2
    endloop
  endfacet
  facet normal -0 0 1
    outer loop
      vertex 3.59075 11.3161 2
      vertex 8.66053 9.99984 2
      vertex 4.33041 12.4998 2
    endloop
  endfacet
  facet normal 0 0 1
    outer loop
      vertex 6.71027 7.10846 2
      vertex 3.59075 11.3161 2
      vertex 2.77022 10.1868 2
    endloop
  endfacet
  facet normal -0 0 1
    outer loop
      vertex 1.8729 9.11739 2
      vertex 5.58862 5.77173 2
      vertex 2.77022 10.1868 2
    endloop
  endfacet
  facet normal 0 0 1
    outer loop
      vertex 5.58862 5.77173 2
      vertex 1.8729 9.11739 2
      vertex 4.37646 4.5165 2
    endloop
  endfacet
  facet normal -0 0 1
    outer loop
      vertex 0.903167 8.1132 2
      vertex 4.37646 4.5165 2
      vertex 1.8729 9.11739 2
    endloop
  endfacet
  facet normal 0 0 1
    outer loop
      vertex 4.37646 4.5165 2
      vertex 0.903167 8.1132 2
      vertex 3.07969 3.34889 2
    endloop
  endfacet
  facet normal -0 0 1
    outer loop
      vertex -0.134248 7.17911 2
      vertex 3.07969 3.34889 2
      vertex 0.903167 8.1132 2
    endloop
  endfacet
  facet normal 0 0 1
    outer loop
      vertex 3.07969 3.34889 2
      vertex -0.134248 7.17911 2
      vertex 1.70463 2.27457 2
    endloop
  endfacet
  facet normal -0 0 1
    outer loop
      vertex -1.23429 6.31966 2
      vertex 1.70463 2.27457 2
      vertex -0.134248 7.17911 2
    endloop
  endfacet
  facet normal 0 0 1
    outer loop
      vertex 1.70463 2.27457 2
      vertex -1.23429 6.31966 2
      vertex 0.257981 1.2988 2
    endloop
  endfacet
  facet normal -0 0 1
    outer loop
      vertex -2.39161 5.53904 2
      vertex 0.257981 1.2988 2
      vertex -1.23429 6.31966 2
    endloop
  endfacet
  facet normal 0 0 1
    outer loop
      vertex 0.257981 1.2988 2
      vertex -2.39161 5.53904 2
      vertex -1.25321 0.42631 2
    endloop
  endfacet
  facet normal -0 0 1
    outer loop
      vertex -3.60057 4.84105 2
      vertex -1.25321 0.42631 2
      vertex -2.39161 5.53904 2
    endloop
  endfacet
  facet normal 0 0 1
    outer loop
      vertex 3.59075 -11.3161 2
      vertex 7.73594 -8.52018 2
      vertex 6.71027 -7.10846 2
    endloop
  endfacet
  facet normal 0 0 1
    outer loop
      vertex 2.77022 -10.1868 2
      vertex 6.71027 -7.10846 2
      vertex 5.58862 -5.77173 2
    endloop
  endfacet
  facet normal 0 0 1
    outer loop
      vertex 1.8729 -9.11739 2
      vertex 5.58862 -5.77173 2
      vertex 4.37646 -4.5165 2
    endloop
  endfacet
  facet normal 0 -0 1
    outer loop
      vertex 3.59075 -11.3161 2
      vertex 6.71027 -7.10846 2
      vertex 2.77022 -10.1868 2
    endloop
  endfacet
  facet normal 0 0 1
    outer loop
      vertex 8.66053 -9.99984 2
      vertex 3.59075 -11.3161 2
      vertex 4.33041 -12.4998 2
    endloop
  endfacet
  facet normal 0 0 1
    outer loop
      vertex 0.903167 -8.1132 2
      vertex 4.37646 -4.5165 2
      vertex 3.07969 -3.34889 2
    endloop
  endfacet
  facet normal 0 0 1
    outer loop
      vertex 7.73594 -8.52018 2
      vertex 3.59075 -11.3161 2
      vertex 8.66053 -9.99984 2
    endloop
  endfacet
  facet normal 0 0 1
    outer loop
      vertex 5.58862 -5.77173 2
      vertex 1.8729 -9.11739 2
      vertex 2.77022 -10.1868 2
    endloop
  endfacet
  facet normal 0 0 1
    outer loop
      vertex -0.134248 -7.17911 2
      vertex 3.07969 -3.34889 2
      vertex 1.70463 -2.27457 2
    endloop
  endfacet
  facet normal 0 0 1
    outer loop
      vertex 4.37646 -4.5165 2
      vertex 0.903167 -8.1132 2
      vertex 1.8729 -9.11739 2
    endloop
  endfacet
  facet normal 0 0 1
    outer loop
      vertex -1.23429 -6.31966 2
      vertex 1.70463 -2.27457 2
      vertex 0.257981 -1.2988 2
    endloop
  endfacet
  facet normal 0 0 1
    outer loop
      vertex 3.07969 -3.34889 2
      vertex -0.134248 -7.17911 2
      vertex 0.903167 -8.1132 2
    endloop
  endfacet
  facet normal 0 0 1
    outer loop
      vertex 1.70463 -2.27457 2
      vertex -1.23429 -6.31966 2
      vertex -0.134248 -7.17911 2
    endloop
  endfacet
  facet normal 0 0 1
    outer loop
      vertex -2.39161 -5.53904 2
      vertex 0.257981 -1.2988 2
      vertex -1.25321 -0.42631 2
    endloop
  endfacet
  facet normal 0 0 1
    outer loop
      vertex -3.60057 -4.84105 2
      vertex -1.25321 -0.42631 2
      vertex -2.12728 0 2
    endloop
  endfacet
  facet normal 0 0 1
    outer loop
      vertex 0.257981 -1.2988 2
      vertex -2.39161 -5.53904 2
      vertex -1.23429 -6.31966 2
    endloop
  endfacet
  facet normal 0 0 1
    outer loop
      vertex -1.25321 0.42631 2
      vertex -3.60057 4.84105 2
      vertex -2.12728 0 2
    endloop
  endfacet
  facet normal -0 0 1
    outer loop
      vertex -4.85527 4.22909 2
      vertex -2.12728 0 2
      vertex -3.60057 4.84105 2
    endloop
  endfacet
  facet normal 0 0 1
    outer loop
      vertex -1.25321 -0.42631 2
      vertex -3.60057 -4.84105 2
      vertex -2.39161 -5.53904 2
    endloop
  endfacet
  facet normal -0 0 1
    outer loop
      vertex -6.1496 3.70615 2
      vertex -2.12728 0 2
      vertex -4.85527 4.22909 2
    endloop
  endfacet
  facet normal 0 0 1
    outer loop
      vertex -2.12728 0 2
      vertex -4.85527 -4.22909 2
      vertex -3.60057 -4.84105 2
    endloop
  endfacet
  facet normal -0 0 1
    outer loop
      vertex -7.47725 3.27477 2
      vertex -2.12728 0 2
      vertex -6.1496 3.70615 2
    endloop
  endfacet
  facet normal 0 0 1
    outer loop
      vertex -2.12728 0 2
      vertex -6.1496 -3.70615 2
      vertex -4.85527 -4.22909 2
    endloop
  endfacet
  facet normal 0 0 1
    outer loop
      vertex -7.47725 -3.27477 2
      vertex -2.12728 0 2
      vertex -7.47725 3.27477 2
    endloop
  endfacet
  facet normal 0 0 1
    outer loop
      vertex -2.12728 0 2
      vertex -7.47725 -3.27477 2
      vertex -6.1496 -3.70615 2
    endloop
  endfacet
  facet normal -0 0 1
    outer loop
      vertex -8.83177 2.93705 2
      vertex -7.47725 -3.27477 2
      vertex -7.47725 3.27477 2
    endloop
  endfacet
  facet normal 0 0 1
    outer loop
      vertex -8.83177 2.93705 2
      vertex -8.83177 -2.93705 2
      vertex -7.47725 -3.27477 2
    endloop
  endfacet
  facet normal -0 0 1
    outer loop
      vertex -10.2065 2.69464 2
      vertex -8.83177 -2.93705 2
      vertex -8.83177 2.93705 2
    endloop
  endfacet
  facet normal 0 0 1
    outer loop
      vertex -10.2065 2.69464 2
      vertex -10.2065 -2.69464 2
      vertex -8.83177 -2.93705 2
    endloop
  endfacet
  facet normal -0 0 1
    outer loop
      vertex -11.5949 2.54872 2
      vertex -10.2065 -2.69464 2
      vertex -10.2065 2.69464 2
    endloop
  endfacet
  facet normal 0 0 1
    outer loop
      vertex -11.5949 2.54872 2
      vertex -11.5949 -2.54872 2
      vertex -10.2065 -2.69464 2
    endloop
  endfacet
  facet normal -0 0 1
    outer loop
      vertex -12.99 2.5 2
      vertex -11.5949 -2.54872 2
      vertex -11.5949 2.54872 2
    endloop
  endfacet
  facet normal 0 0 1
    outer loop
      vertex -12.99 2.5 2
      vertex -12.99 -2.5 2
      vertex -11.5949 -2.54872 2
    endloop
  endfacet
  facet normal 0 0 1
    outer loop
      vertex -12.9904 2.50001 2
      vertex -12.99 -2.5 2
      vertex -12.99 2.5 2
    endloop
  endfacet
  facet normal 0 0 1
    outer loop
      vertex -12.99 -2.5 2
      vertex -12.9904 2.50001 2
      vertex -12.9904 -2.50001 2
    endloop
  endfacet
  facet normal 0.0232593 0.666033 0.74556
    outer loop
      vertex -12.99 -2.5 2
      vertex -12.9831 -4.73905 4
      vertex -11.5949 -2.54872 2
    endloop
  endfacet
  facet normal 0.0231664 0.666034 0.745562
    outer loop
      vertex -12.9831 -4.73905 4
      vertex -12.99 -2.5 2
      vertex -12.99 -4.73881 4
    endloop
  endfacet
  facet normal 0.0232606 0.666032 0.74556
    outer loop
      vertex -11.751 -4.78208 4
      vertex -11.5949 -2.54872 2
      vertex -12.9831 -4.73905 4
    endloop
  endfacet
  facet normal 0.0696588 0.662789 0.745559
    outer loop
      vertex -11.5949 -2.54872 2
      vertex -11.7441 -4.7828 4
      vertex -10.2065 -2.69464 2
    endloop
  endfacet
  facet normal 0.0691649 0.662831 0.745568
    outer loop
      vertex -11.7441 -4.7828 4
      vertex -11.5949 -2.54872 2
      vertex -11.751 -4.78208 4
    endloop
  endfacet
  facet normal 0.069663 0.662787 0.74556
    outer loop
      vertex -10.5181 -4.91166 4
      vertex -10.2065 -2.69464 2
      vertex -11.7441 -4.7828 4
    endloop
  endfacet
  facet normal 0.115729 0.656311 0.745562
    outer loop
      vertex -10.2065 -2.69464 2
      vertex -10.5113 -4.91287 4
      vertex -8.83177 -2.93705 2
    endloop
  endfacet
  facet normal 0.116756 0.656152 0.745542
    outer loop
      vertex -10.5113 -4.91287 4
      vertex -10.2065 -2.69464 2
      vertex -10.5181 -4.91166 4
    endloop
  endfacet
  facet normal 0.115725 0.656313 0.74556
    outer loop
      vertex -9.29724 -5.12694 4
      vertex -8.83177 -2.93705 2
      vertex -10.5113 -4.91287 4
    endloop
  endfacet
  facet normal 0.161226 0.646642 0.745561
    outer loop
      vertex -8.83177 -2.93705 2
      vertex -9.29051 -5.12862 4
      vertex -7.47725 -3.27477 2
    endloop
  endfacet
  facet normal 0.16141 0.6466 0.745557
    outer loop
      vertex -9.29051 -5.12862 4
      vertex -8.83177 -2.93705 2
      vertex -9.29724 -5.12694 4
    endloop
  endfacet
  facet normal 0.161223 0.646644 0.74556
    outer loop
      vertex -8.09435 -5.42685 4
      vertex -7.47725 -3.27477 2
      vertex -9.29051 -5.12862 4
    endloop
  endfacet
  facet normal 0.205941 0.633822 0.745559
    outer loop
      vertex -7.47725 -3.27477 2
      vertex -8.08775 -5.42899 4
      vertex -6.1496 -3.70615 2
    endloop
  endfacet
  facet normal 0.20555 0.63394 0.745567
    outer loop
      vertex -8.08775 -5.42899 4
      vertex -7.47725 -3.27477 2
      vertex -8.09435 -5.42685 4
    endloop
  endfacet
  facet normal 0.205943 0.63382 0.74556
    outer loop
      vertex -6.91532 -5.80994 4
      vertex -6.1496 -3.70615 2
      vertex -8.08775 -5.42899 4
    endloop
  endfacet
  facet normal 0.249651 0.617912 0.745559
    outer loop
      vertex -6.1496 -3.70615 2
      vertex -6.90888 -5.81254 4
      vertex -4.85527 -4.22909 2
    endloop
  endfacet
  facet normal 0.249492 0.617973 0.745563
    outer loop
      vertex -6.90888 -5.81254 4
      vertex -6.1496 -3.70615 2
      vertex -6.91532 -5.80994 4
    endloop
  endfacet
  facet normal 0.249654 0.61791 0.74556
    outer loop
      vertex -5.76587 -6.27435 4
      vertex -4.85527 -4.22909 2
      vertex -6.90888 -5.81254 4
    endloop
  endfacet
  facet normal -0.292153 -0.598986 0.745562
    outer loop
      vertex -1.35194 -5.7025e-08 2.30381
      vertex -1.25321 -0.42631 2
      vertex -1.02654 0 2.43132
    endloop
  endfacet
  facet normal -0.292143 -0.598986 0.745566
    outer loop
      vertex -1.25321 -0.42631 2
      vertex -1.35194 -5.7025e-08 2.30381
      vertex -2.12728 0 2
    endloop
  endfacet
  facet normal 0.292148 0.598991 0.74556
    outer loop
      vertex -4.85527 -4.22909 2
      vertex -5.75963 -6.27739 4
      vertex -3.60057 -4.84105 2
    endloop
  endfacet
  facet normal 0.291877 0.599116 0.745566
    outer loop
      vertex -5.75963 -6.27739 4
      vertex -4.85527 -4.22909 2
      vertex -5.76587 -6.27435 4
    endloop
  endfacet
  facet normal 0.292148 0.59899 0.74556
    outer loop
      vertex -4.65163 -6.8178 4
      vertex -3.60057 -4.84105 2
      vertex -5.75963 -6.27739 4
    endloop
  endfacet
  facet normal -0.333223 -0.577148 0.745562
    outer loop
      vertex -0.140319 -1.44868e-07 2.82741
      vertex -1.02654 0 2.43132
      vertex -1.25321 -0.42631 2
    endloop
  endfacet
  facet normal -0.33322 -0.577151 0.745561
    outer loop
      vertex 0.051345 -1.59867e-07 2.91307
      vertex 0.257981 -1.2988 2
      vertex 1.06956 0 3.36815
    endloop
  endfacet
  facet normal -0.333213 -0.577152 0.745563
    outer loop
      vertex -0.140319 -1.44868e-07 2.82741
      vertex 0.257981 -1.2988 2
      vertex 0.051345 -1.59867e-07 2.91307
    endloop
  endfacet
  facet normal -0.33322 -0.577152 0.74556
    outer loop
      vertex 0.257981 -1.2988 2
      vertex -0.140319 -1.44868e-07 2.82741
      vertex -1.25321 -0.42631 2
    endloop
  endfacet
  facet normal 0.333218 0.577153 0.74556
    outer loop
      vertex -3.60057 -4.84105 2
      vertex -4.64562 -6.82127 4
      vertex -2.39161 -5.53904 2
    endloop
  endfacet
  facet normal 0.333228 0.577148 0.74556
    outer loop
      vertex -4.64562 -6.82127 4
      vertex -3.60057 -4.84105 2
      vertex -4.65163 -6.8178 4
    endloop
  endfacet
  facet normal 0.333219 0.577153 0.74556
    outer loop
      vertex -3.578 -7.43766 4
      vertex -2.39161 -5.53904 2
      vertex -4.64562 -6.82127 4
    endloop
  endfacet
  facet normal -0.372667 -0.552506 0.745558
    outer loop
      vertex 1.50403 8.7205e-08 3.58532
      vertex 3.01338 -0.458486 4
      vertex 2.33364 2.05233e-09 4
    endloop
  endfacet
  facet normal -0.372669 -0.552501 0.745561
    outer loop
      vertex 0.257981 -1.2988 2
      vertex 1.50403 8.7205e-08 3.58532
      vertex 1.06956 0 3.36815
    endloop
  endfacet
  facet normal -0.372666 -0.552503 0.74556
    outer loop
      vertex 1.50403 8.7205e-08 3.58532
      vertex 0.257981 -1.2988 2
      vertex 3.01338 -0.458486 4
    endloop
  endfacet
  facet normal -0.372787 -0.552419 0.745562
    outer loop
      vertex 3.01338 -0.458486 4
      vertex 1.70463 -2.27457 2
      vertex 3.02057 -0.463338 4
    endloop
  endfacet
  facet normal -0.372666 -0.552504 0.74556
    outer loop
      vertex 1.70463 -2.27457 2
      vertex 3.01338 -0.458486 4
      vertex 0.257981 -1.2988 2
    endloop
  endfacet
  facet normal 0.372667 0.552503 0.745561
    outer loop
      vertex -2.39161 -5.53904 2
      vertex -3.57225 -7.44154 4
      vertex -1.23429 -6.31966 2
    endloop
  endfacet
  facet normal 0.372773 0.552434 0.745558
    outer loop
      vertex -3.57225 -7.44154 4
      vertex -2.39161 -5.53904 2
      vertex -3.578 -7.43766 4
    endloop
  endfacet
  facet normal 0.372669 0.5525 0.745562
    outer loop
      vertex -2.55024 -8.1309 4
      vertex -1.23429 -6.31966 2
      vertex -3.57225 -7.44154 4
    endloop
  endfacet
  facet normal -0.410302 -0.52516 0.74556
    outer loop
      vertex 4.51193 -1.62852 4
      vertex 3.02057 -0.463338 4
      vertex 1.70463 -2.27457 2
    endloop
  endfacet
  facet normal -0.410113 -0.525313 0.745556
    outer loop
      vertex 4.51193 -1.62852 4
      vertex 3.07969 -3.34889 2
      vertex 4.51877 -1.63386 4
    endloop
  endfacet
  facet normal -0.410302 -0.52516 0.74556
    outer loop
      vertex 3.07969 -3.34889 2
      vertex 4.51193 -1.62852 4
      vertex 1.70463 -2.27457 2
    endloop
  endfacet
  facet normal 0.410301 0.525159 0.745561
    outer loop
      vertex -1.23429 -6.31966 2
      vertex -2.54477 -8.13517 4
      vertex -0.134248 -7.17911 2
    endloop
  endfacet
  facet normal 0.41008 0.525324 0.745566
    outer loop
      vertex -2.54477 -8.13517 4
      vertex -1.23429 -6.31966 2
      vertex -2.55024 -8.1309 4
    endloop
  endfacet
  facet normal 0.410299 0.525161 0.745561
    outer loop
      vertex -1.57333 -8.89414 4
      vertex -0.134248 -7.17911 2
      vertex -2.54477 -8.13517 4
    endloop
  endfacet
  facet normal -0.445933 -0.495261 0.74556
    outer loop
      vertex 5.92522 -2.90023 4
      vertex 4.51877 -1.63386 4
      vertex 3.07969 -3.34889 2
    endloop
  endfacet
  facet normal -0.446034 -0.495167 0.745562
    outer loop
      vertex 5.92522 -2.90023 4
      vertex 4.37646 -4.5165 2
      vertex 5.93167 -2.90604 4
    endloop
  endfacet
  facet normal -0.445933 -0.495262 0.74556
    outer loop
      vertex 4.37646 -4.5165 2
      vertex 5.92522 -2.90023 4
      vertex 3.07969 -3.34889 2
    endloop
  endfacet
  facet normal 0.445933 0.49526 0.745561
    outer loop
      vertex -0.134248 -7.17911 2
      vertex -1.56817 -8.89879 4
      vertex 0.903167 -8.1132 2
    endloop
  endfacet
  facet normal 0.446145 0.495077 0.745556
    outer loop
      vertex -1.56817 -8.89879 4
      vertex -0.134248 -7.17911 2
      vertex -1.57333 -8.89414 4
    endloop
  endfacet
  facet normal 0.445932 0.495261 0.745561
    outer loop
      vertex -0.652042 -9.72367 4
      vertex 0.903167 -8.1132 2
      vertex -1.56817 -8.89879 4
    endloop
  endfacet
  facet normal -0.479398 -0.462946 0.74556
    outer loop
      vertex 7.24635 -4.26744 4
      vertex 5.93167 -2.90604 4
      vertex 4.37646 -4.5165 2
    endloop
  endfacet
  facet normal -0.479242 -0.463114 0.745555
    outer loop
      vertex 7.24635 -4.26744 4
      vertex 5.58862 -5.77173 2
      vertex 7.25238 -4.27368 4
    endloop
  endfacet
  facet normal -0.479397 -0.462948 0.745559
    outer loop
      vertex 5.58862 -5.77173 2
      vertex 7.24635 -4.26744 4
      vertex 4.37646 -4.5165 2
    endloop
  endfacet
  facet normal 0.479396 0.462946 0.74556
    outer loop
      vertex 0.903167 -8.1132 2
      vertex -0.64722 -9.72866 4
      vertex 1.8729 -9.11739 2
    endloop
  endfacet
  facet normal 0.479238 0.463103 0.745564
    outer loop
      vertex -0.64722 -9.72866 4
      vertex 0.903167 -8.1132 2
      vertex -0.652042 -9.72367 4
    endloop
  endfacet
  facet normal 0.479389 0.462961 0.745556
    outer loop
      vertex 0.209134 -10.6154 4
      vertex 1.8729 -9.11739 2
      vertex -0.64722 -9.72866 4
    endloop
  endfacet
  facet normal -0.510522 -0.428379 0.745559
    outer loop
      vertex 8.4689 -5.72347 4
      vertex 7.25238 -4.27368 4
      vertex 5.58862 -5.77173 2
    endloop
  endfacet
  facet normal -0.510211 -0.428762 0.745552
    outer loop
      vertex 8.4689 -5.72347 4
      vertex 6.71027 -7.10846 2
      vertex 8.47448 -5.73011 4
    endloop
  endfacet
  facet normal -0.510522 -0.428379 0.74556
    outer loop
      vertex 6.71027 -7.10846 2
      vertex 8.4689 -5.72347 4
      vertex 5.58862 -5.77173 2
    endloop
  endfacet
  facet normal 0.510523 0.428369 0.745564
    outer loop
      vertex 1.8729 -9.11739 2
      vertex 0.213596 -10.6208 4
      vertex 2.77022 -10.1868 2
    endloop
  endfacet
  facet normal 0.513832 0.424578 0.745459
    outer loop
      vertex 0.213596 -10.6208 4
      vertex 1.8729 -9.11739 2
      vertex 0.209134 -10.6154 4
    endloop
  endfacet
  facet normal 0.510512 0.428398 0.745555
    outer loop
      vertex 1.00601 -11.5651 4
      vertex 2.77022 -10.1868 2
      vertex 0.213596 -10.6208 4
    endloop
  endfacet
  facet normal -0.53916 -0.391721 0.745561
    outer loop
      vertex 9.5869 -7.26123 4
      vertex 8.47448 -5.73011 4
      vertex 6.71027 -7.10846 2
    endloop
  endfacet
  facet normal -0.539171 -0.391706 0.745561
    outer loop
      vertex 9.5869 -7.26123 4
      vertex 7.73594 -8.52018 2
      vertex 9.592 -7.26825 4
    endloop
  endfacet
  facet normal -0.53916 -0.391721 0.745561
    outer loop
      vertex 7.73594 -8.52018 2
      vertex 9.5869 -7.26123 4
      vertex 6.71027 -7.10846 2
    endloop
  endfacet
  facet normal 0.539154 0.39174 0.745555
    outer loop
      vertex 2.77022 -10.1868 2
      vertex 1.01009 -11.5707 4
      vertex 3.59075 -11.3161 2
    endloop
  endfacet
  facet normal 0.53863 0.39243 0.745571
    outer loop
      vertex 1.01009 -11.5707 4
      vertex 2.77022 -10.1868 2
      vertex 1.00601 -11.5651 4
    endloop
  endfacet
  facet normal 0.539167 0.391699 0.745567
    outer loop
      vertex 1.73469 -12.5681 4
      vertex 3.59075 -11.3161 2
      vertex 1.01009 -11.5707 4
    endloop
  endfacet
  facet normal -0.565173 -0.353156 0.745561
    outer loop
      vertex 10.5949 -8.87324 4
      vertex 9.592 -7.26825 4
      vertex 7.73594 -8.52018 2
    endloop
  endfacet
  facet normal -0.564925 -0.353569 0.745553
    outer loop
      vertex 10.5949 -8.87324 4
      vertex 8.66053 -9.99984 2
      vertex 10.5994 -8.88043 4
    endloop
  endfacet
  facet normal -0.565173 -0.353157 0.74556
    outer loop
      vertex 8.66053 -9.99984 2
      vertex 10.5949 -8.87324 4
      vertex 7.73594 -8.52018 2
    endloop
  endfacet
  facet normal 0.553019 0.345566 0.758125
    outer loop
      vertex 3.59075 -11.3161 2
      vertex 4.33011 -12.5 2.00031
      vertex 4.33041 -12.4998 2
    endloop
  endfacet
  facet normal 0.565168 0.35315 0.745567
    outer loop
      vertex 3.59075 -11.3161 2
      vertex 1.73837 -12.574 4
      vertex 4.33011 -12.5 2.00031
    endloop
  endfacet
  facet normal 0.565465 0.352697 0.745557
    outer loop
      vertex 1.73837 -12.574 4
      vertex 3.59075 -11.3161 2
      vertex 1.73469 -12.5681 4
    endloop
  endfacet
  facet normal 0.56516 0.353182 0.745558
    outer loop
      vertex 2.39154 -13.6192 4
      vertex 4.33011 -12.5 2.00031
      vertex 1.73837 -12.574 4
    endloop
  endfacet
  facet normal 0.564385 -0.354473 0.745533
    outer loop
      vertex 2.38796 13.6135 4
      vertex 4.33041 12.4998 2
      vertex 2.39154 13.6192 4
    endloop
  endfacet
  facet normal 0.565169 -0.353158 0.745562
    outer loop
      vertex 4.33041 12.4998 2
      vertex 2.38796 13.6135 4
      vertex 3.59075 11.3161 2
    endloop
  endfacet
  facet normal 0.565158 -0.353167 0.745566
    outer loop
      vertex 3.59075 11.3161 2
      vertex 2.38796 13.6135 4
      vertex 1.73469 12.5681 4
    endloop
  endfacet
  facet normal -0.565172 0.353158 0.74556
    outer loop
      vertex 10.5994 8.88043 4
      vertex 8.66073 9.99973 2.0002
      vertex 9.5966 7.27561 4
    endloop
  endfacet
  facet normal -0.565171 0.353158 0.745561
    outer loop
      vertex 7.73594 8.52018 2
      vertex 9.5966 7.27561 4
      vertex 8.66073 9.99973 2.0002
    endloop
  endfacet
  facet normal -0.559373 0.349534 0.751617
    outer loop
      vertex 7.73594 8.52018 2
      vertex 8.66073 9.99973 2.0002
      vertex 8.66053 9.99984 2
    endloop
  endfacet
  facet normal -0.565137 0.353211 0.745562
    outer loop
      vertex 9.5966 7.27561 4
      vertex 7.73594 8.52018 2
      vertex 9.592 7.26825 4
    endloop
  endfacet
  facet normal 0.538648 -0.392444 0.745551
    outer loop
      vertex 1.73061 12.5625 4
      vertex 3.59075 11.3161 2
      vertex 1.73469 12.5681 4
    endloop
  endfacet
  facet normal 0.539143 -0.391732 0.745568
    outer loop
      vertex 3.59075 11.3161 2
      vertex 1.73061 12.5625 4
      vertex 2.77022 10.1868 2
    endloop
  endfacet
  facet normal 0.539178 -0.391707 0.745556
    outer loop
      vertex 2.77022 10.1868 2
      vertex 1.73061 12.5625 4
      vertex 1.00601 11.5651 4
    endloop
  endfacet
  facet normal -0.53916 0.391721 0.745561
    outer loop
      vertex 9.592 7.26825 4
      vertex 7.73594 8.52018 2
      vertex 8.47958 5.73713 4
    endloop
  endfacet
  facet normal -0.53916 0.391721 0.745561
    outer loop
      vertex 6.71027 7.10846 2
      vertex 8.47958 5.73713 4
      vertex 7.73594 8.52018 2
    endloop
  endfacet
  facet normal -0.539172 0.391706 0.74556
    outer loop
      vertex 8.47958 5.73713 4
      vertex 6.71027 7.10846 2
      vertex 8.47448 5.73011 4
    endloop
  endfacet
  facet normal 0.509471 -0.429686 0.745526
    outer loop
      vertex 1.00154 11.5598 4
      vertex 2.77022 10.1868 2
      vertex 1.00601 11.5651 4
    endloop
  endfacet
  facet normal 0.510528 -0.428373 0.745559
    outer loop
      vertex 2.77022 10.1868 2
      vertex 1.00154 11.5598 4
      vertex 1.8729 9.11739 2
    endloop
  endfacet
  facet normal 0.510535 -0.428369 0.745556
    outer loop
      vertex 1.8729 9.11739 2
      vertex 1.00154 11.5598 4
      vertex 0.209134 10.6154 4
    endloop
  endfacet
  facet normal -0.510521 0.428378 0.745561
    outer loop
      vertex 8.47448 5.73011 4
      vertex 6.71027 7.10846 2
      vertex 7.25796 4.28032 4
    endloop
  endfacet
  facet normal -0.510521 0.428378 0.74556
    outer loop
      vertex 5.58862 5.77173 2
      vertex 7.25796 4.28032 4
      vertex 6.71027 7.10846 2
    endloop
  endfacet
  facet normal -0.510198 0.42875 0.745568
    outer loop
      vertex 7.25796 4.28032 4
      vertex 5.58862 5.77173 2
      vertex 7.25238 4.27368 4
    endloop
  endfacet
  facet normal 0.475111 -0.467548 0.745432
    outer loop
      vertex 0.204312 10.6105 4
      vertex 1.8729 9.11739 2
      vertex 0.209134 10.6154 4
    endloop
  endfacet
  facet normal 0.479392 -0.462942 0.745566
    outer loop
      vertex 1.8729 9.11739 2
      vertex 0.204312 10.6105 4
      vertex 0.903167 8.1132 2
    endloop
  endfacet
  facet normal 0.479408 -0.462933 0.74556
    outer loop
      vertex 0.903167 8.1132 2
      vertex 0.204312 10.6105 4
      vertex -0.652042 9.72367 4
    endloop
  endfacet
  facet normal -0.479398 0.462946 0.745559
    outer loop
      vertex 7.25238 4.27368 4
      vertex 5.58862 5.77173 2
      vertex 5.9377 2.91228 4
    endloop
  endfacet
  facet normal -0.479396 0.462947 0.74556
    outer loop
      vertex 4.37646 4.5165 2
      vertex 5.9377 2.91228 4
      vertex 5.58862 5.77173 2
    endloop
  endfacet
  facet normal -0.479235 0.463107 0.745564
    outer loop
      vertex 5.9377 2.91228 4
      vertex 4.37646 4.5165 2
      vertex 5.93167 2.90604 4
    endloop
  endfacet
  facet normal 0.445664 -0.495513 0.745554
    outer loop
      vertex -0.657201 9.71903 4
      vertex 0.903167 8.1132 2
      vertex -0.652042 9.72367 4
    endloop
  endfacet
  facet normal 0.445933 -0.49526 0.745561
    outer loop
      vertex 0.903167 8.1132 2
      vertex -0.657201 9.71903 4
      vertex -0.134248 7.17911 2
    endloop
  endfacet
  facet normal 0.445935 -0.495259 0.745561
    outer loop
      vertex -0.134248 7.17911 2
      vertex -0.657201 9.71903 4
      vertex -1.57333 8.89414 4
    endloop
  endfacet
  facet normal -0.445936 0.495259 0.74556
    outer loop
      vertex 5.93167 2.90604 4
      vertex 4.37646 4.5165 2
      vertex 4.52522 1.63966 4
    endloop
  endfacet
  facet normal -0.445932 0.495261 0.745561
    outer loop
      vertex 3.07969 3.34889 2
      vertex 4.52522 1.63966 4
      vertex 4.37646 4.5165 2
    endloop
  endfacet
  facet normal -0.445606 0.495544 0.745568
    outer loop
      vertex 4.52522 1.63966 4
      vertex 3.07969 3.34889 2
      vertex 4.51877 1.63386 4
    endloop
  endfacet
  facet normal 0.410087 -0.525334 0.745556
    outer loop
      vertex -1.5788 8.88987 4
      vertex -0.134248 7.17911 2
      vertex -1.57333 8.89414 4
    endloop
  endfacet
  facet normal 0.410301 -0.525159 0.745561
    outer loop
      vertex -0.134248 7.17911 2
      vertex -1.5788 8.88987 4
      vertex -1.23429 6.31966 2
    endloop
  endfacet
  facet normal 0.410299 -0.52516 0.745562
    outer loop
      vertex -1.23429 6.31966 2
      vertex -1.5788 8.88987 4
      vertex -2.55024 8.1309 4
    endloop
  endfacet
  facet normal -0.410301 0.52516 0.74556
    outer loop
      vertex 4.51877 1.63386 4
      vertex 3.07969 3.34889 2
      vertex 3.02741 0.46868 4
    endloop
  endfacet
  facet normal -0.410302 0.52516 0.74556
    outer loop
      vertex 1.70463 2.27457 2
      vertex 3.02741 0.46868 4
      vertex 3.07969 3.34889 2
    endloop
  endfacet
  facet normal -0.410204 0.525233 0.745562
    outer loop
      vertex 3.02741 0.46868 4
      vertex 1.70463 2.27457 2
      vertex 3.02057 0.463338 4
    endloop
  endfacet
  facet normal 0.372769 -0.552429 0.745564
    outer loop
      vertex -2.55599 8.12702 4
      vertex -1.23429 6.31966 2
      vertex -2.55024 8.1309 4
    endloop
  endfacet
  facet normal 0.372666 -0.552502 0.745561
    outer loop
      vertex -1.23429 6.31966 2
      vertex -2.55599 8.12702 4
      vertex -2.39161 5.53904 2
    endloop
  endfacet
  facet normal 0.37267 -0.552501 0.74556
    outer loop
      vertex -2.39161 5.53904 2
      vertex -2.55599 8.12702 4
      vertex -3.578 7.43766 4
    endloop
  endfacet
  facet normal -0.372667 0.552504 0.74556
    outer loop
      vertex 1.70463 2.27457 2
      vertex 2.33364 2.05233e-09 4
      vertex 3.02057 0.463338 4
    endloop
  endfacet
  facet normal -0.372667 0.552503 0.74556
    outer loop
      vertex 2.33364 2.05233e-09 4
      vertex 1.70463 2.27457 2
      vertex 1.50403 8.7205e-08 3.58532
    endloop
  endfacet
  facet normal -0.372666 0.552504 0.74556
    outer loop
      vertex 0.257981 1.2988 2
      vertex 1.50403 8.7205e-08 3.58532
      vertex 1.70463 2.27457 2
    endloop
  endfacet
  facet normal -0.372669 0.552501 0.745561
    outer loop
      vertex 1.50403 8.7205e-08 3.58532
      vertex 0.257981 1.2988 2
      vertex 1.06956 0 3.36815
    endloop
  endfacet
  facet normal 0.332817 -0.577395 0.745552
    outer loop
      vertex -3.58402 7.43419 4
      vertex -2.39161 5.53904 2
      vertex -3.578 7.43766 4
    endloop
  endfacet
  facet normal 0.333217 -0.577152 0.745561
    outer loop
      vertex -2.39161 5.53904 2
      vertex -3.58402 7.43419 4
      vertex -3.60057 4.84105 2
    endloop
  endfacet
  facet normal 0.333221 -0.577152 0.74556
    outer loop
      vertex -3.60057 4.84105 2
      vertex -3.58402 7.43419 4
      vertex -4.65163 6.8178 4
    endloop
  endfacet
  facet normal -0.33322 0.577151 0.745561
    outer loop
      vertex 1.06956 0 3.36815
      vertex 0.257981 1.2988 2
      vertex 0.051345 -1.59867e-07 2.91307
    endloop
  endfacet
  facet normal -0.333213 0.577152 0.745563
    outer loop
      vertex 0.257981 1.2988 2
      vertex -0.140319 -1.44868e-07 2.82741
      vertex 0.051345 -1.59867e-07 2.91307
    endloop
  endfacet
  facet normal -0.33322 0.577152 0.74556
    outer loop
      vertex -1.25321 0.42631 2
      vertex -0.140319 -1.44868e-07 2.82741
      vertex 0.257981 1.2988 2
    endloop
  endfacet
  facet normal -0.333223 0.577148 0.745562
    outer loop
      vertex -0.140319 -1.44868e-07 2.82741
      vertex -1.25321 0.42631 2
      vertex -1.02654 0 2.43132
    endloop
  endfacet
  facet normal 0.291882 -0.599127 0.745555
    outer loop
      vertex -4.65787 6.81476 4
      vertex -3.60057 4.84105 2
      vertex -4.65163 6.8178 4
    endloop
  endfacet
  facet normal 0.292148 -0.59899 0.74556
    outer loop
      vertex -3.60057 4.84105 2
      vertex -4.65787 6.81476 4
      vertex -4.85527 4.22909 2
    endloop
  endfacet
  facet normal 0.292148 -0.59899 0.74556
    outer loop
      vertex -4.85527 4.22909 2
      vertex -4.65787 6.81476 4
      vertex -5.76587 6.27435 4
    endloop
  endfacet
  facet normal -0.292153 0.598985 0.745562
    outer loop
      vertex -1.02654 0 2.43132
      vertex -1.25321 0.42631 2
      vertex -1.35194 -5.7025e-08 2.30381
    endloop
  endfacet
  facet normal -0.292143 0.598986 0.745566
    outer loop
      vertex -1.35194 -5.7025e-08 2.30381
      vertex -1.25321 0.42631 2
      vertex -2.12728 0 2
    endloop
  endfacet
  facet normal 0.249494 -0.617978 0.745557
    outer loop
      vertex -5.77231 6.27175 4
      vertex -4.85527 4.22909 2
      vertex -5.76587 6.27435 4
    endloop
  endfacet
  facet normal 0.249651 -0.617911 0.745561
    outer loop
      vertex -4.85527 4.22909 2
      vertex -5.77231 6.27175 4
      vertex -6.1496 3.70615 2
    endloop
  endfacet
  facet normal 0.249654 -0.617911 0.74556
    outer loop
      vertex -6.1496 3.70615 2
      vertex -5.77231 6.27175 4
      vertex -6.91532 5.80994 4
    endloop
  endfacet
  facet normal 0.205555 -0.633955 0.745553
    outer loop
      vertex -6.92192 5.8078 4
      vertex -6.1496 3.70615 2
      vertex -6.91532 5.80994 4
    endloop
  endfacet
  facet normal 0.205941 -0.63382 0.74556
    outer loop
      vertex -6.1496 3.70615 2
      vertex -6.92192 5.8078 4
      vertex -7.47725 3.27477 2
    endloop
  endfacet
  facet normal 0.205943 -0.63382 0.74556
    outer loop
      vertex -7.47725 3.27477 2
      vertex -6.92192 5.8078 4
      vertex -8.09435 5.42685 4
    endloop
  endfacet
  facet normal 0.161184 -0.646654 0.745559
    outer loop
      vertex -8.10109 5.42517 4
      vertex -7.47725 3.27477 2
      vertex -8.09435 5.42685 4
    endloop
  endfacet
  facet normal 0.161226 -0.646643 0.74556
    outer loop
      vertex -7.47725 3.27477 2
      vertex -8.10109 5.42517 4
      vertex -8.83177 2.93705 2
    endloop
  endfacet
  facet normal 0.161224 -0.646642 0.74556
    outer loop
      vertex -8.83177 2.93705 2
      vertex -8.10109 5.42517 4
      vertex -9.29724 5.12694 4
    endloop
  endfacet
  facet normal 0.11609 -0.656242 0.745567
    outer loop
      vertex -9.30408 5.12573 4
      vertex -8.83177 2.93705 2
      vertex -9.29724 5.12694 4
    endloop
  endfacet
  facet normal 0.11573 -0.656313 0.74556
    outer loop
      vertex -8.83177 2.93705 2
      vertex -9.30408 5.12573 4
      vertex -10.2065 2.69464 2
    endloop
  endfacet
  facet normal 0.115729 -0.656313 0.74556
    outer loop
      vertex -10.2065 2.69464 2
      vertex -9.30408 5.12573 4
      vertex -10.5181 4.91166 4
    endloop
  endfacet
  facet normal 0.0691669 -0.662849 0.745551
    outer loop
      vertex -10.525 4.91094 4
      vertex -10.2065 2.69464 2
      vertex -10.5181 4.91166 4
    endloop
  endfacet
  facet normal 0.0696585 -0.662787 0.745561
    outer loop
      vertex -10.2065 2.69464 2
      vertex -10.525 4.91094 4
      vertex -11.5949 2.54872 2
    endloop
  endfacet
  facet normal 0.069663 -0.662788 0.745559
    outer loop
      vertex -11.5949 2.54872 2
      vertex -10.525 4.91094 4
      vertex -11.751 4.78208 4
    endloop
  endfacet
  facet normal 0.0237858 -0.666004 0.745569
    outer loop
      vertex -11.758 4.78183 4
      vertex -11.5949 2.54872 2
      vertex -11.751 4.78208 4
    endloop
  endfacet
  facet normal 0.0232594 -0.666033 0.745559
    outer loop
      vertex -11.5949 2.54872 2
      vertex -11.758 4.78183 4
      vertex -12.99 2.5 2
    endloop
  endfacet
  facet normal 0.0232571 -0.666032 0.74556
    outer loop
      vertex -12.99 2.5 2
      vertex -11.758 4.78183 4
      vertex -12.99 4.73881 4
    endloop
  endfacet
  facet normal -0.0332921 -0.665842 0.74535
    outer loop
      vertex -12.9904 2.50001 2
      vertex -12.99 4.73881 4
      vertex -12.9904 4.73883 4
    endloop
  endfacet
  facet normal -0.016653 -0.66612 0.745658
    outer loop
      vertex -12.99 4.73881 4
      vertex -12.9904 2.50001 2
      vertex -12.99 2.5 2
    endloop
  endfacet
endsolid OpenSCAD_Model
