solid OpenSCAD_Model
  facet normal -1 0 0
    outer loop
      vertex -12.9904 7.5 0
      vertex -12.9904 4.73883 4
      vertex -12.9904 7.5 4
    endloop
  endfacet
  facet normal -1 0 0
    outer loop
      vertex -12.9904 7.5 0
      vertex -12.9904 2.50001 2
      vertex -12.9904 4.73883 4
    endloop
  endfacet
  facet normal -1 0 0
    outer loop
      vertex -12.9904 7.5 0
      vertex -12.9904 -2.5 2
      vertex -12.9904 2.50001 2
    endloop
  endfacet
  facet normal -1 0 0
    outer loop
      vertex -12.9904 -7.5 0
      vertex -12.9904 -2.5 2
      vertex -12.9904 7.5 0
    endloop
  endfacet
  facet normal -1 0 0
    outer loop
      vertex -12.9904 -7.5 0
      vertex -12.9904 -4.73881 4
      vertex -12.9904 -2.5 2
    endloop
  endfacet
  facet normal -1 -0 0
    outer loop
      vertex -12.9904 -4.73881 4
      vertex -12.9904 -7.5 0
      vertex -12.9904 -7.5 4
    endloop
  endfacet
  facet normal -0.499992 -0.86603 0
    outer loop
      vertex -12.9904 -7.5 0
      vertex -10.5991 -8.88059 4
      vertex -12.9904 -7.5 4
    endloop
  endfacet
  facet normal -0.5 -0.866026 5e-06
    outer loop
      vertex -8.66025 -10 2
      vertex -12.9904 -7.5 0
      vertex -4.33012 -12.5 2
    endloop
  endfacet
  facet normal -0.5 -0.866025 6.09295e-06
    outer loop
      vertex -10.5991 -8.88059 4
      vertex -12.9904 -7.5 0
      vertex -8.66025 -10 2
    endloop
  endfacet
  facet normal -0.49999 -0.866031 1.05718e-05
    outer loop
      vertex 0 -15 0
      vertex -2.39125 -13.6194 4
      vertex -4.32951 -12.5004 2.00062
    endloop
  endfacet
  facet normal -0.515125 -0.855913 -0.0453853
    outer loop
      vertex 0 -15 0
      vertex -4.32951 -12.5004 2.00062
      vertex -4.33012 -12.5 2
    endloop
  endfacet
  facet normal -0.500003 -0.866024 0
    outer loop
      vertex -2.39125 -13.6194 4
      vertex 0 -15 0
      vertex 0 -15 4
    endloop
  endfacet
  facet normal -0.499999 -0.866026 3.33333e-06
    outer loop
      vertex 0 -15 0
      vertex -4.33012 -12.5 2
      vertex -12.9904 -7.5 0
    endloop
  endfacet
  facet normal -0.499999 0.866026 0
    outer loop
      vertex 0 15 0
      vertex -12.9904 7.5 4
      vertex 0 15 4
    endloop
  endfacet
  facet normal -0.499999 0.866026 0
    outer loop
      vertex -12.9904 7.5 4
      vertex 0 15 0
      vertex -12.9904 7.5 0
    endloop
  endfacet
  facet normal 0 0 -1
    outer loop
      vertex 0 -15 0
      vertex 12.9904 7.5 0
      vertex 12.9904 -7.5 0
    endloop
  endfacet
  facet normal 0 0 -1
    outer loop
      vertex 0 -15 0
      vertex 0 15 0
      vertex 12.9904 7.5 0
    endloop
  endfacet
  facet normal 0 0 -1
    outer loop
      vertex -12.9904 -7.5 0
      vertex 0 15 0
      vertex 0 -15 0
    endloop
  endfacet
  facet normal 0 0 -1
    outer loop
      vertex 0 15 0
      vertex -12.9904 -7.5 0
      vertex -12.9904 7.5 0
    endloop
  endfacet
  facet normal -0 0 1
    outer loop
      vertex 12.9811 -4.73881 4
      vertex 12.9904 -7.5 4
      vertex 12.9904 -4.73881 4
    endloop
  endfacet
  facet normal -0 0 1
    outer loop
      vertex 11.7586 -4.7815 4
      vertex 12.9904 -7.5 4
      vertex 12.9811 -4.73881 4
    endloop
  endfacet
  facet normal -0 0 1
    outer loop
      vertex 11.7516 -4.78175 4
      vertex 12.9904 -7.5 4
      vertex 11.7586 -4.7815 4
    endloop
  endfacet
  facet normal -0 0 1
    outer loop
      vertex 10.5256 -4.91061 4
      vertex 12.9904 -7.5 4
      vertex 11.7516 -4.78175 4
    endloop
  endfacet
  facet normal -0 0 1
    outer loop
      vertex 10.5187 -4.91133 4
      vertex 12.9904 -7.5 4
      vertex 10.5256 -4.91061 4
    endloop
  endfacet
  facet normal -0 0 1
    outer loop
      vertex 9.30465 -5.1254 4
      vertex 12.9904 -7.5 4
      vertex 10.5187 -4.91133 4
    endloop
  endfacet
  facet normal -0 0 1
    outer loop
      vertex 9.29781 -5.12661 4
      vertex 12.9904 -7.5 4
      vertex 9.30465 -5.1254 4
    endloop
  endfacet
  facet normal -0 0 1
    outer loop
      vertex 8.10166 -5.42484 4
      vertex 12.9904 -7.5 4
      vertex 9.29781 -5.12661 4
    endloop
  endfacet
  facet normal -0 0 1
    outer loop
      vertex 8.09492 -5.42652 4
      vertex 12.9904 -7.5 4
      vertex 8.10166 -5.42484 4
    endloop
  endfacet
  facet normal -0 0 1
    outer loop
      vertex 6.92249 -5.80747 4
      vertex 12.9904 -7.5 4
      vertex 8.09492 -5.42652 4
    endloop
  endfacet
  facet normal -0 0 1
    outer loop
      vertex 6.91589 -5.80961 4
      vertex 12.9904 -7.5 4
      vertex 6.92249 -5.80747 4
    endloop
  endfacet
  facet normal -0 0 1
    outer loop
      vertex 5.77288 -6.27142 4
      vertex 12.9904 -7.5 4
      vertex 6.91589 -5.80961 4
    endloop
  endfacet
  facet normal -0 0 1
    outer loop
      vertex 5.76645 -6.27402 4
      vertex 12.9904 -7.5 4
      vertex 5.77288 -6.27142 4
    endloop
  endfacet
  facet normal -0 0 1
    outer loop
      vertex 4.65844 -6.81443 4
      vertex 12.9904 -7.5 4
      vertex 5.76645 -6.27402 4
    endloop
  endfacet
  facet normal -0 0 1
    outer loop
      vertex 4.6522 -6.81747 4
      vertex 12.9904 -7.5 4
      vertex 4.65844 -6.81443 4
    endloop
  endfacet
  facet normal -0 0 1
    outer loop
      vertex 3.58459 -7.43386 4
      vertex 12.9904 -7.5 4
      vertex 4.6522 -6.81747 4
    endloop
  endfacet
  facet normal 0 0 1
    outer loop
      vertex 0 -15 4
      vertex 3.58459 -7.43386 4
      vertex 3.57858 -7.43733 4
    endloop
  endfacet
  facet normal 0 0 1
    outer loop
      vertex 0 -15 4
      vertex 3.57858 -7.43733 4
      vertex 2.55656 -8.12669 4
    endloop
  endfacet
  facet normal 0 0 1
    outer loop
      vertex 0 -15 4
      vertex 2.55656 -8.12669 4
      vertex 2.55081 -8.13057 4
    endloop
  endfacet
  facet normal 0 0 1
    outer loop
      vertex 0 -15 4
      vertex 2.55081 -8.13057 4
      vertex 1.57937 -8.88954 4
    endloop
  endfacet
  facet normal 0 0 1
    outer loop
      vertex 0 -15 4
      vertex 1.57937 -8.88954 4
      vertex 1.5739 -8.89381 4
    endloop
  endfacet
  facet normal 0 0 1
    outer loop
      vertex 0 -15 4
      vertex 1.5739 -8.89381 4
      vertex 0.657772 -9.7187 4
    endloop
  endfacet
  facet normal 0 0 1
    outer loop
      vertex 0 -15 4
      vertex 0.657772 -9.7187 4
      vertex 0.652613 -9.72334 4
    endloop
  endfacet
  facet normal 0 0 1
    outer loop
      vertex 3.58459 -7.43386 4
      vertex 0 -15 4
      vertex 12.9904 -7.5 4
    endloop
  endfacet
  facet normal -0 0 1
    outer loop
      vertex -0.203741 -10.6101 4
      vertex 0 -15 4
      vertex 0.652613 -9.72334 4
    endloop
  endfacet
  facet normal -0 0 1
    outer loop
      vertex -0.208563 -10.6151 4
      vertex 0 -15 4
      vertex -0.203741 -10.6101 4
    endloop
  endfacet
  facet normal -0 0 1
    outer loop
      vertex -1.00097 -11.5595 4
      vertex 0 -15 4
      vertex -0.208563 -10.6151 4
    endloop
  endfacet
  facet normal -0 0 1
    outer loop
      vertex -1.00544 -11.5648 4
      vertex 0 -15 4
      vertex -1.00097 -11.5595 4
    endloop
  endfacet
  facet normal -0 0 1
    outer loop
      vertex -1.73004 -12.5621 4
      vertex 0 -15 4
      vertex -1.00544 -11.5648 4
    endloop
  endfacet
  facet normal -0 0 1
    outer loop
      vertex -1.73412 -12.5677 4
      vertex 0 -15 4
      vertex -1.73004 -12.5621 4
    endloop
  endfacet
  facet normal -0 0 1
    outer loop
      vertex -2.38739 -13.6132 4
      vertex 0 -15 4
      vertex -1.73412 -12.5677 4
    endloop
  endfacet
  facet normal 0 0 1
    outer loop
      vertex -2.39125 -13.6194 4
      vertex -2.38739 -13.6132 4
      vertex -2.39107 -13.6191 4
    endloop
  endfacet
  facet normal 0 0 1
    outer loop
      vertex -2.38739 -13.6132 4
      vertex -2.39125 -13.6194 4
      vertex 0 -15 4
    endloop
  endfacet
  facet normal 0 0 1
    outer loop
      vertex 0 15 4
      vertex 2.38664 13.6114 4
      vertex 2.39126 13.6194 4
    endloop
  endfacet
  facet normal 0 0 1
    outer loop
      vertex 2.38664 13.6114 4
      vertex 0 15 4
      vertex 1.73469 12.5681 4
    endloop
  endfacet
  facet normal 0 0 1
    outer loop
      vertex 1.73469 12.5681 4
      vertex 0 15 4
      vertex 1.73061 12.5625 4
    endloop
  endfacet
  facet normal 0 0 1
    outer loop
      vertex 1.73061 12.5625 4
      vertex 0 15 4
      vertex 1.00601 11.5651 4
    endloop
  endfacet
  facet normal 0 0 1
    outer loop
      vertex 1.00601 11.5651 4
      vertex 0 15 4
      vertex 1.00154 11.5598 4
    endloop
  endfacet
  facet normal 0 0 1
    outer loop
      vertex 1.00154 11.5598 4
      vertex 0 15 4
      vertex 0.209134 10.6154 4
    endloop
  endfacet
  facet normal 0 0 1
    outer loop
      vertex 0.209134 10.6154 4
      vertex 0 15 4
      vertex 0.204312 10.6105 4
    endloop
  endfacet
  facet normal 0 0 1
    outer loop
      vertex 0 15 4
      vertex -0.652042 9.72367 4
      vertex 0.204312 10.6105 4
    endloop
  endfacet
  facet normal 0 0 1
    outer loop
      vertex 0 15 4
      vertex -0.657201 9.71903 4
      vertex -0.652042 9.72367 4
    endloop
  endfacet
  facet normal 0 0 1
    outer loop
      vertex 0 15 4
      vertex -1.57333 8.89414 4
      vertex -0.657201 9.71903 4
    endloop
  endfacet
  facet normal 0 0 1
    outer loop
      vertex 0 15 4
      vertex -1.5788 8.88987 4
      vertex -1.57333 8.89414 4
    endloop
  endfacet
  facet normal 0 0 1
    outer loop
      vertex 0 15 4
      vertex -2.55024 8.1309 4
      vertex -1.5788 8.88987 4
    endloop
  endfacet
  facet normal 0 0 1
    outer loop
      vertex 0 15 4
      vertex -2.55599 8.12702 4
      vertex -2.55024 8.1309 4
    endloop
  endfacet
  facet normal 0 0 1
    outer loop
      vertex 0 15 4
      vertex -3.578 7.43766 4
      vertex -2.55599 8.12702 4
    endloop
  endfacet
  facet normal 0 0 1
    outer loop
      vertex 0 15 4
      vertex -3.58402 7.43419 4
      vertex -3.578 7.43766 4
    endloop
  endfacet
  facet normal 0 0 1
    outer loop
      vertex 0 15 4
      vertex -4.65163 6.8178 4
      vertex -3.58402 7.43419 4
    endloop
  endfacet
  facet normal 0 0 1
    outer loop
      vertex 0 15 4
      vertex -4.65787 6.81476 4
      vertex -4.65163 6.8178 4
    endloop
  endfacet
  facet normal -0 0 1
    outer loop
      vertex -12.9904 7.5 4
      vertex -4.65787 6.81476 4
      vertex 0 15 4
    endloop
  endfacet
  facet normal 0 0 1
    outer loop
      vertex -4.65787 6.81476 4
      vertex -12.9904 7.5 4
      vertex -5.76587 6.27435 4
    endloop
  endfacet
  facet normal 0 0 1
    outer loop
      vertex -5.76587 6.27435 4
      vertex -12.9904 7.5 4
      vertex -5.77231 6.27175 4
    endloop
  endfacet
  facet normal 0 0 1
    outer loop
      vertex -5.77231 6.27175 4
      vertex -12.9904 7.5 4
      vertex -6.91532 5.80994 4
    endloop
  endfacet
  facet normal 0 0 1
    outer loop
      vertex -6.91532 5.80994 4
      vertex -12.9904 7.5 4
      vertex -6.92192 5.8078 4
    endloop
  endfacet
  facet normal 0 0 1
    outer loop
      vertex -6.92192 5.8078 4
      vertex -12.9904 7.5 4
      vertex -8.09435 5.42685 4
    endloop
  endfacet
  facet normal 0 0 1
    outer loop
      vertex -8.09435 5.42685 4
      vertex -12.9904 7.5 4
      vertex -8.10109 5.42517 4
    endloop
  endfacet
  facet normal 0 0 1
    outer loop
      vertex -8.10109 5.42517 4
      vertex -12.9904 7.5 4
      vertex -9.29724 5.12694 4
    endloop
  endfacet
  facet normal 0 0 1
    outer loop
      vertex -9.29724 5.12694 4
      vertex -12.9904 7.5 4
      vertex -9.30408 5.12573 4
    endloop
  endfacet
  facet normal 0 0 1
    outer loop
      vertex -9.30408 5.12573 4
      vertex -12.9904 7.5 4
      vertex -10.5181 4.91166 4
    endloop
  endfacet
  facet normal 0 0 1
    outer loop
      vertex -10.5181 4.91166 4
      vertex -12.9904 7.5 4
      vertex -10.525 4.91094 4
    endloop
  endfacet
  facet normal 0 0 1
    outer loop
      vertex -10.525 4.91094 4
      vertex -12.9904 7.5 4
      vertex -11.751 4.78208 4
    endloop
  endfacet
  facet normal 0 0 1
    outer loop
      vertex -11.751 4.78208 4
      vertex -12.9904 7.5 4
      vertex -11.758 4.78183 4
    endloop
  endfacet
  facet normal 0 0 1
    outer loop
      vertex -11.758 4.78183 4
      vertex -12.9904 7.5 4
      vertex -12.99 4.73881 4
    endloop
  endfacet
  facet normal 0 0 1
    outer loop
      vertex -12.99 4.73881 4
      vertex -12.9904 7.5 4
      vertex -12.9904 4.73883 4
    endloop
  endfacet
  facet normal 0 0 0
    outer loop
      vertex -10.5989 -8.88024 4
      vertex -10.5989 -8.88028 4
      vertex -10.5989 -8.88026 4
    endloop
  endfacet
  facet normal 0 0 1
    outer loop
      vertex -10.5989 -8.88024 4
      vertex -10.5991 -8.88059 4
      vertex -10.5989 -8.88028 4
    endloop
  endfacet
  facet normal -0 0 1
    outer loop
      vertex -12.9904 -4.73881 4
      vertex -10.5989 -8.88024 4
      vertex -8.20786 -4.73881 4
    endloop
  endfacet
  facet normal -0 0 1
    outer loop
      vertex -12.9904 -7.5 4
      vertex -10.5989 -8.88024 4
      vertex -12.9904 -4.73881 4
    endloop
  endfacet
  facet normal 0 0 1
    outer loop
      vertex -10.5989 -8.88024 4
      vertex -12.9904 -7.5 4
      vertex -10.5991 -8.88059 4
    endloop
  endfacet
  facet normal 0 0 1
    outer loop
      vertex 12.9904 7.5 4
      vertex 12.9819 4.73884 4
      vertex 12.9904 4.73914 4
    endloop
  endfacet
  facet normal 0 0 1
    outer loop
      vertex 12.9904 7.5 4
      vertex 12.9811 4.73881 4
      vertex 12.9819 4.73884 4
    endloop
  endfacet
  facet normal -0 0 1
    outer loop
      vertex 10.5945 8.87257 4
      vertex 12.9904 7.5 4
      vertex 10.5994 8.88043 4
    endloop
  endfacet
  facet normal 0 0 1
    outer loop
      vertex 12.9904 7.5 4
      vertex 10.5945 8.87257 4
      vertex 12.9811 4.73881 4
    endloop
  endfacet
  facet normal 0 0 1
    outer loop
      vertex 12.9811 4.73881 4
      vertex 10.5945 8.87257 4
      vertex 8.20786 4.73881 4
    endloop
  endfacet
  facet normal 0.499996 0.866028 -0
    outer loop
      vertex 12.9904 7.5 0
      vertex 10.5994 8.88043 4
      vertex 12.9904 7.5 4
    endloop
  endfacet
  facet normal 0.5 0.866025 3.3209e-06
    outer loop
      vertex 10.5994 8.88043 4
      vertex 12.9904 7.5 0
      vertex 8.66073 9.99973 2.0002
    endloop
  endfacet
  facet normal 0.5 0.866025 6.06394e-06
    outer loop
      vertex 8.66053 9.99984 2
      vertex 12.9904 7.5 0
      vertex 4.33013 12.5 2
    endloop
  endfacet
  facet normal 0.494289 0.869146 -0.0162589
    outer loop
      vertex 8.66073 9.99973 2.0002
      vertex 12.9904 7.5 0
      vertex 8.66053 9.99984 2
    endloop
  endfacet
  facet normal 0.499999 0.866026 1.89796e-06
    outer loop
      vertex 0 15 0
      vertex 2.39126 13.6194 4
      vertex 4.33013 12.5 2
    endloop
  endfacet
  facet normal 0.500001 0.866025 0
    outer loop
      vertex 2.39126 13.6194 4
      vertex 0 15 0
      vertex 0 15 4
    endloop
  endfacet
  facet normal 0.499999 0.866026 8.33332e-07
    outer loop
      vertex 0 15 0
      vertex 4.33013 12.5 2
      vertex 12.9904 7.5 0
    endloop
  endfacet
  facet normal 1 -0 0
    outer loop
      vertex 12.9904 4.73914 4
      vertex 12.9904 7.5 0
      vertex 12.9904 7.5 4
    endloop
  endfacet
  facet normal 1 -0 0
    outer loop
      vertex 12.9904 2.50032 2
      vertex 12.9904 7.5 0
      vertex 12.9904 4.73914 4
    endloop
  endfacet
  facet normal 1 -0 0
    outer loop
      vertex 12.9904 -2.5 2
      vertex 12.9904 7.5 0
      vertex 12.9904 2.50032 2
    endloop
  endfacet
  facet normal 1 0 0
    outer loop
      vertex 12.9904 -7.5 0
      vertex 12.9904 -4.73881 4
      vertex 12.9904 -7.5 4
    endloop
  endfacet
  facet normal 1 0 0
    outer loop
      vertex 12.9904 -2.5 2
      vertex 12.9904 -7.5 0
      vertex 12.9904 7.5 0
    endloop
  endfacet
  facet normal 1 0 0
    outer loop
      vertex 12.9904 -4.73881 4
      vertex 12.9904 -7.5 0
      vertex 12.9904 -2.5 2
    endloop
  endfacet
  facet normal 0.499999 -0.866026 0
    outer loop
      vertex 0 -15 0
      vertex 12.9904 -7.5 4
      vertex 0 -15 4
    endloop
  endfacet
  facet normal 0.499999 -0.866026 0
    outer loop
      vertex 12.9904 -7.5 4
      vertex 0 -15 0
      vertex 12.9904 -7.5 0
    endloop
  endfacet
  facet normal 0.718001 0 0.696043
    outer loop
      vertex -8.72519 -9.96207 2.06718
      vertex -10.5989 -8.88026 4
      vertex -10.5989 -8.88028 4
    endloop
  endfacet
  facet normal -0.555594 0.333356 0.761701
    outer loop
      vertex -4.32951 -12.5004 2.00062
      vertex -4.32994 -12.4997 2
      vertex -4.33012 -12.5 2
    endloop
  endfacet
  facet normal -0.571322 0.342793 0.74571
    outer loop
      vertex -2.39107 -13.6191 4
      vertex -4.32951 -12.5004 2.00062
      vertex -2.39125 -13.6194 4
    endloop
  endfacet
  facet normal -0.600404 0.290943 0.744894
    outer loop
      vertex -4.32951 -12.5004 2.00062
      vertex -2.39107 -13.6191 4
      vertex -4.32994 -12.4997 2
    endloop
  endfacet
  facet normal 0.718001 0 0.696043
    outer loop
      vertex -8.72519 -9.96207 2.06718
      vertex -10.5989 -8.88024 4
      vertex -10.5989 -8.88026 4
    endloop
  endfacet
  facet normal -0.565177 0.353151 0.745559
    outer loop
      vertex -4.32994 -12.4997 2
      vertex -2.38739 -13.6132 4
      vertex -3.59018 -11.3158 2
    endloop
  endfacet
  facet normal -0.565453 0.352689 0.74557
    outer loop
      vertex -2.38739 -13.6132 4
      vertex -4.32994 -12.4997 2
      vertex -2.39107 -13.6191 4
    endloop
  endfacet
  facet normal -0.565181 0.353148 0.745558
    outer loop
      vertex -1.73412 -12.5677 4
      vertex -3.59018 -11.3158 2
      vertex -2.38739 -13.6132 4
    endloop
  endfacet
  facet normal -0.539164 0.391718 0.74556
    outer loop
      vertex -3.59018 -11.3158 2
      vertex -1.73004 -12.5621 4
      vertex -2.76964 -10.1864 2
    endloop
  endfacet
  facet normal -0.538656 0.392449 0.745542
    outer loop
      vertex -1.73004 -12.5621 4
      vertex -3.59018 -11.3158 2
      vertex -1.73412 -12.5677 4
    endloop
  endfacet
  facet normal -0.539152 0.391727 0.745564
    outer loop
      vertex -1.00544 -11.5648 4
      vertex -2.76964 -10.1864 2
      vertex -1.73004 -12.5621 4
    endloop
  endfacet
  facet normal -0.510507 0.428384 0.745567
    outer loop
      vertex -2.76964 -10.1864 2
      vertex -1.00097 -11.5595 4
      vertex -1.87232 -9.11706 2
    endloop
  endfacet
  facet normal -0.509464 0.42968 0.745534
    outer loop
      vertex -1.00097 -11.5595 4
      vertex -2.76964 -10.1864 2
      vertex -1.00544 -11.5648 4
    endloop
  endfacet
  facet normal -0.510534 0.428368 0.745558
    outer loop
      vertex -0.208563 -10.6151 4
      vertex -1.87232 -9.11706 2
      vertex -1.00097 -11.5595 4
    endloop
  endfacet
  facet normal -0.4794 0.462946 0.745557
    outer loop
      vertex -1.87232 -9.11706 2
      vertex -0.203741 -10.6101 4
      vertex -0.902596 -8.11287 2
    endloop
  endfacet
  facet normal -0.4797 0.462623 0.745566
    outer loop
      vertex -0.203741 -10.6101 4
      vertex -1.87232 -9.11706 2
      vertex -0.208563 -10.6151 4
    endloop
  endfacet
  facet normal -0.47939 0.462952 0.745561
    outer loop
      vertex 0.652613 -9.72334 4
      vertex -0.902596 -8.11287 2
      vertex -0.203741 -10.6101 4
    endloop
  endfacet
  facet normal -0.445933 0.49526 0.745561
    outer loop
      vertex -0.902596 -8.11287 2
      vertex 0.657772 -9.7187 4
      vertex 0.134819 -7.17878 2
    endloop
  endfacet
  facet normal -0.445664 0.495513 0.745554
    outer loop
      vertex 0.657772 -9.7187 4
      vertex -0.902596 -8.11287 2
      vertex 0.652613 -9.72334 4
    endloop
  endfacet
  facet normal -0.445935 0.495259 0.74556
    outer loop
      vertex 1.5739 -8.89381 4
      vertex 0.134819 -7.17878 2
      vertex 0.657772 -9.7187 4
    endloop
  endfacet
  facet normal -0.410299 0.525161 0.745561
    outer loop
      vertex 0.134819 -7.17878 2
      vertex 1.57937 -8.88954 4
      vertex 1.23487 -6.31933 2
    endloop
  endfacet
  facet normal -0.410087 0.525334 0.745556
    outer loop
      vertex 1.57937 -8.88954 4
      vertex 0.134819 -7.17878 2
      vertex 1.5739 -8.89381 4
    endloop
  endfacet
  facet normal -0.410299 0.525161 0.745561
    outer loop
      vertex 2.55081 -8.13057 4
      vertex 1.23487 -6.31933 2
      vertex 1.57937 -8.88954 4
    endloop
  endfacet
  facet normal -0.372667 0.552503 0.74556
    outer loop
      vertex 1.23487 -6.31933 2
      vertex 2.55656 -8.12669 4
      vertex 2.39219 -5.53871 2
    endloop
  endfacet
  facet normal -0.37277 0.55243 0.745563
    outer loop
      vertex 2.55656 -8.12669 4
      vertex 1.23487 -6.31933 2
      vertex 2.55081 -8.13057 4
    endloop
  endfacet
  facet normal -0.372667 0.552503 0.74556
    outer loop
      vertex 3.57858 -7.43733 4
      vertex 2.39219 -5.53871 2
      vertex 2.55656 -8.12669 4
    endloop
  endfacet
  facet normal -0.33322 0.577152 0.74556
    outer loop
      vertex 2.39219 -5.53871 2
      vertex 3.58459 -7.43386 4
      vertex 3.60114 -4.84072 2
    endloop
  endfacet
  facet normal -0.333228 0.577147 0.745561
    outer loop
      vertex 3.58459 -7.43386 4
      vertex 2.39219 -5.53871 2
      vertex 3.57858 -7.43733 4
    endloop
  endfacet
  facet normal -0.333221 0.577152 0.74556
    outer loop
      vertex 4.6522 -6.81747 4
      vertex 3.60114 -4.84072 2
      vertex 3.58459 -7.43386 4
    endloop
  endfacet
  facet normal -0.292148 0.59899 0.74556
    outer loop
      vertex 3.60114 -4.84072 2
      vertex 4.65844 -6.81443 4
      vertex 4.85584 -4.22876 2
    endloop
  endfacet
  facet normal -0.291882 0.599127 0.745555
    outer loop
      vertex 4.65844 -6.81443 4
      vertex 3.60114 -4.84072 2
      vertex 4.6522 -6.81747 4
    endloop
  endfacet
  facet normal -0.292146 0.59899 0.745561
    outer loop
      vertex 5.76645 -6.27402 4
      vertex 4.85584 -4.22876 2
      vertex 4.65844 -6.81443 4
    endloop
  endfacet
  facet normal -0.249651 0.617911 0.745561
    outer loop
      vertex 4.85584 -4.22876 2
      vertex 5.77288 -6.27142 4
      vertex 6.15017 -3.70582 2
    endloop
  endfacet
  facet normal -0.249825 0.617836 0.745564
    outer loop
      vertex 5.77288 -6.27142 4
      vertex 4.85584 -4.22876 2
      vertex 5.76645 -6.27402 4
    endloop
  endfacet
  facet normal -0.249654 0.617911 0.74556
    outer loop
      vertex 6.91589 -5.80961 4
      vertex 6.15017 -3.70582 2
      vertex 5.77288 -6.27142 4
    endloop
  endfacet
  facet normal -0.205941 0.63382 0.74556
    outer loop
      vertex 6.15017 -3.70582 2
      vertex 6.92249 -5.80747 4
      vertex 7.47782 -3.27444 2
    endloop
  endfacet
  facet normal -0.205555 0.633955 0.745553
    outer loop
      vertex 6.92249 -5.80747 4
      vertex 6.15017 -3.70582 2
      vertex 6.91589 -5.80961 4
    endloop
  endfacet
  facet normal -0.205943 0.63382 0.74556
    outer loop
      vertex 8.09492 -5.42652 4
      vertex 7.47782 -3.27444 2
      vertex 6.92249 -5.80747 4
    endloop
  endfacet
  facet normal -0.161226 0.646643 0.74556
    outer loop
      vertex 7.47782 -3.27444 2
      vertex 8.10166 -5.42484 4
      vertex 8.83234 -2.93672 2
    endloop
  endfacet
  facet normal -0.161184 0.646654 0.745559
    outer loop
      vertex 8.10166 -5.42484 4
      vertex 7.47782 -3.27444 2
      vertex 8.09492 -5.42652 4
    endloop
  endfacet
  facet normal -0.161224 0.646642 0.74556
    outer loop
      vertex 9.29781 -5.12661 4
      vertex 8.83234 -2.93672 2
      vertex 8.10166 -5.42484 4
    endloop
  endfacet
  facet normal -0.115727 0.656314 0.74556
    outer loop
      vertex 8.83234 -2.93672 2
      vertex 9.30465 -5.1254 4
      vertex 10.2071 -2.69431 2
    endloop
  endfacet
  facet normal -0.11609 0.656242 0.745567
    outer loop
      vertex 9.30465 -5.1254 4
      vertex 8.83234 -2.93672 2
      vertex 9.29781 -5.12661 4
    endloop
  endfacet
  facet normal -0.115726 0.656314 0.74556
    outer loop
      vertex 10.5187 -4.91133 4
      vertex 10.2071 -2.69431 2
      vertex 9.30465 -5.1254 4
    endloop
  endfacet
  facet normal -0.0696635 0.662787 0.745561
    outer loop
      vertex 10.2071 -2.69431 2
      vertex 10.5256 -4.91061 4
      vertex 11.5954 -2.54839 2
    endloop
  endfacet
  facet normal -0.0691669 0.662849 0.745551
    outer loop
      vertex 10.5256 -4.91061 4
      vertex 10.2071 -2.69431 2
      vertex 10.5187 -4.91133 4
    endloop
  endfacet
  facet normal -0.0696629 0.662786 0.745561
    outer loop
      vertex 11.7516 -4.78175 4
      vertex 11.5954 -2.54839 2
      vertex 10.5256 -4.91061 4
    endloop
  endfacet
  facet normal 0.0250783 -0.668754 0.74306
    outer loop
      vertex 12.9811 4.73781 3.9991
      vertex 12.9819 4.73884 4
      vertex 12.9811 4.73881 4
    endloop
  endfacet
  facet normal 0.023581 -0.668127 0.743673
    outer loop
      vertex 12.9811 4.73781 3.9991
      vertex 12.9904 4.73914 4
      vertex 12.9819 4.73884 4
    endloop
  endfacet
  facet normal 0.0230985 -0.666033 0.745564
    outer loop
      vertex 12.9904 4.73914 4
      vertex 12.9811 4.73781 3.9991
      vertex 12.9904 2.50032 2
    endloop
  endfacet
  facet normal 0.0229174 -0.666036 0.745567
    outer loop
      vertex 12.9904 2.50032 2
      vertex 12.9811 4.73781 3.9991
      vertex 12.9811 2.5 2
    endloop
  endfacet
  facet normal -0.0232558 0.665956 0.745628
    outer loop
      vertex 11.5954 -2.54839 2
      vertex 12.9811 -2.51722 2.01538
      vertex 12.9811 -2.5 2
    endloop
  endfacet
  facet normal -0.0232568 0.666033 0.74556
    outer loop
      vertex 12.9811 -2.51722 2.01538
      vertex 11.5954 -2.54839 2
      vertex 11.7586 -4.7815 4
    endloop
  endfacet
  facet normal -0.0237858 0.666003 0.74557
    outer loop
      vertex 11.7586 -4.7815 4
      vertex 11.5954 -2.54839 2
      vertex 11.7516 -4.78175 4
    endloop
  endfacet
  facet normal -0.023258 0.666033 0.74556
    outer loop
      vertex 12.9811 -4.73881 4
      vertex 12.9811 -2.51722 2.01538
      vertex 11.7586 -4.7815 4
    endloop
  endfacet
  facet normal 0 0 1
    outer loop
      vertex 4.33013 12.5 2
      vertex 8.65562 9.99198 2
      vertex 8.66053 9.99984 2
    endloop
  endfacet
  facet normal -0 0 1
    outer loop
      vertex 4.32551 12.492 2
      vertex 8.65562 9.99198 2
      vertex 4.33013 12.5 2
    endloop
  endfacet
  facet normal -0 0 1
    outer loop
      vertex 3.59075 11.3161 2
      vertex 8.65562 9.99198 2
      vertex 4.32551 12.492 2
    endloop
  endfacet
  facet normal -0 0 1
    outer loop
      vertex 12.9811 2.5 2
      vertex 12.9904 -2.5 2
      vertex 12.9904 2.50032 2
    endloop
  endfacet
  facet normal 0 0 1
    outer loop
      vertex 12.9811 2.5 2
      vertex 12.9811 -2.5 2
      vertex 12.9904 -2.5 2
    endloop
  endfacet
  facet normal 0 0 1
    outer loop
      vertex 12.9811 2.5 2
      vertex 11.5954 -2.54839 2
      vertex 12.9811 -2.5 2
    endloop
  endfacet
  facet normal 0 0 1
    outer loop
      vertex 12.9811 2.5 2
      vertex 10.2071 -2.69431 2
      vertex 11.5954 -2.54839 2
    endloop
  endfacet
  facet normal 0 0 1
    outer loop
      vertex 12.9811 2.5 2
      vertex 8.83234 -2.93672 2
      vertex 10.2071 -2.69431 2
    endloop
  endfacet
  facet normal -0 0 1
    outer loop
      vertex 4.33013 2.5 2
      vertex 8.83234 -2.93672 2
      vertex 12.9811 2.5 2
    endloop
  endfacet
  facet normal 0 0 1
    outer loop
      vertex 8.83234 -2.93672 2
      vertex 4.33013 2.5 2
      vertex 7.47782 -3.27444 2
    endloop
  endfacet
  facet normal 0 0 1
    outer loop
      vertex 7.47782 -3.27444 2
      vertex 4.33013 2.5 2
      vertex 6.15017 -3.70582 2
    endloop
  endfacet
  facet normal 0 0 1
    outer loop
      vertex 6.15017 -3.70582 2
      vertex 4.33013 2.5 2
      vertex 4.85584 -4.22876 2
    endloop
  endfacet
  facet normal 0 0 1
    outer loop
      vertex 4.33013 2.5 2
      vertex 3.60114 -4.84072 2
      vertex 4.85584 -4.22876 2
    endloop
  endfacet
  facet normal -0 0 1
    outer loop
      vertex 2.77022 10.1868 2
      vertex 8.65562 9.99198 2
      vertex 3.59075 11.3161 2
    endloop
  endfacet
  facet normal 0 0 1
    outer loop
      vertex 1.8729 9.11739 2
      vertex 8.65562 9.99198 2
      vertex 2.77022 10.1868 2
    endloop
  endfacet
  facet normal 0 0 1
    outer loop
      vertex 8.65562 9.99198 2
      vertex 1.8729 9.11739 2
      vertex 4.33013 2.5 2
    endloop
  endfacet
  facet normal -0 0 1
    outer loop
      vertex 0.903167 8.1132 2
      vertex 4.33013 2.5 2
      vertex 1.8729 9.11739 2
    endloop
  endfacet
  facet normal -0 0 1
    outer loop
      vertex -0.134248 7.17911 2
      vertex 4.33013 2.5 2
      vertex 0.903167 8.1132 2
    endloop
  endfacet
  facet normal -0 0 1
    outer loop
      vertex -1.23429 6.31966 2
      vertex 4.33013 2.5 2
      vertex -0.134248 7.17911 2
    endloop
  endfacet
  facet normal -0 0 1
    outer loop
      vertex -2.39161 5.53904 2
      vertex 4.33013 2.5 2
      vertex -1.23429 6.31966 2
    endloop
  endfacet
  facet normal 0 0 1
    outer loop
      vertex -4.33013 -2.5 2
      vertex 4.33013 2.5 2
      vertex -2.39161 5.53904 2
    endloop
  endfacet
  facet normal 0 0 1
    outer loop
      vertex 4.33013 2.5 2
      vertex -4.33013 -2.5 2
      vertex 3.60114 -4.84072 2
    endloop
  endfacet
  facet normal 0 0 1
    outer loop
      vertex 3.60114 -4.84072 2
      vertex -4.33013 -2.5 2
      vertex 2.39219 -5.53871 2
    endloop
  endfacet
  facet normal 0 0 1
    outer loop
      vertex 1.23487 -6.31933 2
      vertex -4.33013 -2.5 2
      vertex 0.134819 -7.17878 2
    endloop
  endfacet
  facet normal 0 0 1
    outer loop
      vertex 0.134819 -7.17878 2
      vertex -4.33013 -2.5 2
      vertex -0.902596 -8.11287 2
    endloop
  endfacet
  facet normal 0 0 1
    outer loop
      vertex 2.39219 -5.53871 2
      vertex -4.33013 -2.5 2
      vertex 1.23487 -6.31933 2
    endloop
  endfacet
  facet normal 0 0 1
    outer loop
      vertex -0.902596 -8.11287 2
      vertex -4.33013 -2.5 2
      vertex -1.87232 -9.11706 2
    endloop
  endfacet
  facet normal 0 0 1
    outer loop
      vertex -8.66025 -10 2
      vertex -1.87232 -9.11706 2
      vertex -4.33013 -2.5 2
    endloop
  endfacet
  facet normal 0 0 1
    outer loop
      vertex -4.33013 -2.5 2
      vertex -2.39161 5.53904 2
      vertex -3.60057 4.84105 2
    endloop
  endfacet
  facet normal 0 0 1
    outer loop
      vertex -1.87232 -9.11706 2
      vertex -8.66025 -10 2
      vertex -2.76964 -10.1864 2
    endloop
  endfacet
  facet normal 0 0 1
    outer loop
      vertex -2.76964 -10.1864 2
      vertex -8.66025 -10 2
      vertex -3.59018 -11.3158 2
    endloop
  endfacet
  facet normal 0 0 1
    outer loop
      vertex -3.59018 -11.3158 2
      vertex -8.66025 -10 2
      vertex -4.32994 -12.4997 2
    endloop
  endfacet
  facet normal -0 0 1
    outer loop
      vertex -4.85527 4.22909 2
      vertex -4.33013 -2.5 2
      vertex -3.60057 4.84105 2
    endloop
  endfacet
  facet normal -0 0 1
    outer loop
      vertex -6.1496 3.70615 2
      vertex -4.33013 -2.5 2
      vertex -4.85527 4.22909 2
    endloop
  endfacet
  facet normal -0 0 1
    outer loop
      vertex -7.47725 3.27477 2
      vertex -4.33013 -2.5 2
      vertex -6.1496 3.70615 2
    endloop
  endfacet
  facet normal -0 0 1
    outer loop
      vertex -8.83177 2.93705 2
      vertex -4.33013 -2.5 2
      vertex -7.47725 3.27477 2
    endloop
  endfacet
  facet normal 0 0 1
    outer loop
      vertex -12.9904 -2.5 2
      vertex -8.83177 2.93705 2
      vertex -10.2065 2.69464 2
    endloop
  endfacet
  facet normal 0 0 1
    outer loop
      vertex -12.9904 -2.5 2
      vertex -10.2065 2.69464 2
      vertex -11.5949 2.54872 2
    endloop
  endfacet
  facet normal 0 0 1
    outer loop
      vertex -12.9904 -2.5 2
      vertex -11.5949 2.54872 2
      vertex -12.99 2.5 2
    endloop
  endfacet
  facet normal 0 0 1
    outer loop
      vertex -12.9904 -2.5 2
      vertex -12.99 2.5 2
      vertex -12.9904 2.50001 2
    endloop
  endfacet
  facet normal 0 0 1
    outer loop
      vertex -8.83177 2.93705 2
      vertex -12.9904 -2.5 2
      vertex -4.33013 -2.5 2
    endloop
  endfacet
  facet normal 0 0 1
    outer loop
      vertex -4.32994 -12.4997 2
      vertex -8.66025 -10 2
      vertex -4.33012 -12.5 2
    endloop
  endfacet
  facet normal 0.565176 -0.35315 0.745561
    outer loop
      vertex 4.32551 12.492 2
      vertex 2.39012 13.6094 3.99641
      vertex 3.59075 11.3161 2
    endloop
  endfacet
  facet normal 0.565571 -0.353421 0.745133
    outer loop
      vertex 1.73469 12.5681 4
      vertex 2.39012 13.6094 3.99641
      vertex 2.38664 13.6114 4
    endloop
  endfacet
  facet normal 0.565162 -0.353162 0.745566
    outer loop
      vertex 2.39012 13.6094 3.99641
      vertex 1.73469 12.5681 4
      vertex 3.59075 11.3161 2
    endloop
  endfacet
  facet normal -0.56553 0.352557 0.745574
    outer loop
      vertex 10.5994 8.88043 4
      vertex 8.66531 9.98639 2.00999
      vertex 10.5945 8.87257 4
    endloop
  endfacet
  facet normal -0.565204 0.353104 0.745561
    outer loop
      vertex 8.66531 9.98639 2.00999
      vertex 10.5994 8.88043 4
      vertex 8.66073 9.99973 2.0002
    endloop
  endfacet
  facet normal -0.559417 0.349458 0.751619
    outer loop
      vertex 8.65562 9.99198 2
      vertex 8.66073 9.99973 2.0002
      vertex 8.66053 9.99984 2
    endloop
  endfacet
  facet normal -0.564961 0.353267 0.745669
    outer loop
      vertex 8.66073 9.99973 2.0002
      vertex 8.65562 9.99198 2
      vertex 8.66531 9.98639 2.00999
    endloop
  endfacet
  facet normal 0.538648 -0.392444 0.745551
    outer loop
      vertex 1.73061 12.5625 4
      vertex 3.59075 11.3161 2
      vertex 1.73469 12.5681 4
    endloop
  endfacet
  facet normal 0.539143 -0.391732 0.745568
    outer loop
      vertex 3.59075 11.3161 2
      vertex 1.73061 12.5625 4
      vertex 2.77022 10.1868 2
    endloop
  endfacet
  facet normal 0.539178 -0.391707 0.745556
    outer loop
      vertex 2.77022 10.1868 2
      vertex 1.73061 12.5625 4
      vertex 1.00601 11.5651 4
    endloop
  endfacet
  facet normal 0.509471 -0.429686 0.745526
    outer loop
      vertex 1.00154 11.5598 4
      vertex 2.77022 10.1868 2
      vertex 1.00601 11.5651 4
    endloop
  endfacet
  facet normal 0.510528 -0.428373 0.745559
    outer loop
      vertex 2.77022 10.1868 2
      vertex 1.00154 11.5598 4
      vertex 1.8729 9.11739 2
    endloop
  endfacet
  facet normal 0.510535 -0.428369 0.745556
    outer loop
      vertex 1.8729 9.11739 2
      vertex 1.00154 11.5598 4
      vertex 0.209134 10.6154 4
    endloop
  endfacet
  facet normal 0.475111 -0.467548 0.745432
    outer loop
      vertex 0.204312 10.6105 4
      vertex 1.8729 9.11739 2
      vertex 0.209134 10.6154 4
    endloop
  endfacet
  facet normal 0.479392 -0.462942 0.745566
    outer loop
      vertex 1.8729 9.11739 2
      vertex 0.204312 10.6105 4
      vertex 0.903167 8.1132 2
    endloop
  endfacet
  facet normal 0.479408 -0.462933 0.74556
    outer loop
      vertex 0.903167 8.1132 2
      vertex 0.204312 10.6105 4
      vertex -0.652042 9.72367 4
    endloop
  endfacet
  facet normal 0.445664 -0.495513 0.745554
    outer loop
      vertex -0.657201 9.71903 4
      vertex 0.903167 8.1132 2
      vertex -0.652042 9.72367 4
    endloop
  endfacet
  facet normal 0.445933 -0.49526 0.745561
    outer loop
      vertex 0.903167 8.1132 2
      vertex -0.657201 9.71903 4
      vertex -0.134248 7.17911 2
    endloop
  endfacet
  facet normal 0.445935 -0.495259 0.745561
    outer loop
      vertex -0.134248 7.17911 2
      vertex -0.657201 9.71903 4
      vertex -1.57333 8.89414 4
    endloop
  endfacet
  facet normal 0.410087 -0.525334 0.745556
    outer loop
      vertex -1.5788 8.88987 4
      vertex -0.134248 7.17911 2
      vertex -1.57333 8.89414 4
    endloop
  endfacet
  facet normal 0.410301 -0.525159 0.745561
    outer loop
      vertex -0.134248 7.17911 2
      vertex -1.5788 8.88987 4
      vertex -1.23429 6.31966 2
    endloop
  endfacet
  facet normal 0.410299 -0.52516 0.745562
    outer loop
      vertex -1.23429 6.31966 2
      vertex -1.5788 8.88987 4
      vertex -2.55024 8.1309 4
    endloop
  endfacet
  facet normal 0.372769 -0.552429 0.745564
    outer loop
      vertex -2.55599 8.12702 4
      vertex -1.23429 6.31966 2
      vertex -2.55024 8.1309 4
    endloop
  endfacet
  facet normal 0.372666 -0.552502 0.745561
    outer loop
      vertex -1.23429 6.31966 2
      vertex -2.55599 8.12702 4
      vertex -2.39161 5.53904 2
    endloop
  endfacet
  facet normal 0.37267 -0.552501 0.74556
    outer loop
      vertex -2.39161 5.53904 2
      vertex -2.55599 8.12702 4
      vertex -3.578 7.43766 4
    endloop
  endfacet
  facet normal 0.332817 -0.577395 0.745552
    outer loop
      vertex -3.58402 7.43419 4
      vertex -2.39161 5.53904 2
      vertex -3.578 7.43766 4
    endloop
  endfacet
  facet normal 0.333217 -0.577152 0.745561
    outer loop
      vertex -2.39161 5.53904 2
      vertex -3.58402 7.43419 4
      vertex -3.60057 4.84105 2
    endloop
  endfacet
  facet normal 0.333221 -0.577152 0.74556
    outer loop
      vertex -3.60057 4.84105 2
      vertex -3.58402 7.43419 4
      vertex -4.65163 6.8178 4
    endloop
  endfacet
  facet normal 0.291882 -0.599127 0.745555
    outer loop
      vertex -4.65787 6.81476 4
      vertex -3.60057 4.84105 2
      vertex -4.65163 6.8178 4
    endloop
  endfacet
  facet normal 0.292148 -0.59899 0.74556
    outer loop
      vertex -3.60057 4.84105 2
      vertex -4.65787 6.81476 4
      vertex -4.85527 4.22909 2
    endloop
  endfacet
  facet normal 0.292148 -0.59899 0.74556
    outer loop
      vertex -4.85527 4.22909 2
      vertex -4.65787 6.81476 4
      vertex -5.76587 6.27435 4
    endloop
  endfacet
  facet normal 0.249494 -0.617978 0.745557
    outer loop
      vertex -5.77231 6.27175 4
      vertex -4.85527 4.22909 2
      vertex -5.76587 6.27435 4
    endloop
  endfacet
  facet normal 0.249651 -0.617911 0.745561
    outer loop
      vertex -4.85527 4.22909 2
      vertex -5.77231 6.27175 4
      vertex -6.1496 3.70615 2
    endloop
  endfacet
  facet normal 0.249654 -0.617911 0.74556
    outer loop
      vertex -6.1496 3.70615 2
      vertex -5.77231 6.27175 4
      vertex -6.91532 5.80994 4
    endloop
  endfacet
  facet normal 0.205555 -0.633955 0.745553
    outer loop
      vertex -6.92192 5.8078 4
      vertex -6.1496 3.70615 2
      vertex -6.91532 5.80994 4
    endloop
  endfacet
  facet normal 0.205941 -0.63382 0.74556
    outer loop
      vertex -6.1496 3.70615 2
      vertex -6.92192 5.8078 4
      vertex -7.47725 3.27477 2
    endloop
  endfacet
  facet normal 0.205943 -0.63382 0.74556
    outer loop
      vertex -7.47725 3.27477 2
      vertex -6.92192 5.8078 4
      vertex -8.09435 5.42685 4
    endloop
  endfacet
  facet normal 0.161184 -0.646654 0.745559
    outer loop
      vertex -8.10109 5.42517 4
      vertex -7.47725 3.27477 2
      vertex -8.09435 5.42685 4
    endloop
  endfacet
  facet normal 0.161226 -0.646643 0.74556
    outer loop
      vertex -7.47725 3.27477 2
      vertex -8.10109 5.42517 4
      vertex -8.83177 2.93705 2
    endloop
  endfacet
  facet normal 0.161224 -0.646642 0.74556
    outer loop
      vertex -8.83177 2.93705 2
      vertex -8.10109 5.42517 4
      vertex -9.29724 5.12694 4
    endloop
  endfacet
  facet normal 0.11609 -0.656242 0.745567
    outer loop
      vertex -9.30408 5.12573 4
      vertex -8.83177 2.93705 2
      vertex -9.29724 5.12694 4
    endloop
  endfacet
  facet normal 0.11573 -0.656313 0.74556
    outer loop
      vertex -8.83177 2.93705 2
      vertex -9.30408 5.12573 4
      vertex -10.2065 2.69464 2
    endloop
  endfacet
  facet normal 0.115729 -0.656313 0.74556
    outer loop
      vertex -10.2065 2.69464 2
      vertex -9.30408 5.12573 4
      vertex -10.5181 4.91166 4
    endloop
  endfacet
  facet normal 0.0691669 -0.662849 0.745551
    outer loop
      vertex -10.525 4.91094 4
      vertex -10.2065 2.69464 2
      vertex -10.5181 4.91166 4
    endloop
  endfacet
  facet normal 0.0696585 -0.662787 0.745561
    outer loop
      vertex -10.2065 2.69464 2
      vertex -10.525 4.91094 4
      vertex -11.5949 2.54872 2
    endloop
  endfacet
  facet normal 0.069663 -0.662788 0.745559
    outer loop
      vertex -11.5949 2.54872 2
      vertex -10.525 4.91094 4
      vertex -11.751 4.78208 4
    endloop
  endfacet
  facet normal 0.0237858 -0.666004 0.745569
    outer loop
      vertex -11.758 4.78183 4
      vertex -11.5949 2.54872 2
      vertex -11.751 4.78208 4
    endloop
  endfacet
  facet normal 0.0232594 -0.666033 0.745559
    outer loop
      vertex -11.5949 2.54872 2
      vertex -11.758 4.78183 4
      vertex -12.99 2.5 2
    endloop
  endfacet
  facet normal 0.0232571 -0.666032 0.74556
    outer loop
      vertex -12.99 2.5 2
      vertex -11.758 4.78183 4
      vertex -12.99 4.73881 4
    endloop
  endfacet
  facet normal -0.0332921 -0.665842 0.74535
    outer loop
      vertex -12.9904 2.50001 2
      vertex -12.99 4.73881 4
      vertex -12.9904 4.73883 4
    endloop
  endfacet
  facet normal -0.016653 -0.66612 0.745658
    outer loop
      vertex -12.99 4.73881 4
      vertex -12.9904 2.50001 2
      vertex -12.99 2.5 2
    endloop
  endfacet
  facet normal 0.576743 -0.333477 0.745762
    outer loop
      vertex 2.39012 13.6094 3.99641
      vertex 4.33013 12.5 2
      vertex 2.39126 13.6194 4
    endloop
  endfacet
  facet normal 0.576919 -0.333171 0.745763
    outer loop
      vertex 4.33013 12.5 2
      vertex 2.39012 13.6094 3.99641
      vertex 4.32551 12.492 2
    endloop
  endfacet
  facet normal 0.577311 -0.333397 0.745358
    outer loop
      vertex 2.39012 13.6094 3.99641
      vertex 2.39126 13.6194 4
      vertex 2.38664 13.6114 4
    endloop
  endfacet
  facet normal 0.576957 -0.333106 0.745762
    outer loop
      vertex -8.20786 -4.73881 4
      vertex -8.66025 -10 2
      vertex -4.33013 -2.5 2
    endloop
  endfacet
  facet normal 0.576938 -0.333109 0.745775
    outer loop
      vertex -8.20786 -4.73881 4
      vertex -8.72519 -9.96207 2.06718
      vertex -8.66025 -10 2
    endloop
  endfacet
  facet normal 0.57696 -0.333106 0.74576
    outer loop
      vertex -8.72519 -9.96207 2.06718
      vertex -8.20786 -4.73881 4
      vertex -10.5989 -8.88024 4
    endloop
  endfacet
  facet normal 0.5602 -0.36142 0.745353
    outer loop
      vertex -10.5991 -8.88059 4
      vertex -8.72519 -9.96207 2.06718
      vertex -10.5989 -8.88028 4
    endloop
  endfacet
  facet normal 0.579992 -0.32783 0.745746
    outer loop
      vertex -8.72519 -9.96207 2.06718
      vertex -10.5991 -8.88059 4
      vertex -8.66025 -10 2
    endloop
  endfacet
  facet normal -0.57679 0.333136 0.745878
    outer loop
      vertex 8.20786 4.73881 4
      vertex 8.66531 9.98639 2.00999
      vertex 8.65562 9.99198 2
    endloop
  endfacet
  facet normal -0.576955 0.333107 0.745763
    outer loop
      vertex 8.66531 9.98639 2.00999
      vertex 8.20786 4.73881 4
      vertex 10.5945 8.87257 4
    endloop
  endfacet
  facet normal -0.576957 0.333106 0.745762
    outer loop
      vertex 8.20786 4.73881 4
      vertex 8.65562 9.99198 2
      vertex 4.33013 2.5 2
    endloop
  endfacet
  facet normal -0 0.666213 0.745762
    outer loop
      vertex -12.9904 -2.5 2
      vertex -8.20786 -4.73881 4
      vertex -4.33013 -2.5 2
    endloop
  endfacet
  facet normal 0 0.666213 0.745762
    outer loop
      vertex -8.20786 -4.73881 4
      vertex -12.9904 -2.5 2
      vertex -12.9904 -4.73881 4
    endloop
  endfacet
  facet normal 0 0.666136 0.74583
    outer loop
      vertex 12.9811 -2.51722 2.01538
      vertex 12.9904 -2.5 2
      vertex 12.9811 -2.5 2
    endloop
  endfacet
  facet normal -0.000254386 0.666213 0.745762
    outer loop
      vertex 12.9904 -2.5 2
      vertex 12.9811 -2.51722 2.01538
      vertex 12.9904 -4.73881 4
    endloop
  endfacet
  facet normal 0 0.666213 0.745761
    outer loop
      vertex 12.9904 -4.73881 4
      vertex 12.9811 -2.51722 2.01538
      vertex 12.9811 -4.73881 4
    endloop
  endfacet
  facet normal 0 -0.668965 0.743294
    outer loop
      vertex 8.20786 4.73881 4
      vertex 12.9811 4.73781 3.9991
      vertex 12.9811 4.73881 4
    endloop
  endfacet
  facet normal 1.04231e-06 -0.666211 0.745763
    outer loop
      vertex 12.9811 4.73781 3.9991
      vertex 8.20786 4.73881 4
      vertex 12.9811 2.5 2
    endloop
  endfacet
  facet normal 0 -0.666213 0.745762
    outer loop
      vertex 12.9811 2.5 2
      vertex 8.20786 4.73881 4
      vertex 4.33013 2.5 2
    endloop
  endfacet
endsolid OpenSCAD_Model
