solid OpenSCAD_Model
  facet normal -1 0 0
    outer loop
      vertex -12.9904 7.5 0
      vertex -12.9904 4.73883 4
      vertex -12.9904 7.5 4
    endloop
  endfacet
  facet normal -1 0 0
    outer loop
      vertex -12.9904 7.5 0
      vertex -12.9904 2.50001 2
      vertex -12.9904 4.73883 4
    endloop
  endfacet
  facet normal -1 0 0
    outer loop
      vertex -12.9904 7.5 0
      vertex -12.9904 -2.5 2
      vertex -12.9904 2.50001 2
    endloop
  endfacet
  facet normal -1 0 0
    outer loop
      vertex -12.9904 -7.5 0
      vertex -12.9904 -2.5 2
      vertex -12.9904 7.5 0
    endloop
  endfacet
  facet normal -1 0 0
    outer loop
      vertex -12.9904 -7.5 0
      vertex -12.9904 -4.73881 4
      vertex -12.9904 -2.5 2
    endloop
  endfacet
  facet normal -1 -0 0
    outer loop
      vertex -12.9904 -4.73881 4
      vertex -12.9904 -7.5 0
      vertex -12.9904 -7.5 4
    endloop
  endfacet
  facet normal -0.499999 -0.866026 0
    outer loop
      vertex -12.9904 -7.5 0
      vertex 0 -15 4
      vertex -12.9904 -7.5 4
    endloop
  endfacet
  facet normal -0.499999 -0.866026 -0
    outer loop
      vertex 0 -15 4
      vertex -12.9904 -7.5 0
      vertex 0 -15 0
    endloop
  endfacet
  facet normal 0 0 -1
    outer loop
      vertex 0 -15 0
      vertex 12.9904 7.5 0
      vertex 12.9904 -7.5 0
    endloop
  endfacet
  facet normal 0 0 -1
    outer loop
      vertex 0 -15 0
      vertex 0 15 0
      vertex 12.9904 7.5 0
    endloop
  endfacet
  facet normal 0 0 -1
    outer loop
      vertex -12.9904 -7.5 0
      vertex 0 15 0
      vertex 0 -15 0
    endloop
  endfacet
  facet normal 0 0 -1
    outer loop
      vertex 0 15 0
      vertex -12.9904 -7.5 0
      vertex -12.9904 7.5 0
    endloop
  endfacet
  facet normal 0.499999 -0.866026 0
    outer loop
      vertex 0 -15 0
      vertex 12.9904 -7.5 4
      vertex 0 -15 4
    endloop
  endfacet
  facet normal 0.499999 -0.866026 0
    outer loop
      vertex 12.9904 -7.5 4
      vertex 0 -15 0
      vertex 12.9904 -7.5 0
    endloop
  endfacet
  facet normal -0.499999 0.866026 0
    outer loop
      vertex 0 15 0
      vertex -12.9904 7.5 4
      vertex 0 15 4
    endloop
  endfacet
  facet normal -0.499999 0.866026 0
    outer loop
      vertex -12.9904 7.5 4
      vertex 0 15 0
      vertex -12.9904 7.5 0
    endloop
  endfacet
  facet normal 0 0 1
    outer loop
      vertex 12.9904 -4.73881 4
      vertex 0 -15 4
      vertex 12.9904 -7.5 4
    endloop
  endfacet
  facet normal -0 0 1
    outer loop
      vertex -12.9904 -4.73881 4
      vertex 0 -15 4
      vertex 12.9904 -4.73881 4
    endloop
  endfacet
  facet normal 0 0 1
    outer loop
      vertex 0 -15 4
      vertex -12.9904 -4.73881 4
      vertex -12.9904 -7.5 4
    endloop
  endfacet
  facet normal 0 0 1
    outer loop
      vertex 0 15 4
      vertex 1.73469 12.5681 4
      vertex 2.38796 13.6135 4
    endloop
  endfacet
  facet normal 0 0 1
    outer loop
      vertex 0 15 4
      vertex 2.38796 13.6135 4
      vertex 2.39154 13.6192 4
    endloop
  endfacet
  facet normal 0 0 1
    outer loop
      vertex 1.73469 12.5681 4
      vertex 0 15 4
      vertex 1.73061 12.5625 4
    endloop
  endfacet
  facet normal 0 0 1
    outer loop
      vertex 1.73061 12.5625 4
      vertex 0 15 4
      vertex 1.00601 11.5651 4
    endloop
  endfacet
  facet normal 0 0 1
    outer loop
      vertex 1.00601 11.5651 4
      vertex 0 15 4
      vertex 1.00154 11.5598 4
    endloop
  endfacet
  facet normal 0 0 1
    outer loop
      vertex 1.00154 11.5598 4
      vertex 0 15 4
      vertex 0.209134 10.6154 4
    endloop
  endfacet
  facet normal 0 0 1
    outer loop
      vertex 0.209134 10.6154 4
      vertex 0 15 4
      vertex 0.204312 10.6105 4
    endloop
  endfacet
  facet normal 0 0 1
    outer loop
      vertex 0 15 4
      vertex -0.652042 9.72367 4
      vertex 0.204312 10.6105 4
    endloop
  endfacet
  facet normal 0 0 1
    outer loop
      vertex 0 15 4
      vertex -0.657201 9.71903 4
      vertex -0.652042 9.72367 4
    endloop
  endfacet
  facet normal 0 0 1
    outer loop
      vertex 0 15 4
      vertex -1.57333 8.89414 4
      vertex -0.657201 9.71903 4
    endloop
  endfacet
  facet normal 0 0 1
    outer loop
      vertex 0 15 4
      vertex -1.5788 8.88987 4
      vertex -1.57333 8.89414 4
    endloop
  endfacet
  facet normal 0 0 1
    outer loop
      vertex 0 15 4
      vertex -2.55024 8.1309 4
      vertex -1.5788 8.88987 4
    endloop
  endfacet
  facet normal 0 0 1
    outer loop
      vertex 0 15 4
      vertex -2.55599 8.12702 4
      vertex -2.55024 8.1309 4
    endloop
  endfacet
  facet normal 0 0 1
    outer loop
      vertex 0 15 4
      vertex -3.578 7.43766 4
      vertex -2.55599 8.12702 4
    endloop
  endfacet
  facet normal 0 0 1
    outer loop
      vertex 0 15 4
      vertex -3.58402 7.43419 4
      vertex -3.578 7.43766 4
    endloop
  endfacet
  facet normal 0 0 1
    outer loop
      vertex 0 15 4
      vertex -4.65163 6.8178 4
      vertex -3.58402 7.43419 4
    endloop
  endfacet
  facet normal 0 0 1
    outer loop
      vertex 0 15 4
      vertex -4.65787 6.81476 4
      vertex -4.65163 6.8178 4
    endloop
  endfacet
  facet normal -0 0 1
    outer loop
      vertex -12.9904 7.5 4
      vertex -4.65787 6.81476 4
      vertex 0 15 4
    endloop
  endfacet
  facet normal 0 0 1
    outer loop
      vertex -4.65787 6.81476 4
      vertex -12.9904 7.5 4
      vertex -5.76587 6.27435 4
    endloop
  endfacet
  facet normal 0 0 1
    outer loop
      vertex -5.76587 6.27435 4
      vertex -12.9904 7.5 4
      vertex -5.77231 6.27175 4
    endloop
  endfacet
  facet normal 0 0 1
    outer loop
      vertex -5.77231 6.27175 4
      vertex -12.9904 7.5 4
      vertex -6.91532 5.80994 4
    endloop
  endfacet
  facet normal 0 0 1
    outer loop
      vertex -6.91532 5.80994 4
      vertex -12.9904 7.5 4
      vertex -6.92192 5.8078 4
    endloop
  endfacet
  facet normal 0 0 1
    outer loop
      vertex -6.92192 5.8078 4
      vertex -12.9904 7.5 4
      vertex -8.09435 5.42685 4
    endloop
  endfacet
  facet normal 0 0 1
    outer loop
      vertex -8.09435 5.42685 4
      vertex -12.9904 7.5 4
      vertex -8.10109 5.42517 4
    endloop
  endfacet
  facet normal 0 0 1
    outer loop
      vertex -8.10109 5.42517 4
      vertex -12.9904 7.5 4
      vertex -9.29724 5.12694 4
    endloop
  endfacet
  facet normal 0 0 1
    outer loop
      vertex -9.29724 5.12694 4
      vertex -12.9904 7.5 4
      vertex -9.30408 5.12573 4
    endloop
  endfacet
  facet normal 0 0 1
    outer loop
      vertex -9.30408 5.12573 4
      vertex -12.9904 7.5 4
      vertex -10.5181 4.91166 4
    endloop
  endfacet
  facet normal 0 0 1
    outer loop
      vertex -10.5181 4.91166 4
      vertex -12.9904 7.5 4
      vertex -10.525 4.91094 4
    endloop
  endfacet
  facet normal 0 0 1
    outer loop
      vertex -10.525 4.91094 4
      vertex -12.9904 7.5 4
      vertex -11.751 4.78208 4
    endloop
  endfacet
  facet normal 0 0 1
    outer loop
      vertex -11.751 4.78208 4
      vertex -12.9904 7.5 4
      vertex -11.758 4.78183 4
    endloop
  endfacet
  facet normal 0 0 1
    outer loop
      vertex -11.758 4.78183 4
      vertex -12.9904 7.5 4
      vertex -12.99 4.73881 4
    endloop
  endfacet
  facet normal 0 0 1
    outer loop
      vertex -12.99 4.73881 4
      vertex -12.9904 7.5 4
      vertex -12.9904 4.73883 4
    endloop
  endfacet
  facet normal 0 0 1
    outer loop
      vertex 9.5966 7.27561 4
      vertex 12.9904 7.5 4
      vertex 10.5994 8.88043 4
    endloop
  endfacet
  facet normal 0 0 1
    outer loop
      vertex 9.592 7.26825 4
      vertex 12.9904 7.5 4
      vertex 9.5966 7.27561 4
    endloop
  endfacet
  facet normal 0 0 1
    outer loop
      vertex 12.9904 7.5 4
      vertex 9.592 7.26825 4
      vertex 12.9904 4.73881 4
    endloop
  endfacet
  facet normal -0 0 1
    outer loop
      vertex 8.47958 5.73713 4
      vertex 12.9904 4.73881 4
      vertex 9.592 7.26825 4
    endloop
  endfacet
  facet normal -0 0 1
    outer loop
      vertex 8.47448 5.73011 4
      vertex 12.9904 4.73881 4
      vertex 8.47958 5.73713 4
    endloop
  endfacet
  facet normal 0 0 1
    outer loop
      vertex 12.9904 4.73881 4
      vertex 8.47448 5.73011 4
      vertex 7.64268 4.73881 4
    endloop
  endfacet
  facet normal 0.499996 0.866028 -0
    outer loop
      vertex 12.9904 7.5 0
      vertex 10.5994 8.88043 4
      vertex 12.9904 7.5 4
    endloop
  endfacet
  facet normal 0.5 0.866025 3.3209e-06
    outer loop
      vertex 10.5994 8.88043 4
      vertex 12.9904 7.5 0
      vertex 8.66073 9.99973 2.0002
    endloop
  endfacet
  facet normal 0.499995 0.866029 -1.05376e-05
    outer loop
      vertex 8.66053 9.99984 2
      vertex 12.9904 7.5 0
      vertex 4.33041 12.4998 2
    endloop
  endfacet
  facet normal 0.494289 0.869146 -0.0162589
    outer loop
      vertex 8.66073 9.99973 2.0002
      vertex 12.9904 7.5 0
      vertex 8.66053 9.99984 2
    endloop
  endfacet
  facet normal 0.500003 0.866024 7.03259e-06
    outer loop
      vertex 0 15 0
      vertex 2.39154 13.6192 4
      vertex 4.33041 12.4998 2
    endloop
  endfacet
  facet normal 0.500012 0.866019 0
    outer loop
      vertex 2.39154 13.6192 4
      vertex 0 15 0
      vertex 0 15 4
    endloop
  endfacet
  facet normal 0.499999 0.866026 1.7436e-05
    outer loop
      vertex 0 15 0
      vertex 4.33041 12.4998 2
      vertex 12.9904 7.5 0
    endloop
  endfacet
  facet normal 1 -0 0
    outer loop
      vertex 12.9904 4.73881 4
      vertex 12.9904 7.5 0
      vertex 12.9904 7.5 4
    endloop
  endfacet
  facet normal 1 -0 0
    outer loop
      vertex 12.9904 2.5 2
      vertex 12.9904 7.5 0
      vertex 12.9904 4.73881 4
    endloop
  endfacet
  facet normal 1 -0 0
    outer loop
      vertex 12.9904 -2.5 2
      vertex 12.9904 7.5 0
      vertex 12.9904 2.5 2
    endloop
  endfacet
  facet normal 1 0 0
    outer loop
      vertex 12.9904 -7.5 0
      vertex 12.9904 -4.73881 4
      vertex 12.9904 -7.5 4
    endloop
  endfacet
  facet normal 1 0 0
    outer loop
      vertex 12.9904 -2.5 2
      vertex 12.9904 -7.5 0
      vertex 12.9904 7.5 0
    endloop
  endfacet
  facet normal 1 0 0
    outer loop
      vertex 12.9904 -4.73881 4
      vertex 12.9904 -7.5 0
      vertex 12.9904 -2.5 2
    endloop
  endfacet
  facet normal -0 0.666213 0.745762
    outer loop
      vertex -12.9904 -2.5 2
      vertex 12.9904 -4.73881 4
      vertex 12.9904 -2.5 2
    endloop
  endfacet
  facet normal 0 0.666213 0.745762
    outer loop
      vertex 12.9904 -4.73881 4
      vertex -12.9904 -2.5 2
      vertex -12.9904 -4.73881 4
    endloop
  endfacet
  facet normal 0 -0.666213 0.745762
    outer loop
      vertex 7.64268 4.73881 4
      vertex 12.9904 2.5 2
      vertex 12.9904 4.73881 4
    endloop
  endfacet
  facet normal 9.26684e-07 -0.666211 0.745763
    outer loop
      vertex 7.2084 4.53623 3.81903
      vertex 12.9904 2.5 2
      vertex 7.64268 4.73881 4
    endloop
  endfacet
  facet normal 7.18608e-06 -0.666202 0.745772
    outer loop
      vertex 7.04529 4.46014 3.75106
      vertex 12.9904 2.5 2
      vertex 7.2084 4.53623 3.81903
    endloop
  endfacet
  facet normal -2.74859e-07 -0.666214 0.74576
    outer loop
      vertex 5.81263 3.93672 3.28347
      vertex 12.9904 2.5 2
      vertex 7.04529 4.46014 3.75106
    endloop
  endfacet
  facet normal -2.75865e-06 -0.666221 0.745754
    outer loop
      vertex 5.19118 3.67284 3.04773
      vertex 12.9904 2.5 2
      vertex 5.81263 3.93672 3.28347
    endloop
  endfacet
  facet normal 2.40114e-06 -0.666202 0.745771
    outer loop
      vertex 4.4351 3.3825 2.78837
      vertex 12.9904 2.5 2
      vertex 5.19118 3.67284 3.04773
    endloop
  endfacet
  facet normal -5.26498e-08 -0.666215 0.74576
    outer loop
      vertex 3.38866 2.98067 2.4294
      vertex 12.9904 2.5 2
      vertex 4.4351 3.3825 2.78837
    endloop
  endfacet
  facet normal -1.971e-08 -0.666215 0.74576
    outer loop
      vertex 3.07102 2.87126 2.33166
      vertex 12.9904 2.5 2
      vertex 3.38866 2.98067 2.4294
    endloop
  endfacet
  facet normal 0 -0.666215 0.74576
    outer loop
      vertex 12.9904 2.5 2
      vertex 3.07102 2.87126 2.33166
      vertex 1.99316 2.5 2
    endloop
  endfacet
  facet normal 0 0 1
    outer loop
      vertex 3.59075 11.3161 2
      vertex 7.73594 8.52018 2
      vertex 8.66053 9.99984 2
    endloop
  endfacet
  facet normal 0 0 1
    outer loop
      vertex 7.73594 8.52018 2
      vertex 3.59075 11.3161 2
      vertex 6.71027 7.10846 2
    endloop
  endfacet
  facet normal 0 0 1
    outer loop
      vertex 6.71027 7.10846 2
      vertex 2.77022 10.1868 2
      vertex 5.58862 5.77173 2
    endloop
  endfacet
  facet normal -0 0 1
    outer loop
      vertex 3.59075 11.3161 2
      vertex 8.66053 9.99984 2
      vertex 4.33041 12.4998 2
    endloop
  endfacet
  facet normal 0 0 1
    outer loop
      vertex 6.71027 7.10846 2
      vertex 3.59075 11.3161 2
      vertex 2.77022 10.1868 2
    endloop
  endfacet
  facet normal -0 0 1
    outer loop
      vertex 1.8729 9.11739 2
      vertex 5.58862 5.77173 2
      vertex 2.77022 10.1868 2
    endloop
  endfacet
  facet normal 0 0 1
    outer loop
      vertex 5.58862 5.77173 2
      vertex 1.8729 9.11739 2
      vertex 4.37646 4.5165 2
    endloop
  endfacet
  facet normal -0 0 1
    outer loop
      vertex 0.903167 8.1132 2
      vertex 4.37646 4.5165 2
      vertex 1.8729 9.11739 2
    endloop
  endfacet
  facet normal 0 0 1
    outer loop
      vertex 4.37646 4.5165 2
      vertex 0.903167 8.1132 2
      vertex 3.07969 3.34889 2
    endloop
  endfacet
  facet normal -0 0 1
    outer loop
      vertex 1.99316 2.5 2
      vertex 12.9904 -2.5 2
      vertex 12.9904 2.5 2
    endloop
  endfacet
  facet normal -0 0 1
    outer loop
      vertex -0.134248 7.17911 2
      vertex 3.07969 3.34889 2
      vertex 0.903167 8.1132 2
    endloop
  endfacet
  facet normal 0 0 1
    outer loop
      vertex 3.07969 3.34889 2
      vertex -0.134248 7.17911 2
      vertex 1.99316 2.5 2
    endloop
  endfacet
  facet normal -0 0 1
    outer loop
      vertex -1.23429 6.31966 2
      vertex 1.99316 2.5 2
      vertex -0.134248 7.17911 2
    endloop
  endfacet
  facet normal -0 0 1
    outer loop
      vertex -2.39161 5.53904 2
      vertex 1.99316 2.5 2
      vertex -1.23429 6.31966 2
    endloop
  endfacet
  facet normal -0 0 1
    outer loop
      vertex -3.60057 4.84105 2
      vertex 1.99316 2.5 2
      vertex -2.39161 5.53904 2
    endloop
  endfacet
  facet normal -0 0 1
    outer loop
      vertex -4.85527 4.22909 2
      vertex 1.99316 2.5 2
      vertex -3.60057 4.84105 2
    endloop
  endfacet
  facet normal -0 0 1
    outer loop
      vertex -6.1496 3.70615 2
      vertex 1.99316 2.5 2
      vertex -4.85527 4.22909 2
    endloop
  endfacet
  facet normal 0 0 1
    outer loop
      vertex -12.9904 -2.5 2
      vertex 1.99316 2.5 2
      vertex -6.1496 3.70615 2
    endloop
  endfacet
  facet normal 0 0 1
    outer loop
      vertex -12.9904 -2.5 2
      vertex -6.1496 3.70615 2
      vertex -7.47725 3.27477 2
    endloop
  endfacet
  facet normal 0 0 1
    outer loop
      vertex -12.9904 -2.5 2
      vertex -7.47725 3.27477 2
      vertex -8.83177 2.93705 2
    endloop
  endfacet
  facet normal 0 0 1
    outer loop
      vertex -12.9904 -2.5 2
      vertex -8.83177 2.93705 2
      vertex -10.2065 2.69464 2
    endloop
  endfacet
  facet normal 0 0 1
    outer loop
      vertex -12.9904 -2.5 2
      vertex -10.2065 2.69464 2
      vertex -11.5949 2.54872 2
    endloop
  endfacet
  facet normal 0 0 1
    outer loop
      vertex -12.9904 -2.5 2
      vertex -11.5949 2.54872 2
      vertex -12.99 2.5 2
    endloop
  endfacet
  facet normal 0 0 1
    outer loop
      vertex -12.9904 -2.5 2
      vertex -12.99 2.5 2
      vertex -12.9904 2.50001 2
    endloop
  endfacet
  facet normal 0 0 1
    outer loop
      vertex 1.99316 2.5 2
      vertex -12.9904 -2.5 2
      vertex 12.9904 -2.5 2
    endloop
  endfacet
  facet normal 0.564385 -0.354473 0.745533
    outer loop
      vertex 2.38796 13.6135 4
      vertex 4.33041 12.4998 2
      vertex 2.39154 13.6192 4
    endloop
  endfacet
  facet normal 0.565169 -0.353158 0.745562
    outer loop
      vertex 4.33041 12.4998 2
      vertex 2.38796 13.6135 4
      vertex 3.59075 11.3161 2
    endloop
  endfacet
  facet normal 0.565158 -0.353167 0.745566
    outer loop
      vertex 3.59075 11.3161 2
      vertex 2.38796 13.6135 4
      vertex 1.73469 12.5681 4
    endloop
  endfacet
  facet normal -0.565172 0.353158 0.74556
    outer loop
      vertex 10.5994 8.88043 4
      vertex 8.66073 9.99973 2.0002
      vertex 9.5966 7.27561 4
    endloop
  endfacet
  facet normal -0.565171 0.353158 0.745561
    outer loop
      vertex 7.73594 8.52018 2
      vertex 9.5966 7.27561 4
      vertex 8.66073 9.99973 2.0002
    endloop
  endfacet
  facet normal -0.559373 0.349534 0.751617
    outer loop
      vertex 7.73594 8.52018 2
      vertex 8.66073 9.99973 2.0002
      vertex 8.66053 9.99984 2
    endloop
  endfacet
  facet normal -0.565137 0.353211 0.745562
    outer loop
      vertex 9.5966 7.27561 4
      vertex 7.73594 8.52018 2
      vertex 9.592 7.26825 4
    endloop
  endfacet
  facet normal 0.538648 -0.392444 0.745551
    outer loop
      vertex 1.73061 12.5625 4
      vertex 3.59075 11.3161 2
      vertex 1.73469 12.5681 4
    endloop
  endfacet
  facet normal 0.539143 -0.391732 0.745568
    outer loop
      vertex 3.59075 11.3161 2
      vertex 1.73061 12.5625 4
      vertex 2.77022 10.1868 2
    endloop
  endfacet
  facet normal 0.539178 -0.391707 0.745556
    outer loop
      vertex 2.77022 10.1868 2
      vertex 1.73061 12.5625 4
      vertex 1.00601 11.5651 4
    endloop
  endfacet
  facet normal -0.53916 0.391721 0.745561
    outer loop
      vertex 9.592 7.26825 4
      vertex 7.73594 8.52018 2
      vertex 8.47958 5.73713 4
    endloop
  endfacet
  facet normal -0.53916 0.391721 0.745561
    outer loop
      vertex 6.71027 7.10846 2
      vertex 8.47958 5.73713 4
      vertex 7.73594 8.52018 2
    endloop
  endfacet
  facet normal -0.539172 0.391706 0.74556
    outer loop
      vertex 8.47958 5.73713 4
      vertex 6.71027 7.10846 2
      vertex 8.47448 5.73011 4
    endloop
  endfacet
  facet normal 0.509471 -0.429686 0.745526
    outer loop
      vertex 1.00154 11.5598 4
      vertex 2.77022 10.1868 2
      vertex 1.00601 11.5651 4
    endloop
  endfacet
  facet normal 0.510528 -0.428373 0.745559
    outer loop
      vertex 2.77022 10.1868 2
      vertex 1.00154 11.5598 4
      vertex 1.8729 9.11739 2
    endloop
  endfacet
  facet normal 0.510535 -0.428369 0.745556
    outer loop
      vertex 1.8729 9.11739 2
      vertex 1.00154 11.5598 4
      vertex 0.209134 10.6154 4
    endloop
  endfacet
  facet normal -0.510521 0.428378 0.745561
    outer loop
      vertex 6.71027 7.10846 2
      vertex 7.64268 4.73881 4
      vertex 8.47448 5.73011 4
    endloop
  endfacet
  facet normal -0.510514 0.428382 0.745563
    outer loop
      vertex 7.64268 4.73881 4
      vertex 6.71027 7.10846 2
      vertex 7.2084 4.53623 3.81903
    endloop
  endfacet
  facet normal -0.510522 0.428379 0.74556
    outer loop
      vertex 5.58862 5.77173 2
      vertex 7.2084 4.53623 3.81903
      vertex 6.71027 7.10846 2
    endloop
  endfacet
  facet normal -0.510521 0.42838 0.745559
    outer loop
      vertex 7.2084 4.53623 3.81903
      vertex 5.58862 5.77173 2
      vertex 7.04529 4.46014 3.75106
    endloop
  endfacet
  facet normal 0.475111 -0.467548 0.745432
    outer loop
      vertex 0.204312 10.6105 4
      vertex 1.8729 9.11739 2
      vertex 0.209134 10.6154 4
    endloop
  endfacet
  facet normal 0.479392 -0.462942 0.745566
    outer loop
      vertex 1.8729 9.11739 2
      vertex 0.204312 10.6105 4
      vertex 0.903167 8.1132 2
    endloop
  endfacet
  facet normal 0.479408 -0.462933 0.74556
    outer loop
      vertex 0.903167 8.1132 2
      vertex 0.204312 10.6105 4
      vertex -0.652042 9.72367 4
    endloop
  endfacet
  facet normal -0.479396 0.462948 0.745559
    outer loop
      vertex 7.04529 4.46014 3.75106
      vertex 5.58862 5.77173 2
      vertex 5.81263 3.93672 3.28347
    endloop
  endfacet
  facet normal -0.479397 0.462947 0.745559
    outer loop
      vertex 4.37646 4.5165 2
      vertex 5.81263 3.93672 3.28347
      vertex 5.58862 5.77173 2
    endloop
  endfacet
  facet normal -0.479396 0.462948 0.745559
    outer loop
      vertex 5.81263 3.93672 3.28347
      vertex 4.37646 4.5165 2
      vertex 5.19118 3.67284 3.04773
    endloop
  endfacet
  facet normal 0.445664 -0.495513 0.745554
    outer loop
      vertex -0.657201 9.71903 4
      vertex 0.903167 8.1132 2
      vertex -0.652042 9.72367 4
    endloop
  endfacet
  facet normal 0.445933 -0.49526 0.745561
    outer loop
      vertex 0.903167 8.1132 2
      vertex -0.657201 9.71903 4
      vertex -0.134248 7.17911 2
    endloop
  endfacet
  facet normal 0.445935 -0.495259 0.745561
    outer loop
      vertex -0.134248 7.17911 2
      vertex -0.657201 9.71903 4
      vertex -1.57333 8.89414 4
    endloop
  endfacet
  facet normal -0.445935 0.495262 0.745559
    outer loop
      vertex 5.19118 3.67284 3.04773
      vertex 4.37646 4.5165 2
      vertex 4.4351 3.3825 2.78837
    endloop
  endfacet
  facet normal -0.445933 0.495262 0.745559
    outer loop
      vertex 3.07969 3.34889 2
      vertex 4.4351 3.3825 2.78837
      vertex 4.37646 4.5165 2
    endloop
  endfacet
  facet normal -0.445934 0.495258 0.745562
    outer loop
      vertex 4.4351 3.3825 2.78837
      vertex 3.07969 3.34889 2
      vertex 3.38866 2.98067 2.4294
    endloop
  endfacet
  facet normal 0.410087 -0.525334 0.745556
    outer loop
      vertex -1.5788 8.88987 4
      vertex -0.134248 7.17911 2
      vertex -1.57333 8.89414 4
    endloop
  endfacet
  facet normal 0.410301 -0.525159 0.745561
    outer loop
      vertex -0.134248 7.17911 2
      vertex -1.5788 8.88987 4
      vertex -1.23429 6.31966 2
    endloop
  endfacet
  facet normal 0.410299 -0.52516 0.745562
    outer loop
      vertex -1.23429 6.31966 2
      vertex -1.5788 8.88987 4
      vertex -2.55024 8.1309 4
    endloop
  endfacet
  facet normal -0.410303 0.525156 0.745562
    outer loop
      vertex 3.38866 2.98067 2.4294
      vertex 3.07969 3.34889 2
      vertex 3.07102 2.87126 2.33166
    endloop
  endfacet
  facet normal -0.410298 0.525157 0.745564
    outer loop
      vertex 3.07102 2.87126 2.33166
      vertex 3.07969 3.34889 2
      vertex 1.99316 2.5 2
    endloop
  endfacet
  facet normal 0.372769 -0.552429 0.745564
    outer loop
      vertex -2.55599 8.12702 4
      vertex -1.23429 6.31966 2
      vertex -2.55024 8.1309 4
    endloop
  endfacet
  facet normal 0.372666 -0.552502 0.745561
    outer loop
      vertex -1.23429 6.31966 2
      vertex -2.55599 8.12702 4
      vertex -2.39161 5.53904 2
    endloop
  endfacet
  facet normal 0.37267 -0.552501 0.74556
    outer loop
      vertex -2.39161 5.53904 2
      vertex -2.55599 8.12702 4
      vertex -3.578 7.43766 4
    endloop
  endfacet
  facet normal 0.332817 -0.577395 0.745552
    outer loop
      vertex -3.58402 7.43419 4
      vertex -2.39161 5.53904 2
      vertex -3.578 7.43766 4
    endloop
  endfacet
  facet normal 0.333217 -0.577152 0.745561
    outer loop
      vertex -2.39161 5.53904 2
      vertex -3.58402 7.43419 4
      vertex -3.60057 4.84105 2
    endloop
  endfacet
  facet normal 0.333221 -0.577152 0.74556
    outer loop
      vertex -3.60057 4.84105 2
      vertex -3.58402 7.43419 4
      vertex -4.65163 6.8178 4
    endloop
  endfacet
  facet normal 0.291882 -0.599127 0.745555
    outer loop
      vertex -4.65787 6.81476 4
      vertex -3.60057 4.84105 2
      vertex -4.65163 6.8178 4
    endloop
  endfacet
  facet normal 0.292148 -0.59899 0.74556
    outer loop
      vertex -3.60057 4.84105 2
      vertex -4.65787 6.81476 4
      vertex -4.85527 4.22909 2
    endloop
  endfacet
  facet normal 0.292148 -0.59899 0.74556
    outer loop
      vertex -4.85527 4.22909 2
      vertex -4.65787 6.81476 4
      vertex -5.76587 6.27435 4
    endloop
  endfacet
  facet normal 0.249494 -0.617978 0.745557
    outer loop
      vertex -5.77231 6.27175 4
      vertex -4.85527 4.22909 2
      vertex -5.76587 6.27435 4
    endloop
  endfacet
  facet normal 0.249651 -0.617911 0.745561
    outer loop
      vertex -4.85527 4.22909 2
      vertex -5.77231 6.27175 4
      vertex -6.1496 3.70615 2
    endloop
  endfacet
  facet normal 0.249654 -0.617911 0.74556
    outer loop
      vertex -6.1496 3.70615 2
      vertex -5.77231 6.27175 4
      vertex -6.91532 5.80994 4
    endloop
  endfacet
  facet normal 0.205555 -0.633955 0.745553
    outer loop
      vertex -6.92192 5.8078 4
      vertex -6.1496 3.70615 2
      vertex -6.91532 5.80994 4
    endloop
  endfacet
  facet normal 0.205941 -0.63382 0.74556
    outer loop
      vertex -6.1496 3.70615 2
      vertex -6.92192 5.8078 4
      vertex -7.47725 3.27477 2
    endloop
  endfacet
  facet normal 0.205943 -0.63382 0.74556
    outer loop
      vertex -7.47725 3.27477 2
      vertex -6.92192 5.8078 4
      vertex -8.09435 5.42685 4
    endloop
  endfacet
  facet normal 0.161184 -0.646654 0.745559
    outer loop
      vertex -8.10109 5.42517 4
      vertex -7.47725 3.27477 2
      vertex -8.09435 5.42685 4
    endloop
  endfacet
  facet normal 0.161226 -0.646643 0.74556
    outer loop
      vertex -7.47725 3.27477 2
      vertex -8.10109 5.42517 4
      vertex -8.83177 2.93705 2
    endloop
  endfacet
  facet normal 0.161224 -0.646642 0.74556
    outer loop
      vertex -8.83177 2.93705 2
      vertex -8.10109 5.42517 4
      vertex -9.29724 5.12694 4
    endloop
  endfacet
  facet normal 0.11609 -0.656242 0.745567
    outer loop
      vertex -9.30408 5.12573 4
      vertex -8.83177 2.93705 2
      vertex -9.29724 5.12694 4
    endloop
  endfacet
  facet normal 0.11573 -0.656313 0.74556
    outer loop
      vertex -8.83177 2.93705 2
      vertex -9.30408 5.12573 4
      vertex -10.2065 2.69464 2
    endloop
  endfacet
  facet normal 0.115729 -0.656313 0.74556
    outer loop
      vertex -10.2065 2.69464 2
      vertex -9.30408 5.12573 4
      vertex -10.5181 4.91166 4
    endloop
  endfacet
  facet normal 0.0691669 -0.662849 0.745551
    outer loop
      vertex -10.525 4.91094 4
      vertex -10.2065 2.69464 2
      vertex -10.5181 4.91166 4
    endloop
  endfacet
  facet normal 0.0696585 -0.662787 0.745561
    outer loop
      vertex -10.2065 2.69464 2
      vertex -10.525 4.91094 4
      vertex -11.5949 2.54872 2
    endloop
  endfacet
  facet normal 0.069663 -0.662788 0.745559
    outer loop
      vertex -11.5949 2.54872 2
      vertex -10.525 4.91094 4
      vertex -11.751 4.78208 4
    endloop
  endfacet
  facet normal 0.0237858 -0.666004 0.745569
    outer loop
      vertex -11.758 4.78183 4
      vertex -11.5949 2.54872 2
      vertex -11.751 4.78208 4
    endloop
  endfacet
  facet normal 0.0232594 -0.666033 0.745559
    outer loop
      vertex -11.5949 2.54872 2
      vertex -11.758 4.78183 4
      vertex -12.99 2.5 2
    endloop
  endfacet
  facet normal 0.0232571 -0.666032 0.74556
    outer loop
      vertex -12.99 2.5 2
      vertex -11.758 4.78183 4
      vertex -12.99 4.73881 4
    endloop
  endfacet
  facet normal -0.0332921 -0.665842 0.74535
    outer loop
      vertex -12.9904 2.50001 2
      vertex -12.99 4.73881 4
      vertex -12.9904 4.73883 4
    endloop
  endfacet
  facet normal -0.016653 -0.66612 0.745658
    outer loop
      vertex -12.99 4.73881 4
      vertex -12.9904 2.50001 2
      vertex -12.99 2.5 2
    endloop
  endfacet
endsolid OpenSCAD_Model
