solid OpenSCAD_Model
  facet normal -0.866026 0.499999 0
    outer loop
      vertex -15 0 0
      vertex -7.5 12.9904 4
      vertex -7.5 12.9904 0
    endloop
  endfacet
  facet normal -0.866026 0.499999 0
    outer loop
      vertex -7.5 12.9904 4
      vertex -15 0 0
      vertex -15 0 4
    endloop
  endfacet
  facet normal 0 0 -1
    outer loop
      vertex 7.5 -12.9904 0
      vertex 7.5 12.9904 0
      vertex 15 0 0
    endloop
  endfacet
  facet normal 0 0 -1
    outer loop
      vertex -7.5 -12.9904 0
      vertex 7.5 12.9904 0
      vertex 7.5 -12.9904 0
    endloop
  endfacet
  facet normal 0 0 -1
    outer loop
      vertex -7.5 -12.9904 0
      vertex -7.5 12.9904 0
      vertex 7.5 12.9904 0
    endloop
  endfacet
  facet normal 0 -0 -1
    outer loop
      vertex -7.5 12.9904 0
      vertex -7.5 -12.9904 0
      vertex -15 0 0
    endloop
  endfacet
  facet normal 0.866026 -0.499999 0
    outer loop
      vertex 7.5 -12.9904 4
      vertex 15 0 0
      vertex 15 0 4
    endloop
  endfacet
  facet normal 0.866026 -0.499999 0
    outer loop
      vertex 15 0 0
      vertex 7.5 -12.9904 4
      vertex 7.5 -12.9904 0
    endloop
  endfacet
  facet normal -0 0 1
    outer loop
      vertex 12.574 1.73837 4
      vertex 15 0 4
      vertex 13.6192 2.39154 4
    endloop
  endfacet
  facet normal -0 0 1
    outer loop
      vertex 12.5681 1.73469 4
      vertex 15 0 4
      vertex 12.574 1.73837 4
    endloop
  endfacet
  facet normal -0 0 1
    outer loop
      vertex 11.5707 1.01009 4
      vertex 15 0 4
      vertex 12.5681 1.73469 4
    endloop
  endfacet
  facet normal -0 0 1
    outer loop
      vertex 11.5651 1.00601 4
      vertex 15 0 4
      vertex 11.5707 1.01009 4
    endloop
  endfacet
  facet normal -0 0 1
    outer loop
      vertex 10.6208 0.213596 4
      vertex 15 0 4
      vertex 11.5651 1.00601 4
    endloop
  endfacet
  facet normal -0 0 1
    outer loop
      vertex 10.6154 0.209134 4
      vertex 15 0 4
      vertex 10.6208 0.213596 4
    endloop
  endfacet
  facet normal 0 0 1
    outer loop
      vertex 9.72866 -0.64722 4
      vertex 15 0 4
      vertex 10.6154 0.209134 4
    endloop
  endfacet
  facet normal 0 0 1
    outer loop
      vertex 9.72367 -0.652042 4
      vertex 15 0 4
      vertex 9.72866 -0.64722 4
    endloop
  endfacet
  facet normal 0 0 1
    outer loop
      vertex 8.89879 -1.56817 4
      vertex 15 0 4
      vertex 9.72367 -0.652042 4
    endloop
  endfacet
  facet normal 0 0 1
    outer loop
      vertex 8.89414 -1.57333 4
      vertex 15 0 4
      vertex 8.89879 -1.56817 4
    endloop
  endfacet
  facet normal 0 0 1
    outer loop
      vertex 8.13517 -2.54477 4
      vertex 15 0 4
      vertex 8.89414 -1.57333 4
    endloop
  endfacet
  facet normal 0 0 1
    outer loop
      vertex 8.1309 -2.55024 4
      vertex 15 0 4
      vertex 8.13517 -2.54477 4
    endloop
  endfacet
  facet normal 0 0 1
    outer loop
      vertex 7.44154 -3.57225 4
      vertex 15 0 4
      vertex 8.1309 -2.55024 4
    endloop
  endfacet
  facet normal 0 0 1
    outer loop
      vertex 15 0 4
      vertex 7.44154 -3.57225 4
      vertex 7.5 -12.9904 4
    endloop
  endfacet
  facet normal -0 0 1
    outer loop
      vertex 7.43766 -3.578 4
      vertex 7.5 -12.9904 4
      vertex 7.44154 -3.57225 4
    endloop
  endfacet
  facet normal -0 0 1
    outer loop
      vertex 6.82127 -4.64562 4
      vertex 7.5 -12.9904 4
      vertex 7.43766 -3.578 4
    endloop
  endfacet
  facet normal -0 0 1
    outer loop
      vertex 6.8178 -4.65163 4
      vertex 7.5 -12.9904 4
      vertex 6.82127 -4.64562 4
    endloop
  endfacet
  facet normal -0 0 1
    outer loop
      vertex 6.27739 -5.75963 4
      vertex 7.5 -12.9904 4
      vertex 6.8178 -4.65163 4
    endloop
  endfacet
  facet normal -0 0 1
    outer loop
      vertex 6.27435 -5.76587 4
      vertex 7.5 -12.9904 4
      vertex 6.27739 -5.75963 4
    endloop
  endfacet
  facet normal -0 0 1
    outer loop
      vertex 5.81254 -6.90888 4
      vertex 7.5 -12.9904 4
      vertex 6.27435 -5.76587 4
    endloop
  endfacet
  facet normal -0 0 1
    outer loop
      vertex 5.80994 -6.91532 4
      vertex 7.5 -12.9904 4
      vertex 5.81254 -6.90888 4
    endloop
  endfacet
  facet normal -0 0 1
    outer loop
      vertex 5.42899 -8.08775 4
      vertex 7.5 -12.9904 4
      vertex 5.80994 -6.91532 4
    endloop
  endfacet
  facet normal -0 0 1
    outer loop
      vertex 5.42685 -8.09435 4
      vertex 7.5 -12.9904 4
      vertex 5.42899 -8.08775 4
    endloop
  endfacet
  facet normal -0 0 1
    outer loop
      vertex 5.12862 -9.29051 4
      vertex 7.5 -12.9904 4
      vertex 5.42685 -8.09435 4
    endloop
  endfacet
  facet normal -0 0 1
    outer loop
      vertex 5.12694 -9.29724 4
      vertex 7.5 -12.9904 4
      vertex 5.12862 -9.29051 4
    endloop
  endfacet
  facet normal -0 0 1
    outer loop
      vertex 4.91287 -10.5113 4
      vertex 7.5 -12.9904 4
      vertex 5.12694 -9.29724 4
    endloop
  endfacet
  facet normal -0 0 1
    outer loop
      vertex 4.91166 -10.5181 4
      vertex 7.5 -12.9904 4
      vertex 4.91287 -10.5113 4
    endloop
  endfacet
  facet normal -0 0 1
    outer loop
      vertex 4.7828 -11.7441 4
      vertex 7.5 -12.9904 4
      vertex 4.91166 -10.5181 4
    endloop
  endfacet
  facet normal -0 0 1
    outer loop
      vertex 4.78208 -11.751 4
      vertex 7.5 -12.9904 4
      vertex 4.7828 -11.7441 4
    endloop
  endfacet
  facet normal -0 0 1
    outer loop
      vertex 4.73905 -12.9831 4
      vertex 7.5 -12.9904 4
      vertex 4.78208 -11.751 4
    endloop
  endfacet
  facet normal 0 0 1
    outer loop
      vertex 4.73905 -12.9831 4
      vertex 4.73883 -12.9904 4
      vertex 7.5 -12.9904 4
    endloop
  endfacet
  facet normal 0 -0 1
    outer loop
      vertex 4.73883 -12.9904 4
      vertex 4.73905 -12.9831 4
      vertex 4.73881 -12.99 4
    endloop
  endfacet
  facet normal 0 0 1
    outer loop
      vertex 7.5 12.9904 4
      vertex 8.87324 10.5949 4
      vertex 8.88043 10.5994 4
    endloop
  endfacet
  facet normal 0 0 1
    outer loop
      vertex 7.5 12.9904 4
      vertex 7.26825 9.592 4
      vertex 8.87324 10.5949 4
    endloop
  endfacet
  facet normal 0 0 1
    outer loop
      vertex 7.5 12.9904 4
      vertex 7.26123 9.5869 4
      vertex 7.26825 9.592 4
    endloop
  endfacet
  facet normal 0 0 1
    outer loop
      vertex 7.5 12.9904 4
      vertex 5.73011 8.47448 4
      vertex 7.26123 9.5869 4
    endloop
  endfacet
  facet normal 0 0 1
    outer loop
      vertex 7.5 12.9904 4
      vertex 5.72347 8.4689 4
      vertex 5.73011 8.47448 4
    endloop
  endfacet
  facet normal 0 0 1
    outer loop
      vertex 7.5 12.9904 4
      vertex 4.27368 7.25238 4
      vertex 5.72347 8.4689 4
    endloop
  endfacet
  facet normal -0 0 1
    outer loop
      vertex -7.5 12.9904 4
      vertex 4.27368 7.25238 4
      vertex 7.5 12.9904 4
    endloop
  endfacet
  facet normal 0 0 1
    outer loop
      vertex 4.27368 7.25238 4
      vertex -7.5 12.9904 4
      vertex 4.26744 7.24635 4
    endloop
  endfacet
  facet normal 0 0 1
    outer loop
      vertex 4.26744 7.24635 4
      vertex -7.5 12.9904 4
      vertex 2.90604 5.93167 4
    endloop
  endfacet
  facet normal 0 0 1
    outer loop
      vertex 2.90604 5.93167 4
      vertex -7.5 12.9904 4
      vertex 2.90023 5.92522 4
    endloop
  endfacet
  facet normal 0 0 1
    outer loop
      vertex 2.90023 5.92522 4
      vertex -7.5 12.9904 4
      vertex 1.63386 4.51877 4
    endloop
  endfacet
  facet normal 0 0 1
    outer loop
      vertex 1.63386 4.51877 4
      vertex -7.5 12.9904 4
      vertex 1.62852 4.51193 4
    endloop
  endfacet
  facet normal 0 0 1
    outer loop
      vertex -7.5 12.9904 4
      vertex -0.604161 1.43686 4
      vertex -0.599822 1.44437 4
    endloop
  endfacet
  facet normal 0 0 1
    outer loop
      vertex -15 0 4
      vertex -1.55425 -0.20995 4
      vertex -1.55044 -0.202152 4
    endloop
  endfacet
  facet normal 0 0 1
    outer loop
      vertex -15 0 4
      vertex -3.09879 -3.68203 4
      vertex -3.09611 -3.67378 4
    endloop
  endfacet
  facet normal 0 0 1
    outer loop
      vertex -7.5 -12.9904 4
      vertex -4.67276 -11.0986 4
      vertex -4.67246 -11.0899 4
    endloop
  endfacet
  facet normal 0 0 1
    outer loop
      vertex -4.47373 -9.19909 4
      vertex -7.5 -12.9904 4
      vertex -4.47463 -9.20772 4
    endloop
  endfacet
  facet normal 0 0 1
    outer loop
      vertex -4.14509 -7.33528 4
      vertex -7.5 -12.9904 4
      vertex -4.47373 -9.19909 4
    endloop
  endfacet
  facet normal 0 -0 1
    outer loop
      vertex -7.5 -12.9904 4
      vertex -4.14509 -7.33528 4
      vertex -15 0 4
    endloop
  endfacet
  facet normal 0 0 1
    outer loop
      vertex -4.14358 -7.32673 4
      vertex -15 0 4
      vertex -4.14509 -7.33528 4
    endloop
  endfacet
  facet normal 0 0 1
    outer loop
      vertex -3.68573 -5.49038 4
      vertex -15 0 4
      vertex -4.14358 -7.32673 4
    endloop
  endfacet
  facet normal 0 0 1
    outer loop
      vertex -3.68363 -5.48197 4
      vertex -15 0 4
      vertex -3.68573 -5.49038 4
    endloop
  endfacet
  facet normal 0 0 1
    outer loop
      vertex -3.09879 -3.68203 4
      vertex -15 0 4
      vertex -3.68363 -5.48197 4
    endloop
  endfacet
  facet normal 0 0 1
    outer loop
      vertex -2.38714 -1.91902 4
      vertex -15 0 4
      vertex -3.09611 -3.67378 4
    endloop
  endfacet
  facet normal 0 0 1
    outer loop
      vertex -2.38389 -1.91098 4
      vertex -15 0 4
      vertex -2.38714 -1.91902 4
    endloop
  endfacet
  facet normal 0 0 1
    outer loop
      vertex -1.55425 -0.20995 4
      vertex -15 0 4
      vertex -2.38389 -1.91098 4
    endloop
  endfacet
  facet normal -0 0 1
    outer loop
      vertex -15 0 4
      vertex -1.55044 -0.202152 4
      vertex -7.5 12.9904 4
    endloop
  endfacet
  facet normal 0 0 1
    outer loop
      vertex -0.604161 1.43686 4
      vertex -7.5 12.9904 4
      vertex -1.55044 -0.202152 4
    endloop
  endfacet
  facet normal 0 0 1
    outer loop
      vertex 0.458486 3.01338 4
      vertex -7.5 12.9904 4
      vertex -0.599822 1.44437 4
    endloop
  endfacet
  facet normal 0 0 1
    outer loop
      vertex 0.463338 3.02057 4
      vertex -7.5 12.9904 4
      vertex 0.458486 3.01338 4
    endloop
  endfacet
  facet normal 0 0 1
    outer loop
      vertex 1.62852 4.51193 4
      vertex -7.5 12.9904 4
      vertex 0.463338 3.02057 4
    endloop
  endfacet
  facet normal 0 0 1
    outer loop
      vertex -4.47463 -9.20772 4
      vertex -7.5 -12.9904 4
      vertex -4.67246 -11.0899 4
    endloop
  endfacet
  facet normal 0 0 1
    outer loop
      vertex -4.67276 -11.0986 4
      vertex -7.5 -12.9904 4
      vertex -4.73881 -12.99 4
    endloop
  endfacet
  facet normal 0 0 1
    outer loop
      vertex -4.73881 -12.99 4
      vertex -7.5 -12.9904 4
      vertex -4.7388 -12.9904 4
    endloop
  endfacet
  facet normal 0 1 -0
    outer loop
      vertex 7.5 12.9904 0
      vertex -7.5 12.9904 4
      vertex 7.5 12.9904 4
    endloop
  endfacet
  facet normal 0 1 0
    outer loop
      vertex -7.5 12.9904 4
      vertex 7.5 12.9904 0
      vertex -7.5 12.9904 0
    endloop
  endfacet
  facet normal -0.866026 -0.499999 0
    outer loop
      vertex -7.5 -12.9904 0
      vertex -15 0 4
      vertex -15 0 0
    endloop
  endfacet
  facet normal -0.866026 -0.499999 0
    outer loop
      vertex -15 0 4
      vertex -7.5 -12.9904 0
      vertex -7.5 -12.9904 4
    endloop
  endfacet
  facet normal 0 -1 0
    outer loop
      vertex -7.5 -12.9904 0
      vertex -4.7388 -12.9904 4
      vertex -7.5 -12.9904 4
    endloop
  endfacet
  facet normal 0 -1 -0
    outer loop
      vertex -2.49999 -12.9904 2
      vertex -7.5 -12.9904 0
      vertex 2.50001 -12.9904 2
    endloop
  endfacet
  facet normal 0 -1 -0
    outer loop
      vertex -4.7388 -12.9904 4
      vertex -7.5 -12.9904 0
      vertex -2.49999 -12.9904 2
    endloop
  endfacet
  facet normal 0 -1 0
    outer loop
      vertex 7.5 -12.9904 0
      vertex 4.73883 -12.9904 4
      vertex 2.5007 -12.9904 2.00062
    endloop
  endfacet
  facet normal 0 -1 0
    outer loop
      vertex 7.5 -12.9904 0
      vertex 2.5007 -12.9904 2.00062
      vertex 2.50001 -12.9904 2
    endloop
  endfacet
  facet normal 0 -1 0
    outer loop
      vertex 4.73883 -12.9904 4
      vertex 7.5 -12.9904 0
      vertex 7.5 -12.9904 4
    endloop
  endfacet
  facet normal 0 -1 0
    outer loop
      vertex 7.5 -12.9904 0
      vertex 2.50001 -12.9904 2
      vertex -7.5 -12.9904 0
    endloop
  endfacet
  facet normal 0.866028 0.499996 0
    outer loop
      vertex 8.88043 10.5994 4
      vertex 7.5 12.9904 0
      vertex 7.5 12.9904 4
    endloop
  endfacet
  facet normal 0.866026 0.499999 2.41734e-06
    outer loop
      vertex 9.99984 8.66053 2
      vertex 7.5 12.9904 0
      vertex 8.88043 10.5994 4
    endloop
  endfacet
  facet normal 0.866029 0.499995 -1.05376e-05
    outer loop
      vertex 12.4998 4.33041 2
      vertex 7.5 12.9904 0
      vertex 9.99984 8.66053 2
    endloop
  endfacet
  facet normal 0.866027 0.499998 1.14595e-05
    outer loop
      vertex 15 0 0
      vertex 12.5 4.33011 2.00031
      vertex 13.6192 2.39154 4
    endloop
  endfacet
  facet normal 0.866019 0.500012 -0
    outer loop
      vertex 15 0 0
      vertex 13.6192 2.39154 4
      vertex 15 0 4
    endloop
  endfacet
  facet normal 0.866026 0.499999 1.7436e-05
    outer loop
      vertex 12.4998 4.33041 2
      vertex 15 0 0
      vertex 7.5 12.9904 0
    endloop
  endfacet
  facet normal 0.854505 0.516929 -0.05104
    outer loop
      vertex 12.5 4.33011 2.00031
      vertex 15 0 0
      vertex 12.4998 4.33041 2
    endloop
  endfacet
  facet normal 0.66612 0.016653 0.745658
    outer loop
      vertex -2.5 -12.99 2
      vertex -4.7388 -12.9904 4
      vertex -2.49999 -12.9904 2
    endloop
  endfacet
  facet normal 0.66612 0.016653 0.745658
    outer loop
      vertex -4.7388 -12.9904 4
      vertex -2.5 -12.99 2
      vertex -4.73881 -12.99 4
    endloop
  endfacet
  facet normal -0.668276 -0.0167069 0.743726
    outer loop
      vertex 2.5007 -12.9904 2.00062
      vertex 2.5 -12.99 2
      vertex 2.50001 -12.9904 2
    endloop
  endfacet
  facet normal -0.665841 -0.0332921 0.74535
    outer loop
      vertex 4.73881 -12.99 4
      vertex 2.5007 -12.9904 2.00062
      vertex 4.73883 -12.9904 4
    endloop
  endfacet
  facet normal -0.66618 -0.0099409 0.745725
    outer loop
      vertex 2.5007 -12.9904 2.00062
      vertex 4.73881 -12.99 4
      vertex 2.5 -12.99 2
    endloop
  endfacet
  facet normal 0 0 1
    outer loop
      vertex 9.99984 8.66053 2
      vertex 11.3161 3.59075 2
      vertex 12.4998 4.33041 2
    endloop
  endfacet
  facet normal -0 0 1
    outer loop
      vertex 8.52018 7.73594 2
      vertex 11.3161 3.59075 2
      vertex 9.99984 8.66053 2
    endloop
  endfacet
  facet normal 0 0 1
    outer loop
      vertex 11.3161 3.59075 2
      vertex 8.52018 7.73594 2
      vertex 10.1868 2.77022 2
    endloop
  endfacet
  facet normal -0 0 1
    outer loop
      vertex 7.10846 6.71027 2
      vertex 10.1868 2.77022 2
      vertex 8.52018 7.73594 2
    endloop
  endfacet
  facet normal 0 0 1
    outer loop
      vertex 10.1868 2.77022 2
      vertex 7.10846 6.71027 2
      vertex 9.11739 1.8729 2
    endloop
  endfacet
  facet normal -0 0 1
    outer loop
      vertex 5.77173 5.58862 2
      vertex 9.11739 1.8729 2
      vertex 7.10846 6.71027 2
    endloop
  endfacet
  facet normal 0 0 1
    outer loop
      vertex 9.11739 1.8729 2
      vertex 5.77173 5.58862 2
      vertex 8.1132 0.903167 2
    endloop
  endfacet
  facet normal -0 0 1
    outer loop
      vertex 4.5165 4.37646 2
      vertex 8.1132 0.903167 2
      vertex 5.77173 5.58862 2
    endloop
  endfacet
  facet normal 0 0 1
    outer loop
      vertex 8.1132 0.903167 2
      vertex 4.5165 4.37646 2
      vertex 7.17911 -0.134248 2
    endloop
  endfacet
  facet normal -0 0 1
    outer loop
      vertex 3.34889 3.07969 2
      vertex 7.17911 -0.134248 2
      vertex 4.5165 4.37646 2
    endloop
  endfacet
  facet normal 0 0 1
    outer loop
      vertex 7.17911 -0.134248 2
      vertex 3.34889 3.07969 2
      vertex 6.31966 -1.23429 2
    endloop
  endfacet
  facet normal -0 0 1
    outer loop
      vertex 2.27457 1.70463 2
      vertex 6.31966 -1.23429 2
      vertex 3.34889 3.07969 2
    endloop
  endfacet
  facet normal 0 0 1
    outer loop
      vertex 6.31966 -1.23429 2
      vertex 2.27457 1.70463 2
      vertex 5.53904 -2.39161 2
    endloop
  endfacet
  facet normal -0 0 1
    outer loop
      vertex 1.2988 0.257981 2
      vertex 5.53904 -2.39161 2
      vertex 2.27457 1.70463 2
    endloop
  endfacet
  facet normal 0 0 1
    outer loop
      vertex 5.53904 -2.39161 2
      vertex 1.2988 0.257981 2
      vertex 4.84105 -3.60057 2
    endloop
  endfacet
  facet normal -0 0 1
    outer loop
      vertex 0.42631 -1.25321 2
      vertex 4.84105 -3.60057 2
      vertex 1.2988 0.257981 2
    endloop
  endfacet
  facet normal 0 0 1
    outer loop
      vertex 4.84105 -3.60057 2
      vertex 0.42631 -1.25321 2
      vertex 4.22909 -4.85527 2
    endloop
  endfacet
  facet normal -0 0 1
    outer loop
      vertex -0.338636 -2.82158 2
      vertex 4.22909 -4.85527 2
      vertex 0.42631 -1.25321 2
    endloop
  endfacet
  facet normal 0 0 1
    outer loop
      vertex 4.22909 -4.85527 2
      vertex -0.338636 -2.82158 2
      vertex 3.70615 -6.1496 2
    endloop
  endfacet
  facet normal 0 0 1
    outer loop
      vertex 3.70615 -6.1496 2
      vertex -0.992315 -4.4395 2
      vertex 3.27477 -7.47725 2
    endloop
  endfacet
  facet normal -0 0 1
    outer loop
      vertex -0.992315 -4.4395 2
      vertex 3.70615 -6.1496 2
      vertex -0.338636 -2.82158 2
    endloop
  endfacet
  facet normal -0 0 1
    outer loop
      vertex -1.53154 -6.09907 2
      vertex 3.27477 -7.47725 2
      vertex -0.992315 -4.4395 2
    endloop
  endfacet
  facet normal 0 0 1
    outer loop
      vertex 3.27477 -7.47725 2
      vertex -1.53154 -6.09907 2
      vertex 2.93705 -8.83177 2
    endloop
  endfacet
  facet normal -0 0 1
    outer loop
      vertex -1.95369 -7.79221 2
      vertex 2.93705 -8.83177 2
      vertex -1.53154 -6.09907 2
    endloop
  endfacet
  facet normal 0 0 1
    outer loop
      vertex 2.93705 -8.83177 2
      vertex -1.95369 -7.79221 2
      vertex 2.69464 -10.2065 2
    endloop
  endfacet
  facet normal -0 0 1
    outer loop
      vertex -2.2567 -9.51067 2
      vertex 2.69464 -10.2065 2
      vertex -1.95369 -7.79221 2
    endloop
  endfacet
  facet normal 0 0 1
    outer loop
      vertex 2.69464 -10.2065 2
      vertex -2.2567 -9.51067 2
      vertex 2.54872 -11.5949 2
    endloop
  endfacet
  facet normal -0 0 1
    outer loop
      vertex -2.4391 -11.2461 2
      vertex 2.54872 -11.5949 2
      vertex -2.2567 -9.51067 2
    endloop
  endfacet
  facet normal 0 0 1
    outer loop
      vertex 2.54872 -11.5949 2
      vertex -2.4391 -11.2461 2
      vertex 2.5 -12.99 2
    endloop
  endfacet
  facet normal 0 0 1
    outer loop
      vertex -2.5 -12.99 2
      vertex 2.5 -12.99 2
      vertex -2.4391 -11.2461 2
    endloop
  endfacet
  facet normal 0 -0 1
    outer loop
      vertex -2.49999 -12.9904 2
      vertex 2.5 -12.99 2
      vertex -2.5 -12.99 2
    endloop
  endfacet
  facet normal 0 0 1
    outer loop
      vertex 2.5 -12.99 2
      vertex -2.49999 -12.9904 2
      vertex 2.50001 -12.9904 2
    endloop
  endfacet
  facet normal 0.666032 -0.0232587 0.74556
    outer loop
      vertex -4.67276 -11.0986 4
      vertex -4.73881 -12.99 4
      vertex -2.5 -12.99 2
    endloop
  endfacet
  facet normal 0.666047 -0.0229672 0.745556
    outer loop
      vertex -4.67276 -11.0986 4
      vertex -2.4391 -11.2461 2
      vertex -4.67246 -11.0899 4
    endloop
  endfacet
  facet normal 0.666032 -0.023259 0.74556
    outer loop
      vertex -2.4391 -11.2461 2
      vertex -4.67276 -11.0986 4
      vertex -2.5 -12.99 2
    endloop
  endfacet
  facet normal -0.666033 0.0232593 0.74556
    outer loop
      vertex 2.5 -12.99 2
      vertex 4.73905 -12.9831 4
      vertex 2.54872 -11.5949 2
    endloop
  endfacet
  facet normal -0.666034 0.0231664 0.745562
    outer loop
      vertex 4.73905 -12.9831 4
      vertex 2.5 -12.99 2
      vertex 4.73881 -12.99 4
    endloop
  endfacet
  facet normal -0.666032 0.0232606 0.74556
    outer loop
      vertex 4.78208 -11.751 4
      vertex 2.54872 -11.5949 2
      vertex 4.73905 -12.9831 4
    endloop
  endfacet
  facet normal 0.662786 -0.0696634 0.745561
    outer loop
      vertex -4.47463 -9.20772 4
      vertex -4.67246 -11.0899 4
      vertex -2.4391 -11.2461 2
    endloop
  endfacet
  facet normal 0.662853 -0.0691272 0.745552
    outer loop
      vertex -4.47463 -9.20772 4
      vertex -2.2567 -9.51067 2
      vertex -4.47373 -9.19909 4
    endloop
  endfacet
  facet normal 0.662788 -0.0696614 0.74556
    outer loop
      vertex -2.2567 -9.51067 2
      vertex -4.47463 -9.20772 4
      vertex -2.4391 -11.2461 2
    endloop
  endfacet
  facet normal -0.662789 0.0696588 0.745559
    outer loop
      vertex 2.54872 -11.5949 2
      vertex 4.7828 -11.7441 4
      vertex 2.69464 -10.2065 2
    endloop
  endfacet
  facet normal -0.662831 0.0691649 0.745568
    outer loop
      vertex 4.7828 -11.7441 4
      vertex 2.54872 -11.5949 2
      vertex 4.78208 -11.751 4
    endloop
  endfacet
  facet normal -0.662787 0.069663 0.74556
    outer loop
      vertex 4.91166 -10.5181 4
      vertex 2.69464 -10.2065 2
      vertex 4.7828 -11.7441 4
    endloop
  endfacet
  facet normal 0.656313 -0.115726 0.745561
    outer loop
      vertex -4.14509 -7.33528 4
      vertex -4.47373 -9.19909 4
      vertex -2.2567 -9.51067 2
    endloop
  endfacet
  facet normal 0.656278 -0.115904 0.745564
    outer loop
      vertex -4.14509 -7.33528 4
      vertex -1.95369 -7.79221 2
      vertex -4.14358 -7.32673 4
    endloop
  endfacet
  facet normal 0.656313 -0.115725 0.745561
    outer loop
      vertex -1.95369 -7.79221 2
      vertex -4.14509 -7.33528 4
      vertex -2.2567 -9.51067 2
    endloop
  endfacet
  facet normal -0.656311 0.115729 0.745562
    outer loop
      vertex 2.69464 -10.2065 2
      vertex 4.91287 -10.5113 4
      vertex 2.93705 -8.83177 2
    endloop
  endfacet
  facet normal -0.656152 0.116756 0.745542
    outer loop
      vertex 4.91287 -10.5113 4
      vertex 2.69464 -10.2065 2
      vertex 4.91166 -10.5181 4
    endloop
  endfacet
  facet normal -0.656313 0.115725 0.74556
    outer loop
      vertex 5.12694 -9.29724 4
      vertex 2.93705 -8.83177 2
      vertex 4.91287 -10.5113 4
    endloop
  endfacet
  facet normal 0.646642 -0.161225 0.745561
    outer loop
      vertex -3.68573 -5.49038 4
      vertex -4.14358 -7.32673 4
      vertex -1.95369 -7.79221 2
    endloop
  endfacet
  facet normal 0.64658 -0.161453 0.745565
    outer loop
      vertex -3.68573 -5.49038 4
      vertex -1.53154 -6.09907 2
      vertex -3.68363 -5.48197 4
    endloop
  endfacet
  facet normal 0.64664 -0.161227 0.745562
    outer loop
      vertex -1.53154 -6.09907 2
      vertex -3.68573 -5.49038 4
      vertex -1.95369 -7.79221 2
    endloop
  endfacet
  facet normal -0.646642 0.161226 0.745561
    outer loop
      vertex 2.93705 -8.83177 2
      vertex 5.12862 -9.29051 4
      vertex 3.27477 -7.47725 2
    endloop
  endfacet
  facet normal -0.6466 0.16141 0.745557
    outer loop
      vertex 5.12862 -9.29051 4
      vertex 2.93705 -8.83177 2
      vertex 5.12694 -9.29724 4
    endloop
  endfacet
  facet normal -0.646644 0.161223 0.74556
    outer loop
      vertex 5.42685 -8.09435 4
      vertex 3.27477 -7.47725 2
      vertex 5.12862 -9.29051 4
    endloop
  endfacet
  facet normal 0.633819 -0.205942 0.745561
    outer loop
      vertex -3.09879 -3.68203 4
      vertex -3.68363 -5.48197 4
      vertex -1.53154 -6.09907 2
    endloop
  endfacet
  facet normal 0.633834 -0.2059 0.74556
    outer loop
      vertex -3.09879 -3.68203 4
      vertex -0.992315 -4.4395 2
      vertex -3.09611 -3.67378 4
    endloop
  endfacet
  facet normal 0.633821 -0.20594 0.74556
    outer loop
      vertex -0.992315 -4.4395 2
      vertex -3.09879 -3.68203 4
      vertex -1.53154 -6.09907 2
    endloop
  endfacet
  facet normal -0.633822 0.205941 0.745559
    outer loop
      vertex 3.27477 -7.47725 2
      vertex 5.42899 -8.08775 4
      vertex 3.70615 -6.1496 2
    endloop
  endfacet
  facet normal -0.63394 0.20555 0.745567
    outer loop
      vertex 5.42899 -8.08775 4
      vertex 3.27477 -7.47725 2
      vertex 5.42685 -8.09435 4
    endloop
  endfacet
  facet normal -0.63382 0.205943 0.74556
    outer loop
      vertex 5.80994 -6.91532 4
      vertex 3.70615 -6.1496 2
      vertex 5.42899 -8.08775 4
    endloop
  endfacet
  facet normal 0.61791 -0.249652 0.74556
    outer loop
      vertex -2.38714 -1.91902 4
      vertex -3.09611 -3.67378 4
      vertex -0.992315 -4.4395 2
    endloop
  endfacet
  facet normal 0.617866 -0.249759 0.745562
    outer loop
      vertex -2.38714 -1.91902 4
      vertex -0.338636 -2.82158 2
      vertex -2.38389 -1.91098 4
    endloop
  endfacet
  facet normal 0.617912 -0.249651 0.74556
    outer loop
      vertex -0.338636 -2.82158 2
      vertex -2.38714 -1.91902 4
      vertex -0.992315 -4.4395 2
    endloop
  endfacet
  facet normal -0.617912 0.249651 0.745559
    outer loop
      vertex 3.70615 -6.1496 2
      vertex 5.81254 -6.90888 4
      vertex 4.22909 -4.85527 2
    endloop
  endfacet
  facet normal -0.617973 0.249492 0.745563
    outer loop
      vertex 5.81254 -6.90888 4
      vertex 3.70615 -6.1496 2
      vertex 5.80994 -6.91532 4
    endloop
  endfacet
  facet normal -0.61791 0.249654 0.74556
    outer loop
      vertex 6.27435 -5.76587 4
      vertex 4.22909 -4.85527 2
      vertex 5.81254 -6.90888 4
    endloop
  endfacet
  facet normal 0.598992 -0.292145 0.74556
    outer loop
      vertex -1.55425 -0.20995 4
      vertex -2.38389 -1.91098 4
      vertex -0.338636 -2.82158 2
    endloop
  endfacet
  facet normal 0.598782 -0.292557 0.745568
    outer loop
      vertex -1.55425 -0.20995 4
      vertex 0.42631 -1.25321 2
      vertex -1.55044 -0.202152 4
    endloop
  endfacet
  facet normal 0.59899 -0.292147 0.745561
    outer loop
      vertex 0.42631 -1.25321 2
      vertex -1.55425 -0.20995 4
      vertex -0.338636 -2.82158 2
    endloop
  endfacet
  facet normal -0.598991 0.292148 0.74556
    outer loop
      vertex 4.22909 -4.85527 2
      vertex 6.27739 -5.75963 4
      vertex 4.84105 -3.60057 2
    endloop
  endfacet
  facet normal -0.599116 0.291877 0.745566
    outer loop
      vertex 6.27739 -5.75963 4
      vertex 4.22909 -4.85527 2
      vertex 6.27435 -5.76587 4
    endloop
  endfacet
  facet normal -0.59899 0.292148 0.74556
    outer loop
      vertex 6.8178 -4.65163 4
      vertex 4.84105 -3.60057 2
      vertex 6.27739 -5.75963 4
    endloop
  endfacet
  facet normal 0.577154 -0.333218 0.74556
    outer loop
      vertex -0.604161 1.43686 4
      vertex -1.55044 -0.202152 4
      vertex 0.42631 -1.25321 2
    endloop
  endfacet
  facet normal 0.577046 -0.333396 0.745564
    outer loop
      vertex -0.604161 1.43686 4
      vertex 1.2988 0.257981 2
      vertex -0.599822 1.44437 4
    endloop
  endfacet
  facet normal 0.577151 -0.33322 0.745561
    outer loop
      vertex 1.2988 0.257981 2
      vertex -0.604161 1.43686 4
      vertex 0.42631 -1.25321 2
    endloop
  endfacet
  facet normal -0.577153 0.333218 0.74556
    outer loop
      vertex 4.84105 -3.60057 2
      vertex 6.82127 -4.64562 4
      vertex 5.53904 -2.39161 2
    endloop
  endfacet
  facet normal -0.577148 0.333228 0.74556
    outer loop
      vertex 6.82127 -4.64562 4
      vertex 4.84105 -3.60057 2
      vertex 6.8178 -4.65163 4
    endloop
  endfacet
  facet normal -0.577153 0.333219 0.74556
    outer loop
      vertex 7.43766 -3.578 4
      vertex 5.53904 -2.39161 2
      vertex 6.82127 -4.64562 4
    endloop
  endfacet
  facet normal 0.552502 -0.372667 0.745561
    outer loop
      vertex 0.458486 3.01338 4
      vertex -0.599822 1.44437 4
      vertex 1.2988 0.257981 2
    endloop
  endfacet
  facet normal 0.552419 -0.372787 0.745562
    outer loop
      vertex 0.458486 3.01338 4
      vertex 2.27457 1.70463 2
      vertex 0.463338 3.02057 4
    endloop
  endfacet
  facet normal 0.552504 -0.372666 0.74556
    outer loop
      vertex 2.27457 1.70463 2
      vertex 0.458486 3.01338 4
      vertex 1.2988 0.257981 2
    endloop
  endfacet
  facet normal -0.552503 0.372667 0.745561
    outer loop
      vertex 5.53904 -2.39161 2
      vertex 7.44154 -3.57225 4
      vertex 6.31966 -1.23429 2
    endloop
  endfacet
  facet normal -0.552434 0.372773 0.745558
    outer loop
      vertex 7.44154 -3.57225 4
      vertex 5.53904 -2.39161 2
      vertex 7.43766 -3.578 4
    endloop
  endfacet
  facet normal -0.5525 0.372669 0.745562
    outer loop
      vertex 8.1309 -2.55024 4
      vertex 6.31966 -1.23429 2
      vertex 7.44154 -3.57225 4
    endloop
  endfacet
  facet normal 0.52516 -0.410302 0.74556
    outer loop
      vertex 1.62852 4.51193 4
      vertex 0.463338 3.02057 4
      vertex 2.27457 1.70463 2
    endloop
  endfacet
  facet normal 0.525313 -0.410113 0.745556
    outer loop
      vertex 1.62852 4.51193 4
      vertex 3.34889 3.07969 2
      vertex 1.63386 4.51877 4
    endloop
  endfacet
  facet normal 0.52516 -0.410302 0.74556
    outer loop
      vertex 3.34889 3.07969 2
      vertex 1.62852 4.51193 4
      vertex 2.27457 1.70463 2
    endloop
  endfacet
  facet normal -0.525159 0.410301 0.745561
    outer loop
      vertex 6.31966 -1.23429 2
      vertex 8.13517 -2.54477 4
      vertex 7.17911 -0.134248 2
    endloop
  endfacet
  facet normal -0.525324 0.41008 0.745566
    outer loop
      vertex 8.13517 -2.54477 4
      vertex 6.31966 -1.23429 2
      vertex 8.1309 -2.55024 4
    endloop
  endfacet
  facet normal -0.525161 0.410299 0.745561
    outer loop
      vertex 8.89414 -1.57333 4
      vertex 7.17911 -0.134248 2
      vertex 8.13517 -2.54477 4
    endloop
  endfacet
  facet normal 0.495261 -0.445933 0.74556
    outer loop
      vertex 2.90023 5.92522 4
      vertex 1.63386 4.51877 4
      vertex 3.34889 3.07969 2
    endloop
  endfacet
  facet normal 0.495167 -0.446034 0.745562
    outer loop
      vertex 2.90023 5.92522 4
      vertex 4.5165 4.37646 2
      vertex 2.90604 5.93167 4
    endloop
  endfacet
  facet normal 0.495262 -0.445933 0.74556
    outer loop
      vertex 4.5165 4.37646 2
      vertex 2.90023 5.92522 4
      vertex 3.34889 3.07969 2
    endloop
  endfacet
  facet normal -0.49526 0.445933 0.745561
    outer loop
      vertex 7.17911 -0.134248 2
      vertex 8.89879 -1.56817 4
      vertex 8.1132 0.903167 2
    endloop
  endfacet
  facet normal -0.495077 0.446145 0.745556
    outer loop
      vertex 8.89879 -1.56817 4
      vertex 7.17911 -0.134248 2
      vertex 8.89414 -1.57333 4
    endloop
  endfacet
  facet normal -0.495261 0.445932 0.745561
    outer loop
      vertex 9.72367 -0.652042 4
      vertex 8.1132 0.903167 2
      vertex 8.89879 -1.56817 4
    endloop
  endfacet
  facet normal 0.462946 -0.479398 0.74556
    outer loop
      vertex 4.26744 7.24635 4
      vertex 2.90604 5.93167 4
      vertex 4.5165 4.37646 2
    endloop
  endfacet
  facet normal 0.463114 -0.479242 0.745555
    outer loop
      vertex 4.26744 7.24635 4
      vertex 5.77173 5.58862 2
      vertex 4.27368 7.25238 4
    endloop
  endfacet
  facet normal 0.462948 -0.479397 0.745559
    outer loop
      vertex 5.77173 5.58862 2
      vertex 4.26744 7.24635 4
      vertex 4.5165 4.37646 2
    endloop
  endfacet
  facet normal -0.462946 0.479396 0.74556
    outer loop
      vertex 8.1132 0.903167 2
      vertex 9.72866 -0.64722 4
      vertex 9.11739 1.8729 2
    endloop
  endfacet
  facet normal -0.463103 0.479238 0.745564
    outer loop
      vertex 9.72866 -0.64722 4
      vertex 8.1132 0.903167 2
      vertex 9.72367 -0.652042 4
    endloop
  endfacet
  facet normal -0.462961 0.479389 0.745556
    outer loop
      vertex 10.6154 0.209134 4
      vertex 9.11739 1.8729 2
      vertex 9.72866 -0.64722 4
    endloop
  endfacet
  facet normal 0.428379 -0.510522 0.745559
    outer loop
      vertex 5.72347 8.4689 4
      vertex 4.27368 7.25238 4
      vertex 5.77173 5.58862 2
    endloop
  endfacet
  facet normal 0.428762 -0.510211 0.745552
    outer loop
      vertex 5.72347 8.4689 4
      vertex 7.10846 6.71027 2
      vertex 5.73011 8.47448 4
    endloop
  endfacet
  facet normal 0.428379 -0.510522 0.74556
    outer loop
      vertex 7.10846 6.71027 2
      vertex 5.72347 8.4689 4
      vertex 5.77173 5.58862 2
    endloop
  endfacet
  facet normal -0.428369 0.510523 0.745564
    outer loop
      vertex 9.11739 1.8729 2
      vertex 10.6208 0.213596 4
      vertex 10.1868 2.77022 2
    endloop
  endfacet
  facet normal -0.424578 0.513832 0.745459
    outer loop
      vertex 10.6208 0.213596 4
      vertex 9.11739 1.8729 2
      vertex 10.6154 0.209134 4
    endloop
  endfacet
  facet normal -0.428398 0.510512 0.745555
    outer loop
      vertex 11.5651 1.00601 4
      vertex 10.1868 2.77022 2
      vertex 10.6208 0.213596 4
    endloop
  endfacet
  facet normal 0.391721 -0.53916 0.745561
    outer loop
      vertex 7.26123 9.5869 4
      vertex 5.73011 8.47448 4
      vertex 7.10846 6.71027 2
    endloop
  endfacet
  facet normal 0.391706 -0.539171 0.745561
    outer loop
      vertex 7.26123 9.5869 4
      vertex 8.52018 7.73594 2
      vertex 7.26825 9.592 4
    endloop
  endfacet
  facet normal 0.391721 -0.53916 0.745561
    outer loop
      vertex 8.52018 7.73594 2
      vertex 7.26123 9.5869 4
      vertex 7.10846 6.71027 2
    endloop
  endfacet
  facet normal -0.39174 0.539154 0.745555
    outer loop
      vertex 10.1868 2.77022 2
      vertex 11.5707 1.01009 4
      vertex 11.3161 3.59075 2
    endloop
  endfacet
  facet normal -0.39243 0.53863 0.745571
    outer loop
      vertex 11.5707 1.01009 4
      vertex 10.1868 2.77022 2
      vertex 11.5651 1.00601 4
    endloop
  endfacet
  facet normal -0.391699 0.539167 0.745567
    outer loop
      vertex 12.5681 1.73469 4
      vertex 11.3161 3.59075 2
      vertex 11.5707 1.01009 4
    endloop
  endfacet
  facet normal 0.353156 -0.565173 0.745561
    outer loop
      vertex 8.87324 10.5949 4
      vertex 7.26825 9.592 4
      vertex 8.52018 7.73594 2
    endloop
  endfacet
  facet normal 0.353569 -0.564925 0.745553
    outer loop
      vertex 8.87324 10.5949 4
      vertex 9.99984 8.66053 2
      vertex 8.88043 10.5994 4
    endloop
  endfacet
  facet normal 0.353157 -0.565173 0.74556
    outer loop
      vertex 9.99984 8.66053 2
      vertex 8.87324 10.5949 4
      vertex 8.52018 7.73594 2
    endloop
  endfacet
  facet normal -0.35315 0.565168 0.745567
    outer loop
      vertex 11.3161 3.59075 2
      vertex 12.574 1.73837 4
      vertex 12.5 4.33011 2.00031
    endloop
  endfacet
  facet normal -0.345566 0.553019 0.758125
    outer loop
      vertex 11.3161 3.59075 2
      vertex 12.5 4.33011 2.00031
      vertex 12.4998 4.33041 2
    endloop
  endfacet
  facet normal -0.352697 0.565465 0.745557
    outer loop
      vertex 12.574 1.73837 4
      vertex 11.3161 3.59075 2
      vertex 12.5681 1.73469 4
    endloop
  endfacet
  facet normal -0.353182 0.56516 0.745558
    outer loop
      vertex 13.6192 2.39154 4
      vertex 12.5 4.33011 2.00031
      vertex 12.574 1.73837 4
    endloop
  endfacet
endsolid OpenSCAD_Model
